SplineFontDB: 3.0
FontName: Karmilla-Regular
FullName: Karmilla Regular
FamilyName: Karmilla
Weight: Regular
Copyright: Karmilla is Copyright (c) 2012, Manuel Schmalstieg (greyscalepress.com), Raphael Bastide (raphaelbastide.com) and other contributors.\nKarmilla is a variation of Karla, optimized for French.\nKarla is Copyright (c) 2011, Jonathan Pinhorn (pinhorn.typedesign@gmail.com), with Reserved Font Names "Karla" and "Karla Tamil".
Version: 016
ItalicAngle: 0
UnderlinePosition: -50
UnderlineWidth: 50
Ascent: 800
Descent: 200
InvalidEm: 0
sfntRevision: 0x00010000
LayerCount: 2
Layer: 0 1 "Back" 1
Layer: 1 1 "Fore" 0
XUID: [1021 288 713564382 10587622]
FSType: 8
OS2Version: 3
OS2_WeightWidthSlopeOnly: 0
OS2_UseTypoMetrics: 1
CreationTime: 1307536560
ModificationTime: 1486065612
PfmFamily: 33
TTFWeight: 400
TTFWidth: 5
LineGap: 0
VLineGap: 0
Panose: 0 0 0 0 0 0 0 0 0 0
OS2TypoAscent: 917
OS2TypoAOffset: 0
OS2TypoDescent: -252
OS2TypoDOffset: 0
OS2TypoLinegap: 0
OS2WinAscent: 917
OS2WinAOffset: 0
OS2WinDescent: 252
OS2WinDOffset: 0
HheadAscent: 917
HheadAOffset: 0
HheadDescent: -252
HheadDOffset: 0
OS2SubXSize: 700
OS2SubYSize: 650
OS2SubXOff: 0
OS2SubYOff: 140
OS2SupXSize: 700
OS2SupYSize: 650
OS2SupXOff: 0
OS2SupYOff: 477
OS2StrikeYSize: 50
OS2StrikeYPos: 250
OS2Vendor: 'pyrs'
OS2CodePages: 00000001.00000000
OS2UnicodeRanges: 80000027.08000042.14000000.00000000
Lookup: 1 0 0 "'onum' Oldstyle Figures in Latin lookup 0" { "'onum' Oldstyle Figures in Latin lookup 0 subtable" ("oldstyle") } ['onum' ('latn' <'dflt' > ) ]
Lookup: 258 0 0 "'kern' Horizontal Kerning in Latin lookup 0" { "'kern' Horizontal Kerning in Latin lookup 0 subtable"  } ['kern' ('latn' <'dflt' > ) ]
MarkAttachClasses: 1
DEI: 91125
TtTable: prep
PUSHW_1
 511
SCANCTRL
PUSHB_1
 4
SCANTYPE
EndTTInstrs

StartChar: comma
Encoding: 44 44 4
Width: 210
Flags: W
LayerCount: 2
Fore
SplineSet
67 10 m 128,-1,1
 52 23 52 23 52 45 c 128,-1,2
 52 67 52 67 67.5 82 c 128,-1,3
 83 97 83 97 111.5 97 c 128,-1,4
 140 97 140 97 159 74.5 c 128,-1,5
 178 52 178 52 178 18 c 128,-1,6
 178 -16 178 -16 156 -51.5 c 128,-1,7
 134 -87 134 -87 89 -109 c 1,8,-1
 30 -80 l 1,9,10
 92 -50 92 -50 105 -5 c 1,11,0
 82 -3 82 -3 67 10 c 128,-1,1
EndSplineSet
Validated: 1
EndChar

StartChar: period
Encoding: 46 46 5
Width: 179
Flags: W
LayerCount: 2
Fore
SplineSet
46.5 7.5 m 128,-1,1
 30 24 30 24 30 47.5 c 128,-1,2
 30 71 30 71 46.5 87.5 c 128,-1,3
 63 104 63 104 88.5 104 c 128,-1,4
 114 104 114 104 131 87.5 c 128,-1,5
 148 71 148 71 148 47.5 c 128,-1,6
 148 24 148 24 131 7.5 c 128,-1,7
 114 -9 114 -9 88.5 -9 c 128,-1,0
 63 -9 63 -9 46.5 7.5 c 128,-1,1
EndSplineSet
Validated: 1
EndChar

StartChar: semicolon
Encoding: 59 59 6
Width: 262
Flags: W
LayerCount: 2
Fore
SplineSet
94 10 m 128,-1,1
 79 23 79 23 79 45 c 128,-1,2
 79 67 79 67 94.5 82 c 128,-1,3
 110 97 110 97 138.5 97 c 128,-1,4
 167 97 167 97 186 74.5 c 128,-1,5
 205 52 205 52 205 18 c 128,-1,6
 205 -16 205 -16 183 -51.5 c 128,-1,7
 161 -87 161 -87 116 -109 c 1,8,-1
 57 -80 l 1,9,10
 119 -50 119 -50 132 -5 c 1,11,0
 109 -3 109 -3 94 10 c 128,-1,1
98.5 345.5 m 128,-1,13
 82 362 82 362 82 385.5 c 128,-1,14
 82 409 82 409 98.5 425.5 c 128,-1,15
 115 442 115 442 140.5 442 c 128,-1,16
 166 442 166 442 183 425.5 c 128,-1,17
 200 409 200 409 200 385.5 c 128,-1,18
 200 362 200 362 183 345.5 c 128,-1,19
 166 329 166 329 140.5 329 c 128,-1,12
 115 329 115 329 98.5 345.5 c 128,-1,13
EndSplineSet
Validated: 1
EndChar

StartChar: colon
Encoding: 58 58 7
Width: 231
Flags: W
LayerCount: 2
Fore
SplineSet
72.5 39.5 m 128,-1,1
 56 56 56 56 56 79.5 c 128,-1,2
 56 103 56 103 72.5 119.5 c 128,-1,3
 89 136 89 136 114.5 136 c 128,-1,4
 140 136 140 136 157 119.5 c 128,-1,5
 174 103 174 103 174 79.5 c 128,-1,6
 174 56 174 56 157 39.5 c 128,-1,7
 140 23 140 23 114.5 23 c 128,-1,0
 89 23 89 23 72.5 39.5 c 128,-1,1
72.5 345.5 m 128,-1,9
 56 362 56 362 56 385.5 c 128,-1,10
 56 409 56 409 72.5 425.5 c 128,-1,11
 89 442 89 442 114.5 442 c 128,-1,12
 140 442 140 442 157 425.5 c 128,-1,13
 174 409 174 409 174 385.5 c 128,-1,14
 174 362 174 362 157 345.5 c 128,-1,15
 140 329 140 329 114.5 329 c 128,-1,8
 89 329 89 329 72.5 345.5 c 128,-1,9
EndSplineSet
Validated: 1
EndChar

StartChar: hyphen
Encoding: 45 45 8
Width: 349
Flags: W
LayerCount: 2
Fore
SplineSet
38 325 m 1,0,-1
 310 325 l 1,1,-1
 310 257 l 1,2,-1
 38 257 l 1,3,-1
 38 325 l 1,0,-1
EndSplineSet
Validated: 1
EndChar

StartChar: endash
Encoding: 259 8211 9
Width: 474
Flags: W
LayerCount: 2
Fore
SplineSet
55 325 m 5,0,-1
 419 325 l 5,1,-1
 419 257 l 5,2,-1
 55 257 l 5,3,-1
 55 325 l 5,0,-1
EndSplineSet
Validated: 1
EndChar

StartChar: emdash
Encoding: 260 8212 10
Width: 726
Flags: W
LayerCount: 2
Fore
SplineSet
55 325 m 1,0,-1
 671 325 l 1,1,-1
 671 257 l 1,2,-1
 55 257 l 1,3,-1
 55 325 l 1,0,-1
EndSplineSet
Validated: 1
EndChar

StartChar: exclam
Encoding: 33 33 11
Width: 278
Flags: W
LayerCount: 2
Fore
SplineSet
99 627 m 1,0,-1
 182 627 l 1,1,-1
 173 176 l 1,2,-1
 109 176 l 1,3,-1
 99 627 l 1,0,-1
98.5 7.5 m 128,-1,5
 82 24 82 24 82 47.5 c 128,-1,6
 82 71 82 71 98.5 87.5 c 128,-1,7
 115 104 115 104 140.5 104 c 128,-1,8
 166 104 166 104 183.5 87.5 c 128,-1,9
 201 71 201 71 201 47.5 c 128,-1,10
 201 24 201 24 183.5 7.5 c 128,-1,11
 166 -9 166 -9 140.5 -9 c 128,-1,4
 115 -9 115 -9 98.5 7.5 c 128,-1,5
EndSplineSet
Validated: 1
EndChar

StartChar: a
Encoding: 97 97 12
Width: 560
Flags: W
LayerCount: 2
Fore
SplineSet
397 310 m 2,0,1
 397 375 397 375 370 403 c 128,-1,2
 343 431 343 431 291.5 431 c 128,-1,3
 240 431 240 431 208.5 410.5 c 128,-1,4
 177 390 177 390 177 346 c 1,5,-1
 90 346 l 1,6,7
 90 456 90 456 208 482 c 0,8,9
 244 490 244 490 286 490 c 0,10,11
 375 490 375 490 425 445 c 128,-1,12
 475 400 475 400 475 308 c 2,13,-1
 475 0 l 1,14,-1
 407 0 l 1,15,-1
 399 80 l 1,16,17
 355 -11 355 -11 240 -11 c 0,18,19
 162 -11 162 -11 116 32 c 128,-1,20
 70 75 70 75 70 139 c 128,-1,21
 70 203 70 203 122 239 c 0,22,23
 173 275 173 275 250 275 c 128,-1,24
 327 275 327 275 397 249 c 1,25,-1
 397 310 l 2,0,1
397 199 m 1,26,27
 326 219 326 219 273 219 c 128,-1,28
 220 219 220 219 187 200 c 128,-1,29
 154 181 154 181 154 140 c 0,30,31
 154 50 154 50 256 50 c 0,32,33
 314 50 314 50 355.5 91.5 c 128,-1,34
 397 133 397 133 397 199 c 1,26,27
EndSplineSet
Validated: 1
EndChar

StartChar: b
Encoding: 98 98 13
Width: 584
Flags: W
LayerCount: 2
Fore
SplineSet
180 407 m 1,0,1
 227.725 490 227.725 490 319.777 490 c 128,-1,2
 411.828 490 411.828 490 472.914 421.412 c 128,-1,3
 534 352.825 534 352.825 534 240.429 c 128,-1,4
 534 128.034 534 128.034 471.856 58.5169 c 128,-1,5
 409.712 -11 409.712 -11 321 -11 c 0,6,7
 273 -11 273 -11 234.5 13 c 128,-1,8
 196 37 196 37 174 84 c 1,9,-1
 156 0 l 1,10,-1
 101 0 l 1,11,-1
 101 681 l 1,12,-1
 180 681 l 1,13,-1
 180 407 l 1,0,1
219.735 383.27 m 128,-1,15
 181.956 346.54 181.956 346.54 180 282 c 1,16,-1
 180 204 l 2,17,18
 180 138 180 138 219.5 98.5 c 128,-1,19
 259 59 259 59 315.128 59 c 128,-1,20
 371.255 59 371.255 59 412.128 108.256 c 128,-1,21
 453 157.513 453 157.513 453 240 c 128,-1,22
 453 322.487 453 322.487 412.543 371.244 c 128,-1,23
 372.085 420 372.085 420 314.8 420 c 128,-1,14
 257.514 420 257.514 420 219.735 383.27 c 128,-1,15
EndSplineSet
Validated: 1
EndChar

StartChar: c
Encoding: 99 99 14
Width: 515
Flags: W
LayerCount: 2
Fore
SplineSet
395.128 446.513 m 128,-1,1
 444.827 403.026 444.827 403.026 460 338 c 1,2,-1
 380 331 l 1,3,4
 367 373 367 373 338 396.5 c 128,-1,5
 309 420 309 420 274.5 420 c 0,6,7
 209.911 420 209.911 420 170.456 372.014 c 128,-1,8
 131 324.027 131 324.027 131 241.722 c 128,-1,9
 131 159.417 131 159.417 169.457 109.208 c 128,-1,10
 207.915 59 207.915 59 265.457 59 c 128,-1,11
 323 59 323 59 351.5 85.5 c 128,-1,12
 380 112 380 112 380 161 c 1,13,-1
 461 161 l 1,14,15
 461 83.8235 461 83.8235 407.267 36.4118 c 128,-1,16
 353.533 -11 353.533 -11 268 -11 c 0,17,18
 177.308 -11 177.308 -11 113.654 57.9583 c 128,-1,19
 50 126.917 50 126.917 50 241.292 c 128,-1,20
 50 355.667 50 355.667 112.969 422.833 c 128,-1,21
 175.938 490 175.938 490 260.683 490 c 128,-1,0
 345.429 490 345.429 490 395.128 446.513 c 128,-1,1
EndSplineSet
Validated: 1
EndChar

StartChar: d
Encoding: 100 100 15
Width: 594
Flags: W
LayerCount: 2
Fore
SplineSet
414 407 m 1,0,-1
 414 681 l 1,1,-1
 492 681 l 1,2,-1
 492 0 l 1,3,-1
 428 0 l 1,4,-1
 418 80 l 1,5,6
 395 35 395 35 357 12 c 128,-1,7
 319 -11 319 -11 274 -11 c 0,8,9
 182.758 -11 182.758 -11 121.379 58.8448 c 128,-1,10
 60 128.69 60 128.69 60 241.319 c 128,-1,11
 60 353.947 60 353.947 120.586 421.974 c 128,-1,12
 181.172 490 181.172 490 273.723 490 c 128,-1,13
 366.275 490 366.275 490 414 407 c 1,0,-1
180.702 370.895 m 128,-1,15
 141 321.789 141 321.789 141 240 c 128,-1,16
 141 158.211 141 158.211 181.106 108.605 c 128,-1,17
 221.213 59 221.213 59 277.092 59 c 128,-1,18
 332.971 59 332.971 59 372.529 96.4191 c 128,-1,19
 412.086 133.838 412.086 133.838 414 197 c 1,20,-1
 414 275 l 2,21,22
 414 342 414 342 375 381 c 128,-1,23
 336 420 336 420 278.202 420 c 128,-1,14
 220.404 420 220.404 420 180.702 370.895 c 128,-1,15
EndSplineSet
Validated: 1
EndChar

StartChar: e
Encoding: 101 101 16
Width: 515
Flags: W
LayerCount: 2
Fore
SplineSet
266 53 m 0,0,1
 365.159 53 365.159 53 379 140 c 1,2,-1
 460 140 l 1,3,4
 449 68 449 68 396.5 28.5 c 128,-1,5
 344 -11 344 -11 266 -11 c 0,6,7
 169.815 -11 169.815 -11 109.908 57.3158 c 128,-1,8
 50 125.632 50 125.632 50 239.885 c 128,-1,9
 50 354.138 50 354.138 110.615 422.069 c 128,-1,10
 171.231 490 171.231 490 271.642 490 c 128,-1,11
 372.054 490 372.054 490 421.453 412.223 c 128,-1,12
 470.851 334.447 470.851 334.447 456 222 c 5,13,-1
 129 222 l 1,14,15
 129 147.824 129 147.824 164.822 100.412 c 128,-1,16
 200.644 53 200.644 53 266 53 c 0,0,1
323.5 415 m 0,17,18
 301 427 301 427 268.5 427 c 0,19,20
 206.55 427 206.55 427 171.388 385.633 c 128,-1,21
 136.227 344.267 136.227 344.267 130 282 c 1,22,-1
 385 282 l 1,23,24
 385 382.2 385 382.2 323.5 415 c 0,17,18
EndSplineSet
Validated: 33
EndChar

StartChar: f
Encoding: 102 102 17
Width: 343
Flags: W
LayerCount: 2
Fore
SplineSet
333 614 m 5,0,1
 300.5 627 300.5 627 281.25 627 c 4,2,3
 246.235 627 246.235 627 226.118 609.9 c 132,-1,4
 206 592.8 206 592.8 206 550 c 6,5,-1
 206 478 l 5,6,-1
 305 478 l 5,7,-1
 305 424 l 5,8,-1
 206 424 l 5,9,-1
 206 0 l 5,10,-1
 128 0 l 5,11,-1
 128 424 l 5,12,-1
 49 424 l 5,13,-1
 49 478 l 5,14,-1
 128 478 l 5,15,-1
 128 551 l 6,16,17
 128 622 128 622 167 655.5 c 132,-1,18
 206 689 206 689 257 689 c 132,-1,19
 308 689 308 689 347 676 c 5,20,-1
 333 614 l 5,0,1
EndSplineSet
Validated: 1
EndChar

StartChar: g
Encoding: 103 103 18
Width: 565
Flags: W
LayerCount: 2
Fore
SplineSet
121 15 m 1,0,1
 61 43.9655 61 43.9655 61 104.5 c 0,2,3
 61 135 61 135 84.5 158.5 c 128,-1,4
 108 182 108 182 143 190 c 1,5,6
 89 237.769 89 237.769 89 316 c 128,-1,7
 89 394.038 89 394.038 144.444 442.019 c 128,-1,8
 199.889 490 199.889 490 275.974 490 c 128,-1,9
 352.059 490 352.059 490 405 454 c 1,10,11
 412 507 412 507 447.5 539 c 128,-1,12
 483 571 483 571 541 571 c 1,13,-1
 534 493 l 1,14,15
 445.895 493 445.895 493 442 419 c 1,16,17
 477 375.765 477 375.765 477 316 c 0,18,19
 477 238.604 477 238.604 421.404 189.302 c 128,-1,20
 365.809 140 365.809 140 283 140 c 0,21,22
 226 140 226 140 182 163 c 1,23,24
 162 159 162 159 146 144.5 c 128,-1,25
 130 130 130 130 130 105 c 0,26,27
 130 52 130 52 218 52 c 2,28,-1
 404 52 l 2,29,30
 471 52 471 52 510 23.5 c 128,-1,31
 549 -5 549 -5 549 -56 c 0,32,33
 549 -131.5 549 -131.5 472.667 -188.75 c 128,-1,34
 396.333 -246 396.333 -246 279.106 -246 c 128,-1,35
 161.878 -246 161.878 -246 94.939 -202.437 c 128,-1,36
 28 -158.873 28 -158.873 28 -93 c 0,37,38
 28 -50 28 -50 53.5 -23 c 128,-1,39
 79 4 79 4 121 15 c 1,0,1
106 -90 m 128,-1,41
 106 -128 106 -128 147.5 -155.5 c 128,-1,42
 189 -183 189 -183 273.412 -183 c 128,-1,43
 357.824 -183 357.824 -183 414.412 -146.698 c 128,-1,44
 471 -110.396 471 -110.396 471 -61 c 0,45,46
 471 -38 471 -38 454.5 -21.5 c 128,-1,47
 438 -5 438 -5 404 -5 c 2,48,-1
 211 -5 l 1,49,50
 160 -7 160 -7 133 -29.5 c 128,-1,40
 106 -52 106 -52 106 -90 c 128,-1,41
369 400.5 m 128,-1,52
 338 433 338 433 283.5 433 c 128,-1,53
 229 433 229 433 198 400.5 c 128,-1,54
 167 368 167 368 167 316 c 128,-1,55
 167 264 167 264 198.5 230.5 c 128,-1,56
 230 197 230 197 284 197 c 128,-1,57
 338 197 338 197 369 231 c 128,-1,58
 400 265 400 265 400 316.5 c 128,-1,51
 400 368 400 368 369 400.5 c 128,-1,52
EndSplineSet
Validated: 1
EndChar

StartChar: h
Encoding: 104 104 19
Width: 604
Flags: W
LayerCount: 2
Fore
SplineSet
180 390 m 1,0,1
 227.917 490 227.917 490 339 490 c 0,2,3
 424 490 424 490 471.5 434 c 128,-1,4
 519 378 519 378 519 281 c 2,5,-1
 519 0 l 1,6,-1
 441 0 l 1,7,-1
 441 281 l 2,8,9
 441 350 441 350 408.5 385 c 128,-1,10
 376 420 376 420 315 420 c 128,-1,11
 254 420 254 420 217 368.5 c 128,-1,12
 180 317 180 317 180 226 c 2,13,-1
 180 0 l 1,14,-1
 101 0 l 1,15,-1
 101 681 l 1,16,-1
 180 681 l 1,17,-1
 180 390 l 1,0,1
EndSplineSet
Validated: 1
EndChar

StartChar: i
Encoding: 105 105 20
Width: 299
Flags: W
LayerCount: 2
Fore
SplineSet
106 479 m 1,0,-1
 185 479 l 1,1,-1
 185 0 l 1,2,-1
 106 0 l 1,3,-1
 106 479 l 1,0,-1
107.5 604.5 m 128,-1,5
 94 618 94 618 94 640.5 c 128,-1,6
 94 663 94 663 107.5 676.5 c 128,-1,7
 121 690 121 690 145 690 c 128,-1,8
 169 690 169 690 183.5 676.5 c 128,-1,9
 198 663 198 663 198 640.5 c 128,-1,10
 198 618 198 618 183.5 604.5 c 128,-1,11
 169 591 169 591 145 591 c 128,-1,4
 121 591 121 591 107.5 604.5 c 128,-1,5
EndSplineSet
Validated: 1
EndChar

StartChar: j
Encoding: 106 106 21
Width: 314
Flags: W
LayerCount: 2
Fore
SplineSet
122.5 604.5 m 132,-1,1
 109 618 109 618 109 640.5 c 132,-1,2
 109 663 109 663 122.5 676.5 c 132,-1,3
 136 690 136 690 160 690 c 132,-1,4
 184 690 184 690 198.5 676.5 c 132,-1,5
 213 663 213 663 213 640.5 c 132,-1,6
 213 618 213 618 198.5 604.5 c 132,-1,7
 184 591 184 591 160 591 c 132,-1,0
 136 591 136 591 122.5 604.5 c 132,-1,1
33 -177 m 0,8,9
 121 -177 121 -177 121 -67 c 2,10,-1
 121 480 l 1,11,-1
 200 480 l 1,12,-1
 200 -67 l 2,13,14
 200 -203.857 200 -203.857 110 -236 c 0,15,16
 82 -246 82 -246 48 -246 c 0,17,18
 -14.0556 -246 -14.0556 -246 -86 -209 c 1,19,-1
 -82 -140 l 1,20,21
 -18.8824 -177 -18.8824 -177 33 -177 c 0,8,9
EndSplineSet
Validated: 1
EndChar

StartChar: k
Encoding: 107 107 22
Width: 564
Flags: W
LayerCount: 2
Fore
SplineSet
244 253 m 5,0,-1
 180 201 l 5,1,-1
 180 0 l 5,2,-1
 101 0 l 5,3,-1
 101 681 l 5,4,-1
 180 681 l 5,5,-1
 180 285 l 5,6,-1
 411 478 l 5,7,-1
 521 478 l 5,8,-1
 301 299 l 5,9,-1
 532 0 l 5,10,-1
 435 0 l 5,11,-1
 244 253 l 5,0,-1
EndSplineSet
Validated: 1
EndChar

StartChar: l
Encoding: 108 108 23
Width: 280
Flags: W
LayerCount: 2
Fore
SplineSet
101 681 m 5,0,-1
 180 681 l 5,1,-1
 180 0 l 5,2,-1
 101 0 l 5,3,-1
 101 681 l 5,0,-1
EndSplineSet
Validated: 1
EndChar

StartChar: m
Encoding: 109 109 24
Width: 935
Flags: W
LayerCount: 2
Fore
SplineSet
177 386 m 1,0,1
 223.902 490 223.902 490 338 490 c 0,2,3
 400 490 400 490 442 459.5 c 128,-1,4
 484 429 484 429 503 375 c 1,5,6
 548 490 548 490 670 490 c 0,7,8
 756 490 756 490 803 434 c 128,-1,9
 850 378 850 378 850 281 c 2,10,-1
 850 0 l 1,11,-1
 772 0 l 1,12,-1
 772 281 l 2,13,14
 772 350 772 350 739.5 385 c 128,-1,15
 707 420 707 420 646 420 c 128,-1,16
 585 420 585 420 551.5 370 c 128,-1,17
 518 320 518 320 518 232 c 2,18,-1
 518 0 l 1,19,-1
 440 0 l 1,20,-1
 440 281 l 2,21,22
 440 350 440 350 407.5 385 c 128,-1,23
 375 420 375 420 315 420 c 128,-1,24
 255 420 255 420 218 371 c 128,-1,25
 181 322 181 322 179 235 c 1,26,-1
 179 0 l 1,27,-1
 100 0 l 1,28,-1
 100 478 l 1,29,-1
 168 478 l 1,30,-1
 177 386 l 1,0,1
EndSplineSet
Validated: 1
EndChar

StartChar: n
Encoding: 110 110 25
Width: 603
Flags: W
LayerCount: 2
Fore
SplineSet
177 386 m 1,0,1
 223.902 490 223.902 490 338 490 c 0,2,3
 423 490 423 490 470.5 434 c 128,-1,4
 518 378 518 378 518 281 c 2,5,-1
 518 0 l 1,6,-1
 440 0 l 1,7,-1
 440 281 l 2,8,9
 440 350 440 350 407.5 385 c 128,-1,10
 375 420 375 420 315 420 c 128,-1,11
 255 420 255 420 218 371 c 128,-1,12
 181 322 181 322 179 235 c 1,13,-1
 179 0 l 1,14,-1
 100 0 l 1,15,-1
 100 478 l 1,16,-1
 168 478 l 1,17,-1
 177 386 l 1,0,1
EndSplineSet
Validated: 1
EndChar

StartChar: o
Encoding: 111 111 26
Width: 546
Flags: W
LayerCount: 2
Fore
SplineSet
273 490 m 128,-1,1
 372.524 490 372.524 490 434.262 425.175 c 128,-1,2
 496 360.35 496 360.35 496 239 c 0,3,4
 496 118.65 496 118.65 434.262 53.825 c 128,-1,5
 372.524 -11 372.524 -11 273 -11 c 128,-1,6
 173.476 -11 173.476 -11 111.738 53.825 c 128,-1,7
 50 118.65 50 118.65 50 239 c 0,8,9
 50 360.35 50 360.35 111.738 425.175 c 128,-1,0
 173.476 490 173.476 490 273 490 c 128,-1,1
380 373.5 m 128,-1,11
 344 422 344 422 274.5 422 c 128,-1,12
 205 422 205 422 168 373.5 c 128,-1,13
 131 325 131 325 131 239.5 c 128,-1,14
 131 154 131 154 166 105.5 c 128,-1,15
 201 57 201 57 270.5 57 c 128,-1,16
 340 57 340 57 378 105.5 c 128,-1,17
 416 154 416 154 416 239.5 c 128,-1,10
 416 325 416 325 380 373.5 c 128,-1,11
EndSplineSet
Validated: 1
EndChar

StartChar: p
Encoding: 112 112 27
Width: 594
Flags: W
LayerCount: 2
Fore
SplineSet
175 405 m 1,0,1
 221.548 490 221.548 490 315.343 490 c 128,-1,2
 409.138 490 409.138 490 471.569 421.22 c 128,-1,3
 534 352.441 534 352.441 534 239.179 c 128,-1,4
 534 125.917 534 125.917 470.808 57.4583 c 128,-1,5
 407.615 -11 407.615 -11 315.808 -11 c 128,-1,6
 224 -11 224 -11 180 58 c 1,7,-1
 180 -235 l 1,8,-1
 101 -235 l 1,9,-1
 101 478 l 1,10,-1
 166 478 l 1,11,-1
 175 405 l 1,0,1
410.25 106.963 m 128,-1,13
 453 154.927 453 154.927 453 238.707 c 128,-1,14
 453 322.487 453 322.487 412.543 371.244 c 128,-1,15
 372.085 420 372.085 420 314.285 420 c 128,-1,16
 256.486 420 256.486 420 219.19 383.74 c 128,-1,17
 181.893 347.48 181.893 347.48 180 285 c 1,18,-1
 180 194 l 2,19,20
 180 130.833 180 130.833 218.029 94.9167 c 128,-1,21
 256.059 59 256.059 59 311.779 59 c 128,-1,12
 367.5 59 367.5 59 410.25 106.963 c 128,-1,13
EndSplineSet
Validated: 1
EndChar

StartChar: q
Encoding: 113 113 28
Width: 584
Flags: W
LayerCount: 2
Fore
SplineSet
405 76 m 1,0,1
 363.571 -11 363.571 -11 270.478 -11 c 128,-1,2
 177.385 -11 177.385 -11 114.192 57.4583 c 128,-1,3
 51 125.917 51 125.917 51 239.179 c 128,-1,4
 51 352.441 51 352.441 113.431 421.22 c 128,-1,5
 175.862 490 175.862 490 264 490 c 0,6,7
 366 490 366 490 412 400 c 1,8,-1
 429 478 l 1,9,-1
 483 478 l 1,10,-1
 483 -235 l 1,11,-1
 405 -235 l 1,12,-1
 405 76 l 1,0,1
172.457 371.244 m 128,-1,14
 132 322.487 132 322.487 132 238.707 c 128,-1,15
 132 154.927 132 154.927 174.75 106.963 c 128,-1,16
 217.5 59 217.5 59 275 59 c 0,17,18
 357.021 59 357.021 59 392.5 131.5 c 0,19,20
 404 155 404 155 405 187 c 1,21,-1
 405 278 l 2,22,23
 405 344 405 344 367 382 c 128,-1,24
 329 420 329 420 270.957 420 c 128,-1,13
 212.915 420 212.915 420 172.457 371.244 c 128,-1,14
EndSplineSet
Validated: 1
EndChar

StartChar: r
Encoding: 114 114 29
Width: 381
Flags: W
LayerCount: 2
Fore
SplineSet
296 411 m 0,0,1
 183.341 411 183.341 411 179 233 c 1,2,-1
 179 0 l 1,3,-1
 100 0 l 1,4,-1
 100 479 l 1,5,-1
 179 479 l 1,6,-1
 179 387 l 1,7,8
 215 487 215 487 306 487 c 0,9,10
 335 487 335 487 361 478 c 1,11,-1
 357 401 l 1,12,13
 327 411 327 411 296 411 c 0,0,1
EndSplineSet
Validated: 1
EndChar

StartChar: s
Encoding: 115 115 30
Width: 526
Flags: W
LayerCount: 2
Fore
SplineSet
126.5 455 m 128,-1,1
 177 490 177 490 263 490 c 128,-1,2
 349 490 349 490 397.5 454 c 128,-1,3
 446 418 446 418 448 363 c 1,4,-1
 371 363 l 1,5,6
 362 428 362 428 261 428 c 0,7,8
 212 428 212 428 185.5 406 c 128,-1,9
 159 384 159 384 159 358.5 c 128,-1,10
 159 333 159 333 179 315.5 c 128,-1,11
 199 298 199 298 243 285 c 1,12,-1
 339 253 l 1,13,14
 400 234 400 234 432.5 204.5 c 128,-1,15
 465 175 465 175 465 123.53 c 128,-1,16
 465 72.06 465 72.06 411.756 30.53 c 128,-1,17
 358.513 -11 358.513 -11 263.756 -11 c 128,-1,18
 169 -11 169 -11 116 31.5 c 128,-1,19
 63 74 63 74 60 141 c 1,20,-1
 136 141 l 1,21,22
 138 96 138 96 172.5 73.5 c 128,-1,23
 207 51 207 51 259.2 51 c 128,-1,24
 311.4 51 311.4 51 345.2 72.8064 c 128,-1,25
 379 94.6129 379 94.6129 379 125.306 c 128,-1,26
 379 156 379 156 359 172 c 128,-1,27
 339 188 339 188 294 200 c 1,28,-1
 201 231 l 1,29,30
 76 268 76 268 76 361 c 0,31,0
 76 420 76 420 126.5 455 c 128,-1,1
EndSplineSet
Validated: 1
EndChar

StartChar: t
Encoding: 116 116 31
Width: 376
Flags: W
LayerCount: 2
Fore
SplineSet
351 14 m 1,0,1
 264.965 -25.7087 264.965 -25.7087 194 -3 c 0,2,3
 142.752 13.3993 142.752 13.3993 121.5 64 c 0,4,5
 111 89 111 89 111 124 c 2,6,-1
 111 418 l 1,7,-1
 34 418 l 1,8,-1
 34 478 l 1,9,-1
 111 478 l 1,10,-1
 111 611 l 1,11,-1
 189 611 l 1,12,-1
 189 478 l 1,13,-1
 339 478 l 1,14,-1
 339 418 l 1,15,-1
 189 418 l 1,16,-1
 189 125 l 2,17,18
 189 52 189 52 257 52 c 0,19,20
 294 52 294 52 340 70 c 1,21,-1
 351 14 l 1,0,1
EndSplineSet
Validated: 33
EndChar

StartChar: u
Encoding: 117 117 32
Width: 606
Flags: W
LayerCount: 2
Fore
SplineSet
426 95 m 5,0,1
 377.059 -9 377.059 -9 267 -9 c 4,2,3
 186 -9 186 -9 136.5 36 c 132,-1,4
 87 81 87 81 87 175 c 6,5,-1
 87 479 l 5,6,-1
 166 479 l 5,7,-1
 166 181 l 6,8,9
 166 60 166 60 278 60 c 4,10,11
 342.875 60 342.875 60 383.5 110 c 132,-1,12
 423.996 159.841 423.996 159.841 426 238 c 5,13,-1
 426 479 l 5,14,-1
 505 479 l 5,15,-1
 505 0 l 5,16,-1
 426 0 l 5,17,-1
 426 95 l 5,0,1
EndSplineSet
Validated: 1
EndChar

StartChar: v
Encoding: 118 118 33
Width: 503
Flags: W
LayerCount: 2
Fore
SplineSet
107 478 m 1,0,-1
 251 83 l 1,1,-1
 396 478 l 1,2,-1
 485 478 l 1,3,-1
 295 0 l 1,4,-1
 208 0 l 1,5,-1
 18 478 l 1,6,-1
 107 478 l 1,0,-1
EndSplineSet
Validated: 1
EndChar

StartChar: w
Encoding: 119 119 34
Width: 725
Flags: W
LayerCount: 2
Fore
SplineSet
100 478 m 1,0,-1
 216 97 l 1,1,-1
 330 455 l 1,2,-1
 396 455 l 1,3,-1
 509 93 l 1,4,-1
 626 478 l 1,5,-1
 704 478 l 1,6,-1
 548 0 l 1,7,-1
 471 0 l 1,8,-1
 361 335 l 1,9,-1
 253 0 l 1,10,-1
 177 0 l 1,11,-1
 18 478 l 1,12,-1
 100 478 l 1,0,-1
EndSplineSet
Validated: 1
EndChar

StartChar: x
Encoding: 120 120 35
Width: 512
Flags: W
LayerCount: 2
Fore
SplineSet
485 0 m 1,0,-1
 389 0 l 1,1,-1
 252 181 l 1,2,-1
 122 0 l 1,3,-1
 26 0 l 1,4,-1
 207 239 l 1,5,-1
 26 479 l 1,6,-1
 122 479 l 1,7,-1
 259 299 l 1,8,-1
 390 479 l 1,9,-1
 486 479 l 1,10,-1
 303 239 l 1,11,-1
 485 0 l 1,0,-1
EndSplineSet
Validated: 1
EndChar

StartChar: y
Encoding: 121 121 36
Width: 484
Flags: W
LayerCount: 2
Fore
SplineSet
5 -139 m 1,0,1
 54.4 -177 54.4 -177 108 -177 c 0,2,3
 148.111 -177 148.111 -177 177 -137 c 0,4,5
 197.688 -108.355 197.688 -108.355 215 -49 c 2,6,-1
 229 0 l 1,7,-1
 33 478 l 1,8,-1
 121 478 l 1,9,-1
 266 97 l 1,10,-1
 379 478 l 1,11,-1
 459 478 l 1,12,-1
 280 -95 l 2,13,14
 257 -168 257 -168 219.5 -207 c 128,-1,15
 182 -246 182 -246 124.382 -246 c 128,-1,16
 66.7647 -246 66.7647 -246 5 -211 c 1,17,-1
 5 -139 l 1,0,1
EndSplineSet
Validated: 1
EndChar

StartChar: z
Encoding: 122 122 37
Width: 475
Flags: W
LayerCount: 2
Fore
SplineSet
53 64 m 1,0,-1
 334 414 l 1,1,-1
 53 414 l 1,2,-1
 53 478 l 1,3,-1
 423 478 l 1,4,-1
 423 414 l 1,5,-1
 146 64 l 1,6,-1
 423 64 l 1,7,-1
 423 0 l 1,8,-1
 53 0 l 1,9,-1
 53 64 l 1,0,-1
EndSplineSet
Validated: 1
EndChar

StartChar: A
Encoding: 65 65 38
Width: 575
Flags: W
LayerCount: 2
Fore
SplineSet
242 629 m 1,0,-1
 338 629 l 1,1,-1
 549 0 l 1,2,-1
 467 0 l 1,3,-1
 413 160 l 1,4,-1
 163 160 l 1,5,-1
 109 0 l 1,6,-1
 26 0 l 1,7,-1
 242 629 l 1,0,-1
184 222 m 1,8,-1
 393 222 l 1,9,-1
 289 532 l 1,10,-1
 184 222 l 1,8,-1
EndSplineSet
Validated: 1
EndChar

StartChar: B
Encoding: 66 66 39
Width: 622
Flags: W
LayerCount: 2
Fore
SplineSet
101 629 m 1,0,-1
 336 629 l 2,1,2
 435.4 629 435.4 629 488.7 581.971 c 128,-1,3
 542 534.941 542 534.941 542 464 c 0,4,5
 542 410 542 410 512.5 370 c 128,-1,6
 483 330 483 330 423 316 c 1,7,8
 481.815 305.86 481.815 305.86 517.407 265.033 c 128,-1,9
 553 224.206 553 224.206 553 172 c 0,10,11
 553 56.0241 553 56.0241 439.5 15 c 0,12,13
 398 0 398 0 337 0 c 2,14,-1
 101 0 l 1,15,-1
 101 629 l 1,0,-1
335 69 m 2,16,17
 407 69 407 69 438 98 c 128,-1,18
 469 127 469 127 469 175 c 128,-1,19
 469 223 469 223 435 251.5 c 128,-1,20
 401 280 401 280 335 280 c 2,21,-1
 180 280 l 1,22,-1
 180 69 l 1,23,-1
 335 69 l 2,16,17
180 348 m 1,24,-1
 334 348 l 2,25,26
 392 348 392 348 426.5 376.5 c 128,-1,27
 461 405 461 405 461 455 c 128,-1,28
 461 505 461 505 427.5 533 c 128,-1,29
 394 561 394 561 334 561 c 2,30,-1
 180 561 l 1,31,-1
 180 348 l 1,24,-1
EndSplineSet
Validated: 1
EndChar

StartChar: C
Encoding: 67 67 40
Width: 613
Flags: W
LayerCount: 2
Fore
SplineSet
319 640 m 0,0,1
 420 640 420 640 481.5 589.5 c 128,-1,2
 543 539 543 539 566 458 c 1,3,-1
 481 441 l 1,4,5
 461 500 461 500 418.5 534.5 c 128,-1,6
 376 569 376 569 319 569 c 0,7,8
 240.397 569 240.397 569 188.198 503.23 c 128,-1,9
 136 437.46 136 437.46 136 319.863 c 128,-1,10
 136 202.267 136 202.267 182.391 131.133 c 128,-1,11
 228.783 60 228.783 60 319 60 c 0,12,13
 394 60 394 60 437.5 99.5 c 128,-1,14
 481 139 481 139 481 204 c 1,15,-1
 566 204 l 1,16,17
 566 105.015 566 105.015 498.67 47.0077 c 128,-1,18
 431.339 -11 431.339 -11 313.425 -11 c 128,-1,19
 195.512 -11 195.512 -11 123.256 79.058 c 128,-1,20
 51 169.116 51 169.116 51 319.995 c 128,-1,21
 51 470.875 51 470.875 126.167 555.438 c 128,-1,22
 201.333 640 201.333 640 319 640 c 0,0,1
EndSplineSet
Validated: 1
EndChar

StartChar: D
Encoding: 68 68 41
Width: 661
Flags: W
LayerCount: 2
Fore
SplineSet
285 629 m 2,0,1
 427 629 427 629 512.5 543.5 c 128,-1,2
 598 458 598 458 598 314.5 c 128,-1,3
 598 171 598 171 512.5 85.5 c 128,-1,4
 427 0 427 0 285 0 c 2,5,-1
 100 0 l 1,6,-1
 100 629 l 1,7,-1
 285 629 l 2,0,1
179 69 m 1,8,-1
 285 69 l 2,9,10
 389.924 69 389.924 69 451.962 138.398 c 128,-1,11
 514 207.797 514 207.797 514 315 c 0,12,13
 514 421.746 514 421.746 451.708 490.373 c 128,-1,14
 389.415 559 389.415 559 285 559 c 2,15,-1
 179 559 l 1,16,-1
 179 69 l 1,8,-1
EndSplineSet
Validated: 1
EndChar

StartChar: E
Encoding: 69 69 42
Width: 562
Flags: W
LayerCount: 2
Fore
SplineSet
100 629 m 1,0,-1
 487 629 l 1,1,-1
 487 561 l 1,2,-1
 179 561 l 1,3,-1
 179 350 l 1,4,-1
 469 350 l 1,5,-1
 469 283 l 1,6,-1
 179 283 l 1,7,-1
 179 69 l 1,8,-1
 487 69 l 1,9,-1
 487 0 l 1,10,-1
 100 0 l 1,11,-1
 100 629 l 1,0,-1
EndSplineSet
Validated: 1
EndChar

StartChar: F
Encoding: 70 70 43
Width: 524
Flags: W
LayerCount: 2
Fore
SplineSet
101 629 m 1,0,-1
 483 629 l 1,1,-1
 483 561 l 1,2,-1
 180 561 l 1,3,-1
 180 352 l 1,4,-1
 462 352 l 1,5,-1
 462 284 l 1,6,-1
 180 284 l 1,7,-1
 180 0 l 1,8,-1
 101 0 l 1,9,-1
 101 629 l 1,0,-1
EndSplineSet
Validated: 1
EndChar

StartChar: G
Encoding: 71 71 44
Width: 645
Flags: W
LayerCount: 2
Fore
SplineSet
490 108 m 1,0,1
 448.246 -11 448.246 -11 326.972 -11 c 128,-1,2
 205.699 -11 205.699 -11 128.349 76.9452 c 128,-1,3
 51 164.89 51 164.89 51 314.075 c 128,-1,4
 51 463.259 51 463.259 135.732 551.13 c 128,-1,5
 220.464 639 220.464 639 346 639 c 0,6,7
 420 639 420 639 475.5 609 c 128,-1,8
 531 579 531 579 571 513 c 1,9,-1
 495 487 l 1,10,11
 430 568 430 568 342.813 568 c 128,-1,12
 255.627 568 255.627 568 195.313 497.105 c 128,-1,13
 135 426.211 135 426.211 135 312.425 c 128,-1,14
 135 198.64 135 198.64 187.136 129.82 c 128,-1,15
 239.259 61 239.259 61 326.972 61 c 0,16,17
 398.943 61 398.943 61 442.979 109.116 c 128,-1,18
 487 157.233 487 157.233 487 251 c 2,19,-1
 487 253 l 1,20,-1
 329 259 l 1,21,-1
 329 311 l 1,22,-1
 564 311 l 1,23,-1
 564 0 l 1,24,-1
 500 0 l 1,25,-1
 490 108 l 1,0,1
EndSplineSet
Validated: 1
EndChar

StartChar: H
Encoding: 72 72 45
Width: 669
Flags: W
LayerCount: 2
Fore
SplineSet
180 629 m 1,0,-1
 180 352 l 1,1,-1
 489 352 l 1,2,-1
 489 629 l 1,3,-1
 568 629 l 1,4,-1
 568 0 l 1,5,-1
 489 0 l 1,6,-1
 489 284 l 1,7,-1
 180 284 l 1,8,-1
 180 0 l 1,9,-1
 101 0 l 1,10,-1
 101 629 l 1,11,-1
 180 629 l 1,0,-1
EndSplineSet
Validated: 1
EndChar

StartChar: I
Encoding: 73 73 46
Width: 280
Flags: W
LayerCount: 2
Fore
SplineSet
101 629 m 1,0,-1
 180 629 l 1,1,-1
 180 0 l 1,2,-1
 101 0 l 1,3,-1
 101 629 l 1,0,-1
EndSplineSet
Validated: 1
EndChar

StartChar: J
Encoding: 74 74 47
Width: 404
Flags: W
LayerCount: 2
Fore
SplineSet
277.5 34 m 128,-1,1
 231 -11 231 -11 159.167 -11 c 128,-1,2
 87.3333 -11 87.3333 -11 8 31 c 1,3,-1
 8 113 l 1,4,5
 78 65 78 65 139.5 65 c 128,-1,6
 201 65 201 65 223 95 c 128,-1,7
 245 125 245 125 245 182 c 2,8,-1
 245 629 l 1,9,-1
 324 629 l 1,10,-1
 324 182 l 2,11,0
 324 79 324 79 277.5 34 c 128,-1,1
EndSplineSet
Validated: 1
EndChar

StartChar: K
Encoding: 75 75 48
Width: 609
Flags: W
LayerCount: 2
Fore
SplineSet
181 629 m 1,0,-1
 181 338 l 1,1,-1
 462 629 l 1,2,-1
 571 629 l 1,3,-1
 296 346 l 1,4,-1
 588 0 l 1,5,-1
 486 0 l 1,6,-1
 243 291 l 1,7,-1
 181 227 l 1,8,-1
 181 0 l 1,9,-1
 101 0 l 1,10,-1
 101 629 l 1,11,-1
 181 629 l 1,0,-1
EndSplineSet
Validated: 1
EndChar

StartChar: L
Encoding: 76 76 49
Width: 468
Flags: W
LayerCount: 2
Fore
SplineSet
180 69 m 1,0,-1
 460 69 l 1,1,-1
 460 0 l 1,2,-1
 101 0 l 1,3,-1
 101 629 l 1,4,-1
 180 629 l 1,5,-1
 180 69 l 1,0,-1
EndSplineSet
Validated: 1
EndChar

StartChar: M
Encoding: 77 77 50
Width: 848
Flags: W
LayerCount: 2
Fore
SplineSet
214 629 m 1,0,-1
 426 203 l 1,1,-1
 636 629 l 1,2,-1
 747 629 l 1,3,-1
 747 0 l 1,4,-1
 668 0 l 1,5,-1
 668 517 l 1,6,-1
 452 79 l 1,7,-1
 399 79 l 1,8,-1
 180 524 l 1,9,-1
 180 0 l 1,10,-1
 101 0 l 1,11,-1
 101 629 l 1,12,-1
 214 629 l 1,0,-1
EndSplineSet
Validated: 1
EndChar

StartChar: N
Encoding: 78 78 51
Width: 685
Flags: W
LayerCount: 2
Fore
SplineSet
193 629 m 1,0,-1
 505 124 l 1,1,-1
 505 629 l 1,2,-1
 584 629 l 1,3,-1
 584 0 l 1,4,-1
 496 0 l 1,5,-1
 179 512 l 1,6,-1
 179 0 l 1,7,-1
 99 0 l 1,8,-1
 99 629 l 1,9,-1
 193 629 l 1,0,-1
EndSplineSet
Validated: 1
EndChar

StartChar: O
Encoding: 79 79 52
Width: 646
Flags: W
LayerCount: 2
Fore
SplineSet
323 640 m 0,0,1
 445.049 640 445.049 640 520.525 556.253 c 128,-1,2
 596 472.507 596 472.507 596 313.219 c 128,-1,3
 596 153.932 596 153.932 520.75 71.4658 c 128,-1,4
 445.5 -11 445.5 -11 323 -11 c 0,5,6
 199.556 -11 199.556 -11 125.278 72.5625 c 128,-1,7
 51 156.125 51 156.125 51 314 c 0,8,9
 51 472.875 51 472.875 125.278 556.438 c 128,-1,10
 199.556 640 199.556 640 323 640 c 0,0,1
323 569 m 128,-1,12
 235 569 235 569 184 503 c 128,-1,13
 133 437 133 437 133 313 c 128,-1,14
 133 189 133 189 184 125 c 128,-1,15
 235 61 235 61 323 61 c 128,-1,16
 411 61 411 61 462.5 125 c 128,-1,17
 514 189 514 189 514 313 c 128,-1,18
 514 437 514 437 462.5 503 c 128,-1,11
 411 569 411 569 323 569 c 128,-1,12
EndSplineSet
Validated: 1
EndChar

StartChar: P
Encoding: 80 80 53
Width: 554
Flags: W
LayerCount: 2
Fore
SplineSet
460.5 576.5 m 128,-1,1
 515 524 515 524 515 435 c 128,-1,2
 515 346 515 346 460.5 294.5 c 128,-1,3
 406 243 406 243 302 243 c 2,4,-1
 178 243 l 1,5,-1
 178 0 l 1,6,-1
 99 0 l 1,7,-1
 99 629 l 1,8,-1
 302 629 l 2,9,0
 406 629 406 629 460.5 576.5 c 128,-1,1
302 311 m 2,10,11
 367 311 367 311 400.5 344 c 128,-1,12
 434 377 434 377 434 434.5 c 128,-1,13
 434 492 434 492 400.5 526.5 c 128,-1,14
 367 561 367 561 302 561 c 2,15,-1
 178 561 l 1,16,-1
 178 311 l 1,17,-1
 302 311 l 2,10,11
EndSplineSet
Validated: 1
EndChar

StartChar: Q
Encoding: 81 81 54
Width: 652
Flags: W
LayerCount: 2
Fore
SplineSet
596 -148 m 1,0,1
 556.273 -167 556.273 -167 511.636 -167 c 0,2,3
 426.682 -167 426.682 -167 366 -78 c 1,4,-1
 319 -11 l 1,5,6
 198.486 -8.92218 198.486 -8.92218 124.743 74.0389 c 128,-1,7
 51 157 51 157 51 314.938 c 128,-1,8
 51 472.875 51 472.875 125.278 556.438 c 128,-1,9
 199.556 640 199.556 640 323 640 c 0,10,11
 445.049 640 445.049 640 520.525 556.253 c 128,-1,12
 596 472.507 596 472.507 596 314 c 0,13,14
 596 182.058 596 182.058 542.894 101.377 c 128,-1,15
 489.788 20.697 489.788 20.697 399 -2 c 1,16,-1
 430 -46 l 1,17,18
 458.545 -84.6203 458.545 -84.6203 499 -87 c 1,19,20
 541.833 -87 541.833 -87 596 -62 c 1,21,-1
 596 -148 l 1,0,1
323 569 m 128,-1,23
 235 569 235 569 184 503 c 128,-1,24
 133 437 133 437 133 313 c 128,-1,25
 133 189 133 189 184 125 c 128,-1,26
 235 61 235 61 323 61 c 128,-1,27
 411 61 411 61 462.5 125 c 128,-1,28
 514 189 514 189 514 313 c 128,-1,29
 514 437 514 437 462.5 503 c 128,-1,22
 411 569 411 569 323 569 c 128,-1,23
EndSplineSet
Validated: 1
EndChar

StartChar: R
Encoding: 82 82 55
Width: 613
Flags: W
LayerCount: 2
Fore
SplineSet
497.5 323 m 128,-1,1
 456 275 456 275 375 261 c 1,2,-1
 555 0 l 1,3,-1
 453 0 l 1,4,-1
 290 257 l 1,5,-1
 180 257 l 1,6,-1
 180 0 l 1,7,-1
 101 0 l 1,8,-1
 101 629 l 1,9,-1
 320 629 l 2,10,11
 426.3 629 426.3 629 482.65 577.773 c 128,-1,12
 539 526.545 539 526.545 539 448.773 c 128,-1,0
 539 371 539 371 497.5 323 c 128,-1,1
314 312 m 2,13,14
 385 312 385 312 421.5 346.5 c 128,-1,15
 458 381 458 381 458 437.5 c 128,-1,16
 458 494 458 494 422.5 527.5 c 128,-1,17
 387 561 387 561 320 561 c 2,18,-1
 180 561 l 1,19,-1
 180 312 l 1,20,-1
 314 312 l 2,13,14
EndSplineSet
Validated: 1
EndChar

StartChar: S
Encoding: 83 83 56
Width: 605
Flags: W
LayerCount: 2
Fore
SplineSet
436 476 m 1,0,1
 419.273 568 419.273 568 301 568 c 0,2,3
 238 568 238 568 204 540.5 c 128,-1,4
 170 513 170 513 170 474.5 c 128,-1,5
 170 436 170 436 191 416 c 128,-1,6
 212 396 212 396 259 381 c 1,7,-1
 390 336 l 2,8,9
 457 313 457 313 496.5 273 c 128,-1,10
 536 233 536 233 536 160.5 c 128,-1,11
 536 88 536 88 474.125 38.5 c 128,-1,12
 412.25 -11 412.25 -11 308.005 -11 c 128,-1,13
 203.76 -11 203.76 -11 137.345 41.7102 c 128,-1,14
 70.9302 94.4205 70.9302 94.4205 69 189 c 1,15,-1
 146 189 l 1,16,17
 146 127.048 146 127.048 189.344 94.0238 c 128,-1,18
 232.688 61 232.688 61 301.344 61 c 128,-1,19
 370 61 370 61 410 91.5 c 128,-1,20
 450 122 450 122 450 163.5 c 128,-1,21
 450 205 450 205 425.5 229 c 128,-1,22
 401 253 401 253 353 269 c 1,23,-1
 242 310 l 1,24,25
 164 336 164 336 124 372 c 128,-1,26
 84 408 84 408 84 477.5 c 128,-1,27
 84 547 84 547 140 593.5 c 128,-1,28
 196 640 196 640 297 640 c 128,-1,29
 398 640 398 640 451.5 595.5 c 128,-1,30
 505 551 505 551 513 476 c 1,31,-1
 436 476 l 1,0,1
EndSplineSet
Validated: 1
EndChar

StartChar: T
Encoding: 84 84 57
Width: 501
Flags: W
LayerCount: 2
Fore
SplineSet
6 629 m 1,0,-1
 495 629 l 1,1,-1
 495 561 l 1,2,-1
 290 561 l 1,3,-1
 290 0 l 1,4,-1
 211 0 l 1,5,-1
 211 561 l 1,6,-1
 6 561 l 1,7,-1
 6 629 l 1,0,-1
EndSplineSet
Validated: 1
EndChar

StartChar: U
Encoding: 85 85 58
Width: 654
Flags: W
LayerCount: 2
Fore
SplineSet
166 629 m 1,0,-1
 166 227 l 2,1,2
 166 139 166 139 210 100 c 128,-1,3
 254 61 254 61 326 61 c 128,-1,4
 398 61 398 61 442 100 c 128,-1,5
 486 139 486 139 486 227 c 2,6,-1
 486 629 l 1,7,-1
 565 629 l 1,8,-1
 565 227 l 2,9,10
 565 109 565 109 500 49 c 128,-1,11
 435 -11 435 -11 325.5 -11 c 128,-1,12
 216 -11 216 -11 151.5 49 c 128,-1,13
 87 109 87 109 87 227 c 2,14,-1
 87 629 l 1,15,-1
 166 629 l 1,0,-1
EndSplineSet
Validated: 1
EndChar

StartChar: V
Encoding: 86 86 59
Width: 563
Flags: W
LayerCount: 2
Fore
SplineSet
101 629 m 1,0,-1
 281 100 l 1,1,-1
 462 629 l 1,2,-1
 545 629 l 1,3,-1
 322 0 l 1,4,-1
 240 0 l 1,5,-1
 18 629 l 1,6,-1
 101 629 l 1,0,-1
EndSplineSet
Validated: 1
EndChar

StartChar: W
Encoding: 87 87 60
Width: 895
Flags: W
LayerCount: 2
Fore
SplineSet
102 629 m 1,0,-1
 255 106 l 1,1,-1
 410 564 l 1,2,-1
 463 564 l 1,3,-1
 617 106 l 1,4,-1
 793 629 l 1,5,-1
 880 629 l 1,6,-1
 658 0 l 1,7,-1
 575 0 l 1,8,-1
 438 403 l 1,9,-1
 296 0 l 1,10,-1
 213 0 l 1,11,-1
 14 629 l 1,12,-1
 102 629 l 1,0,-1
EndSplineSet
Validated: 1
EndChar

StartChar: X
Encoding: 88 88 61
Width: 642
Flags: W
LayerCount: 2
Fore
SplineSet
593 0 m 1,0,-1
 495 0 l 1,1,-1
 313 251 l 1,2,-1
 144 0 l 1,3,-1
 48 0 l 1,4,-1
 270 312 l 1,5,-1
 47 629 l 1,6,-1
 142 629 l 1,7,-1
 322 372 l 1,8,-1
 488 629 l 1,9,-1
 583 629 l 1,10,-1
 366 313 l 1,11,-1
 593 0 l 1,0,-1
EndSplineSet
Validated: 1
EndChar

StartChar: Y
Encoding: 89 89 62
Width: 549
Flags: W
LayerCount: 2
Fore
SplineSet
104 629 m 1,0,-1
 273 340 l 1,1,-1
 446 629 l 1,2,-1
 539 629 l 1,3,-1
 313 258 l 1,4,-1
 313 0 l 1,5,-1
 233 0 l 1,6,-1
 233 258 l 1,7,-1
 10 629 l 1,8,-1
 104 629 l 1,0,-1
EndSplineSet
Validated: 1
EndChar

StartChar: Z
Encoding: 90 90 63
Width: 592
Flags: W
LayerCount: 2
Fore
SplineSet
73 71 m 1,0,-1
 436 554 l 1,1,-1
 73 557 l 1,2,-1
 73 629 l 1,3,-1
 535 629 l 1,4,-1
 535 558 l 1,5,-1
 172 75 l 1,6,-1
 535 72 l 1,7,-1
 535 0 l 1,8,-1
 73 0 l 1,9,-1
 73 71 l 1,0,-1
EndSplineSet
Validated: 1
EndChar

StartChar: quotesingle
Encoding: 39 39 64
Width: 136
Flags: W
LayerCount: 2
Fore
SplineSet
109 677 m 1,0,-1
 98 457 l 1,1,-1
 38 457 l 1,2,-1
 27 677 l 1,3,-1
 109 677 l 1,0,-1
EndSplineSet
Validated: 1
EndChar

StartChar: apostrophe
Encoding: 261 700 65
Width: 184
Flags: W
LayerCount: 2
Fore
SplineSet
73 594 m 128,-1,1
 58 607 58 607 58 629 c 128,-1,2
 58 651 58 651 73.5 666 c 128,-1,3
 89 681 89 681 117.5 681 c 128,-1,4
 146 681 146 681 165 658.5 c 128,-1,5
 184 636 184 636 184 602 c 128,-1,6
 184 568 184 568 162 532.5 c 128,-1,7
 140 497 140 497 95 475 c 1,8,-1
 36 504 l 1,9,10
 98.4404 534.144 98.4404 534.144 111 579 c 1,11,0
 88 581 88 581 73 594 c 128,-1,1
EndSplineSet
Validated: 1
EndChar

StartChar: quoteleft
Encoding: 262 8216 66
Width: 214
Flags: W
LayerCount: 2
Fore
SplineSet
146.5 488.5 m 128,-1,1
 131 473 131 473 103 473 c 128,-1,2
 75 473 75 473 55.5 496 c 128,-1,3
 36 519 36 519 36 553.5 c 128,-1,4
 36 588 36 588 59.5 623.5 c 128,-1,5
 83 659 83 659 128 681 c 1,6,-1
 184 652 l 1,7,8
 121.78 619.817 121.78 619.817 109 576 c 1,9,10
 132 574 132 574 147 561 c 128,-1,11
 162 548 162 548 162 526 c 128,-1,0
 162 504 162 504 146.5 488.5 c 128,-1,1
EndSplineSet
Validated: 1
EndChar

StartChar: quoteright
Encoding: 263 8217 67
Width: 214
Flags: W
LayerCount: 2
Fore
SplineSet
51.998 666 m 128,-1,1
 67.998 681 67.998 681 96.498 681 c 128,-1,2
 124.998 681 124.998 681 143.498 659 c 128,-1,3
 161.998 637 161.998 637 161.998 602 c 128,-1,4
 161.998 567 161.998 567 138.498 531.5 c 128,-1,5
 114.998 496 114.998 496 70.998 473 c 1,6,-1
 14.998 503 l 1,7,8
 77.2168 535.183 77.2168 535.183 89.998 579 c 1,9,10
 66.998 581 66.998 581 51.498 594 c 128,-1,11
 35.998 607 35.998 607 35.998 629 c 128,-1,0
 35.998 651 35.998 651 51.998 666 c 128,-1,1
EndSplineSet
Validated: 1
EndChar

StartChar: parenleft
Encoding: 40 40 68
Width: 356
Flags: W
LayerCount: 2
Fore
SplineSet
155 307 m 128,-1,1
 155 102.012 155 102.012 328 -73 c 1,2,-1
 271 -113 l 1,3,4
 173 -24 173 -24 123 84 c 128,-1,5
 73 192 73 192 73 307.5 c 128,-1,6
 73 423 73 423 123 530.5 c 128,-1,7
 173 638 173 638 271 728 c 1,8,-1
 328 687 l 1,9,0
 155 511.988 155 511.988 155 307 c 128,-1,1
EndSplineSet
Validated: 1
EndChar

StartChar: parenright
Encoding: 41 41 69
Width: 356
Flags: W
LayerCount: 2
Fore
SplineSet
201 307 m 128,-1,1
 201 511.988 201 511.988 28 687 c 1,2,-1
 85 728 l 1,3,4
 183 638 183 638 233 530.5 c 128,-1,5
 283 423 283 423 283 307.5 c 128,-1,6
 283 192 283 192 233 84 c 128,-1,7
 183 -24 183 -24 85 -113 c 1,8,-1
 28 -73 l 1,9,0
 201 102.012 201 102.012 201 307 c 128,-1,1
EndSplineSet
Validated: 1
EndChar

StartChar: plus
Encoding: 43 43 70
Width: 527
Flags: W
LayerCount: 2
Fore
SplineSet
303 491 m 1,0,-1
 303 279 l 1,1,-1
 509 279 l 1,2,-1
 509 212 l 1,3,-1
 303 212 l 1,4,-1
 303 0 l 1,5,-1
 224 0 l 1,6,-1
 224 212 l 1,7,-1
 18 212 l 1,8,-1
 18 279 l 1,9,-1
 224 279 l 1,10,-1
 224 491 l 1,11,-1
 303 491 l 1,0,-1
EndSplineSet
Validated: 1
EndChar

StartChar: minus
Encoding: 264 8722 71
Width: 488
Flags: W
LayerCount: 2
Fore
SplineSet
409 325 m 1,0,-1
 409 258 l 1,1,-1
 79 258 l 1,2,-1
 79 325 l 1,3,-1
 409 325 l 1,0,-1
EndSplineSet
Validated: 1
EndChar

StartChar: equal
Encoding: 61 61 72
Width: 488
Flags: W
LayerCount: 2
Fore
SplineSet
409 185 m 1,0,-1
 409 117 l 1,1,-1
 79 117 l 1,2,-1
 79 185 l 1,3,-1
 409 185 l 1,0,-1
409 377 m 1,4,-1
 409 308 l 1,5,-1
 79 308 l 1,6,-1
 79 377 l 1,7,-1
 409 377 l 1,4,-1
EndSplineSet
Validated: 1
EndChar

StartChar: zero
Encoding: 48 48 73
Width: 594
Flags: W
LayerCount: 2
Fore
SplineSet
477.802 556.219 m 128,-1,1
 544 472.438 544 472.438 544 314.5 c 128,-1,2
 544 156.562 544 156.562 477.802 72.7812 c 128,-1,3
 411.605 -11 411.605 -11 297.753 -11 c 128,-1,4
 183.901 -11 183.901 -11 117.451 71.8077 c 128,-1,5
 51 154.615 51 154.615 51 314.5 c 128,-1,6
 51 474.385 51 474.385 117.451 557.192 c 128,-1,7
 183.901 640 183.901 640 297.753 640 c 128,-1,0
 411.605 640 411.605 640 477.802 556.219 c 128,-1,1
420 502.5 m 128,-1,9
 378 568 378 568 297.5 568 c 128,-1,10
 217 568 217 568 175 502.5 c 128,-1,11
 133 437 133 437 133 314.5 c 128,-1,12
 133 192 133 192 175 126.5 c 128,-1,13
 217 61 217 61 297.5 61 c 128,-1,14
 378 61 378 61 420 126.5 c 128,-1,15
 462 192 462 192 462 314.5 c 128,-1,8
 462 437 462 437 420 502.5 c 128,-1,9
EndSplineSet
Validated: 1
Substitution2: "'onum' Oldstyle Figures in Latin lookup 0 subtable" .notdef
EndChar

StartChar: one
Encoding: 49 49 74
Width: 331
Flags: W
LayerCount: 2
Fore
SplineSet
49 580 m 1,0,1
 116.329 588.688 116.329 588.688 166 631 c 1,2,-1
 230 631 l 1,3,-1
 230 0 l 1,4,-1
 152 0 l 1,5,-1
 152 537 l 1,6,7
 102 505 102 505 49 502 c 1,8,-1
 49 580 l 1,0,1
EndSplineSet
Validated: 1
Substitution2: "'onum' Oldstyle Figures in Latin lookup 0 subtable" .notdef
EndChar

StartChar: two
Encoding: 50 50 75
Width: 580
Flags: W
LayerCount: 2
Fore
SplineSet
143 73 m 1,0,-1
 508 73 l 1,1,-1
 508 0 l 1,2,-1
 64 0 l 1,3,-1
 64 93 l 2,4,5
 64 203.887 64 203.887 148.5 256.5 c 0,6,7
 175 273 175 273 208 286 c 2,8,-1
 332 336 l 2,9,10
 428 374 428 374 428 461 c 0,11,12
 428 509 428 509 395 539.5 c 128,-1,13
 362 570 362 570 302.5 570 c 128,-1,14
 243 570 243 570 205.5 545 c 128,-1,15
 168 520 168 520 162 470 c 1,16,-1
 75 470 l 1,17,18
 80 552 80 552 141 596 c 128,-1,19
 202 640 202 640 297.296 640 c 128,-1,20
 392.592 640 392.592 640 452.796 588.246 c 128,-1,21
 513 536.491 513 536.491 513 459.746 c 128,-1,22
 513 383 513 383 473.5 338 c 128,-1,23
 434 293 434 293 365 266 c 2,24,-1
 238 215 l 2,25,26
 190 195 190 195 166.5 169.5 c 128,-1,27
 143 144 143 144 143 103 c 2,28,-1
 143 73 l 1,0,-1
EndSplineSet
Validated: 1
Substitution2: "'onum' Oldstyle Figures in Latin lookup 0 subtable" .notdef
EndChar

StartChar: three
Encoding: 51 51 76
Width: 591
Flags: W
LayerCount: 2
Fore
SplineSet
505 468 m 0,0,1
 505 367.704 505 367.704 395 329 c 1,2,3
 455 312 455 312 492 273 c 128,-1,4
 529 234 529 234 529 173 c 0,5,6
 529 89.6 529 89.6 466.125 39.3 c 128,-1,7
 403.25 -11 403.25 -11 300.213 -11 c 128,-1,8
 197.176 -11 197.176 -11 124.588 42.6522 c 128,-1,9
 52 96.3043 52 96.3043 52 193 c 1,10,-1
 134 193 l 1,11,12
 136 129 136 129 181.333 95 c 128,-1,13
 226.667 61 226.667 61 296.833 61 c 128,-1,14
 367 61 367 61 405.5 94.5 c 128,-1,15
 444 128 444 128 444 177.5 c 128,-1,16
 444 227 444 227 407 258.5 c 128,-1,17
 370 290 370 290 287 290 c 2,18,-1
 215 290 l 1,19,-1
 215 353 l 1,20,-1
 264 353 l 2,21,22
 336 353 336 353 378 381.5 c 128,-1,23
 420 410 420 410 420 458 c 128,-1,24
 420 506 420 506 386 537 c 128,-1,25
 352 568 352 568 296 568 c 128,-1,26
 240 568 240 568 202.5 548.5 c 128,-1,27
 165 529 165 529 152 476 c 1,28,-1
 70 476 l 1,29,30
 81.328 559.072 81.328 559.072 138.989 599.536 c 128,-1,31
 196.65 640 196.65 640 288.569 640 c 128,-1,32
 380.489 640 380.489 640 442.744 591.698 c 128,-1,33
 505 543.397 505 543.397 505 468 c 0,0,1
EndSplineSet
Validated: 1
Substitution2: "'onum' Oldstyle Figures in Latin lookup 0 subtable" .notdef
EndChar

StartChar: four
Encoding: 52 52 77
Width: 559
Flags: W
LayerCount: 2
Fore
SplineSet
428 638 m 1,0,-1
 428 220 l 1,1,-1
 537 220 l 1,2,-1
 537 152 l 1,3,-1
 428 152 l 1,4,-1
 428 0 l 1,5,-1
 351 0 l 1,6,-1
 351 152 l 1,7,-1
 26 152 l 1,8,-1
 26 213 l 1,9,-1
 355 638 l 1,10,-1
 428 638 l 1,0,-1
120 213 m 1,11,-1
 353 213 l 1,12,-1
 353 513 l 1,13,-1
 120 213 l 1,11,-1
EndSplineSet
Validated: 1
Substitution2: "'onum' Oldstyle Figures in Latin lookup 0 subtable" .notdef
EndChar

StartChar: five
Encoding: 53 53 78
Width: 565
Flags: W
LayerCount: 2
Fore
SplineSet
427 204 m 0,0,1
 427 323 427 323 272 323 c 2,2,-1
 103 323 l 1,3,-1
 130 629 l 1,4,-1
 479 629 l 1,5,-1
 479 557 l 1,6,-1
 206 557 l 1,7,-1
 189 376 l 1,8,9
 240.75 385 240.75 385 288 385 c 0,10,11
 391 385 391 385 450 339.5 c 128,-1,12
 509 294 509 294 509 202.224 c 128,-1,13
 509 110.448 509 110.448 447.211 49.7241 c 128,-1,14
 385.421 -11 385.421 -11 287.274 -11 c 128,-1,15
 189.128 -11 189.128 -11 127.064 38.4407 c 128,-1,16
 65 87.8814 65 87.8814 65 175 c 1,17,-1
 144 175 l 1,18,19
 144 93.3529 144 93.3529 228.5 68.5 c 0,20,21
 254 61 254 61 285 61 c 0,22,23
 348.579 61 348.579 61 387.789 101.27 c 128,-1,24
 427 141.541 427 141.541 427 204 c 0,0,1
EndSplineSet
Validated: 1
Substitution2: "'onum' Oldstyle Figures in Latin lookup 0 subtable" .notdef
EndChar

StartChar: six
Encoding: 54 54 79
Width: 573
Flags: W
LayerCount: 2
Fore
SplineSet
425 470 m 1,0,1
 407.578 568 407.578 568 317.692 568 c 128,-1,2
 227.806 568 227.806 568 179.403 493.851 c 128,-1,3
 131 419.702 131 419.702 131 292 c 0,4,5
 131 239 131 239 136 204 c 1,6,7
 141.646 296.221 141.646 296.221 192.348 337.611 c 128,-1,8
 243.05 379 243.05 379 322.251 379 c 128,-1,9
 401.453 379 401.453 379 458.226 323.278 c 128,-1,10
 515 267.556 515 267.556 515 181.394 c 128,-1,11
 515 95.2321 515 95.2321 456.127 41.6161 c 128,-1,12
 397.255 -12 397.255 -12 301 -12 c 0,13,14
 188.706 -12 188.706 -12 119.853 78.0385 c 128,-1,15
 51 168.077 51 168.077 51 314.509 c 128,-1,16
 51 460.941 51 460.941 121 550.5 c 128,-1,17
 190.954 640 190.954 640 312 640 c 0,18,19
 395.667 640 395.667 640 448.823 593.097 c 128,-1,20
 501.98 546.195 501.98 546.195 510 470 c 1,21,-1
 425 470 l 1,0,1
207.5 273.5 m 128,-1,23
 170 238.143 170 238.143 170 183.214 c 128,-1,24
 170 128.286 170 128.286 206.797 94.6429 c 128,-1,25
 243.594 61 243.594 61 300.797 61 c 128,-1,26
 358 61 358 61 395.5 94 c 128,-1,27
 433 127 433 127 433 185 c 128,-1,28
 433 243 433 243 395.5 276 c 128,-1,29
 358 309 358 309 301.576 309 c 128,-1,22
 245.152 309 245.152 309 207.5 273.5 c 128,-1,23
EndSplineSet
Validated: 1
Substitution2: "'onum' Oldstyle Figures in Latin lookup 0 subtable" .notdef
EndChar

StartChar: seven
Encoding: 55 55 80
Width: 470
Flags: W
LayerCount: 2
Fore
SplineSet
452 629 m 1,0,-1
 452 556 l 1,1,-1
 164 0 l 1,2,-1
 58 0 l 1,3,-1
 360 553 l 1,4,-1
 24 553 l 1,5,-1
 24 629 l 1,6,-1
 452 629 l 1,0,-1
EndSplineSet
Validated: 1
Substitution2: "'onum' Oldstyle Figures in Latin lookup 0 subtable" .notdef
EndChar

StartChar: eight
Encoding: 56 56 81
Width: 625
Flags: W
LayerCount: 2
Fore
SplineSet
211 318 m 1,0,1
 86 374.818359375 86 374.818359375 86 473 c 0,2,3
 86 547.880859375 86 547.880859375 147.760742188 593.94140625 c 128,-1,4
 209.5234375 640 209.5234375 640 312.06640625 640 c 128,-1,5
 414.609375 640 414.609375 640 480.803710938 590.88671875 c 128,-1,6
 547 541.774414062 547 541.774414062 547 465 c 0,7,8
 547 413 547 413 512.5 372 c 128,-1,9
 478 331 478 331 411 321 c 1,10,-1
 428 315 l 1,11,12
 497 289 497 289 534 253.5 c 128,-1,13
 571 218 571 218 571 157 c 0,14,15
 571 81.181640625 571 81.181640625 503.400390625 35.0908203125 c 128,-1,16
 435.799804688 -11 435.799804688 -11 321.244140625 -11 c 128,-1,17
 206.688476562 -11 206.688476562 -11 135.84375 39.75390625 c 128,-1,18
 65 90.5078125 65 90.5078125 65 168 c 0,19,20
 65 230 65 230 105.5 269 c 128,-1,21
 146 308 146 308 211 318 c 1,0,1
286 289 m 1,22,23
 223 282 223 282 185 249.5 c 128,-1,24
 147 217 147 217 147 169.196289062 c 128,-1,25
 147 121.390625 147 121.390625 194.897460938 91.1953125 c 128,-1,26
 242.79296875 61 242.79296875 61 320.397460938 61 c 128,-1,27
 398 61 398 61 443.5 87 c 128,-1,28
 489 113 489 113 489 150 c 128,-1,29
 489 187 489 187 465 209.5 c 128,-1,30
 441 232 441 232 399 247 c 2,31,-1
 286 289 l 1,22,23
169 463 m 0,32,33
 169 436 169 436 191 416.5 c 128,-1,34
 213 397 213 397 254 381 c 2,35,-1
 327 353 l 1,36,37
 387.283203125 355.079101562 387.283203125 355.079101562 426.140625 384.485351562 c 128,-1,38
 465 413.891601562 465 413.891601562 465 461.446289062 c 128,-1,39
 465 509 465 509 424 538.5 c 128,-1,40
 383 568 383 568 318.111328125 568 c 128,-1,41
 253.221679688 568 253.221679688 568 211.111328125 539.575195312 c 128,-1,42
 169 511.150390625 169 511.150390625 169 463 c 0,32,33
EndSplineSet
Validated: 1
Substitution2: "'onum' Oldstyle Figures in Latin lookup 0 subtable" .notdef
EndChar

StartChar: nine
Encoding: 57 57 82
Width: 581
Flags: W
LayerCount: 2
Fore
SplineSet
282.5 640 m 0,0,1
 333 640 333 640 379 618 c 128,-1,2
 425 596 425 596 458.5 555 c 0,3,4
 530 467.493 530 467.493 530 326 c 0,5,6
 530 81.4839 530 81.4839 393.5 12.5 c 0,7,8
 347 -11 347 -11 292 -11 c 0,9,10
 189.189 -11 189.189 -11 129.094 44.8772 c 128,-1,11
 69 100.754 69 100.754 69 186 c 1,12,-1
 152 186 l 1,13,14
 154 129 154 129 188 95 c 128,-1,15
 222 61 222 61 274 61 c 128,-1,16
 326 61 326 61 357.5 80.5 c 0,17,18
 449 137.143 449 137.143 449 337 c 0,19,20
 449 377.667 449 377.667 444 411 c 1,21,22
 434 330 434 330 385.5 290 c 128,-1,23
 337 250 337 250 258.274 250 c 128,-1,24
 179.547 250 179.547 250 122.774 305.722 c 128,-1,25
 66 361.444 66 361.444 66 447 c 0,26,27
 66 534.321 66 534.321 125.18 587.161 c 128,-1,28
 184.36 640 184.36 640 282.5 640 c 0,0,1
279 567 m 128,-1,30
 222 567 222 567 185 534 c 128,-1,31
 148 501 148 501 148 443 c 128,-1,32
 148 385 148 385 185.5 352 c 128,-1,33
 223 319 223 319 279.424 319 c 128,-1,34
 335.848 319 335.848 319 373.5 354.5 c 128,-1,35
 411 389.857 411 389.857 411 445.04 c 128,-1,36
 411 500.222 411 500.222 373.438 533.611 c 128,-1,29
 335.875 567 335.875 567 279 567 c 128,-1,30
EndSplineSet
Validated: 1
Substitution2: "'onum' Oldstyle Figures in Latin lookup 0 subtable" .notdef
EndChar

StartChar: zero.propold
Encoding: 265 -1 83
Width: 531
Flags: W
LayerCount: 2
Fore
SplineSet
265.5 551 m 128,-1,1
 363.901 551 363.901 551 422.451 478.07 c 128,-1,2
 481 405.14 481 405.14 481 270 c 128,-1,3
 481 134.86 481 134.86 422.451 61.9298 c 128,-1,4
 363.901 -11 363.901 -11 265.5 -11 c 128,-1,5
 167.099 -11 167.099 -11 109.049 61.307 c 128,-1,6
 51 133.614 51 133.614 51 270 c 128,-1,7
 51 406.386 51 406.386 109.049 478.693 c 128,-1,0
 167.099 551 167.099 551 265.5 551 c 128,-1,1
400 270 m 0,8,9
 400 482 400 482 266 482 c 128,-1,10
 132 482 132 482 132 270 c 0,11,12
 132 59 132 59 266 59 c 128,-1,13
 400 59 400 59 400 270 c 0,8,9
EndSplineSet
Validated: 1
EndChar

StartChar: one.propold
Encoding: 266 -1 84
Width: 331
Flags: W
LayerCount: 2
Fore
SplineSet
49 489 m 1,0,1
 118.026 500.133 118.026 500.133 166 541 c 1,2,-1
 230 541 l 1,3,-1
 230 0 l 1,4,-1
 152 0 l 1,5,-1
 152 446 l 1,6,7
 101 414 101 414 49 412 c 1,8,-1
 49 489 l 1,0,1
EndSplineSet
Validated: 1
EndChar

StartChar: two.propold
Encoding: 267 -1 85
Width: 575
Flags: W
LayerCount: 2
Fore
SplineSet
143 73 m 1,0,-1
 500 73 l 1,1,-1
 500 0 l 1,2,-1
 64 0 l 1,3,-1
 64 84 l 2,4,5
 64 164 64 164 101 205.5 c 128,-1,6
 138 247 138 247 214 264 c 1,7,-1
 317 289 l 2,8,9
 370 301 370 301 395.5 325 c 128,-1,10
 421 349 421 349 421 388 c 128,-1,11
 421 427 421 427 389 454 c 128,-1,12
 357 481 357 481 299 481 c 128,-1,13
 241 481 241 481 204.5 458 c 128,-1,14
 168 435 168 435 162 388 c 1,15,-1
 75 388 l 1,16,17
 80 466 80 466 138 508.5 c 128,-1,18
 196 551 196 551 290.3 551 c 128,-1,19
 384.6 551 384.6 551 442.8 502.5 c 128,-1,20
 501 454 501 454 501 388 c 128,-1,21
 501 322 501 322 464 285.5 c 128,-1,22
 427 249 427 249 351 231 c 2,23,-1
 240 204 l 1,24,25
 143 182.038 143 182.038 143 105 c 2,26,-1
 143 73 l 1,0,-1
EndSplineSet
Validated: 1
EndChar

StartChar: three.propold
Encoding: 268 -1 86
Width: 562
Flags: W
LayerCount: 2
Fore
SplineSet
260 483 m 0,0,1
 149.878 483 149.878 483 129 390 c 1,2,-1
 46 390 l 1,3,4
 67.9545 551 67.9545 551 259 551 c 0,5,6
 351.75 551 351.75 551 409.875 504.5 c 128,-1,7
 468 458 468 458 468 384 c 0,8,9
 468 333 468 333 439.5 302 c 128,-1,10
 411 271 411 271 360 252 c 1,11,12
 421 232 421 232 457 184.5 c 128,-1,13
 493 137 493 137 493 74 c 0,14,15
 493 -8.13115 493 -8.13115 428.5 -61 c 128,-1,16
 363.84 -114 363.84 -114 261.67 -114 c 128,-1,17
 159.5 -114 159.5 -114 93.75 -61.8175 c 128,-1,18
 28 -9.63492 28 -9.63492 28 88 c 1,19,-1
 108 88 l 1,20,21
 110 19 110 19 151.5 -13.5 c 128,-1,22
 193 -46 193 -46 258.697 -46 c 128,-1,23
 324.394 -46 324.394 -46 368.197 -10.7439 c 128,-1,24
 412 24.5122 412 24.5122 412 79 c 0,25,26
 412 167.367 412 167.367 323 200 c 0,27,28
 293 211 293 211 251 211 c 2,29,-1
 190 211 l 1,30,-1
 190 274 l 1,31,-1
 233 274 l 2,32,33
 305 274 305 274 346.5 300 c 128,-1,34
 388 326 388 326 388 375 c 128,-1,35
 388 424 388 424 354 453.5 c 128,-1,36
 320 483 320 483 260 483 c 0,0,1
EndSplineSet
Validated: 1
EndChar

StartChar: four.propold
Encoding: 269 -1 87
Width: 560
Flags: W
LayerCount: 2
Fore
SplineSet
427 546 m 1,0,-1
 427 121 l 1,1,-1
 536 121 l 1,2,-1
 536 54 l 1,3,-1
 427 54 l 1,4,-1
 427 -105 l 1,5,-1
 349 -105 l 1,6,-1
 349 54 l 1,7,-1
 24 54 l 1,8,-1
 24 115 l 1,9,-1
 353 546 l 1,10,-1
 427 546 l 1,0,-1
112 115 m 1,11,-1
 351 115 l 1,12,-1
 351 422 l 1,13,-1
 112 115 l 1,11,-1
EndSplineSet
Validated: 1
EndChar

StartChar: five.propold
Encoding: 270 -1 88
Width: 569
Flags: W
LayerCount: 2
Fore
SplineSet
187 296 m 1,0,1
 233 306 233 306 281 306 c 0,2,3
 386 306 386 306 446 253 c 128,-1,4
 506 200 506 200 506 105.857 c 128,-1,5
 506 11.7143 506 11.7143 438.881 -51.1429 c 128,-1,6
 371.763 -114 371.763 -114 276.881 -114 c 128,-1,7
 182 -114 182 -114 123.5 -63.8571 c 128,-1,8
 65 -13.7143 65 -13.7143 65 75 c 1,9,-1
 142 75 l 1,10,11
 142 18 142 18 177 -12 c 128,-1,12
 212 -42 212 -42 274.95 -42 c 128,-1,13
 337.9 -42 337.9 -42 382 0 c 128,-1,14
 426 41.9048 426 41.9048 426 105.452 c 128,-1,15
 426 169 426 169 385.5 205 c 128,-1,16
 345 241 345 241 266 241 c 2,17,-1
 104 241 l 1,18,-1
 132 545 l 1,19,-1
 477 545 l 1,20,-1
 477 474 l 1,21,-1
 205 474 l 1,22,-1
 187 296 l 1,0,1
EndSplineSet
Validated: 1
EndChar

StartChar: six.propold
Encoding: 271 -1 89
Width: 573
Flags: W
LayerCount: 2
Fore
SplineSet
425 470 m 1,0,1
 407.578 568 407.578 568 317.692 568 c 128,-1,2
 227.806 568 227.806 568 179.403 493.851 c 128,-1,3
 131 419.702 131 419.702 131 292 c 0,4,5
 131 239 131 239 136 204 c 1,6,7
 141.646 296.221 141.646 296.221 192.348 337.611 c 128,-1,8
 243.05 379 243.05 379 322.251 379 c 128,-1,9
 401.453 379 401.453 379 458.226 323.278 c 128,-1,10
 515 267.556 515 267.556 515 181.394 c 128,-1,11
 515 95.2321 515 95.2321 456.127 41.6161 c 128,-1,12
 397.255 -12 397.255 -12 301 -12 c 0,13,14
 188.706 -12 188.706 -12 119.853 78.0385 c 128,-1,15
 51 168.077 51 168.077 51 314.509 c 128,-1,16
 51 460.941 51 460.941 121 550.5 c 128,-1,17
 190.954 640 190.954 640 312 640 c 0,18,19
 395.667 640 395.667 640 448.823 593.097 c 128,-1,20
 501.98 546.195 501.98 546.195 510 470 c 1,21,-1
 425 470 l 1,0,1
207.5 273.5 m 128,-1,23
 170 238.143 170 238.143 170 183.214 c 128,-1,24
 170 128.286 170 128.286 206.797 94.6429 c 128,-1,25
 243.594 61 243.594 61 300.797 61 c 128,-1,26
 358 61 358 61 395.5 94 c 128,-1,27
 433 127 433 127 433 185 c 128,-1,28
 433 243 433 243 395.5 276 c 128,-1,29
 358 309 358 309 301.576 309 c 128,-1,22
 245.152 309 245.152 309 207.5 273.5 c 128,-1,23
EndSplineSet
Validated: 1
EndChar

StartChar: seven.propold
Encoding: 272 -1 90
Width: 470
Flags: W
LayerCount: 2
Fore
SplineSet
452 551 m 1,0,-1
 452 484 l 1,1,-1
 152 -98 l 1,2,-1
 55 -98 l 1,3,-1
 369 481 l 1,4,-1
 24 481 l 1,5,-1
 24 551 l 1,6,-1
 452 551 l 1,0,-1
EndSplineSet
Validated: 1
EndChar

StartChar: eight.propold
Encoding: 273 -1 91
Width: 615
Flags: W
LayerCount: 2
Fore
SplineSet
201 318 m 1,0,1
 76 374.818 76 374.818 76 473 c 0,2,3
 76 547.881 76 547.881 137.761 593.941 c 128,-1,4
 199.523 640 199.523 640 302.066 640 c 128,-1,5
 404.609 640 404.609 640 470.804 590.887 c 128,-1,6
 537 541.774 537 541.774 537 465 c 0,7,8
 537 413 537 413 502.5 372 c 128,-1,9
 468 331 468 331 401 321 c 1,10,-1
 418 315 l 1,11,12
 487 289 487 289 524 253.5 c 128,-1,13
 561 218 561 218 561 157 c 0,14,15
 561 81.1818 561 81.1818 493.4 35.0909 c 128,-1,16
 425.8 -11 425.8 -11 311.244 -11 c 128,-1,17
 196.688 -11 196.688 -11 125.844 39.7537 c 128,-1,18
 55 90.5075 55 90.5075 55 168 c 0,19,20
 55 230 55 230 95.5 269 c 128,-1,21
 136 308 136 308 201 318 c 1,0,1
276 289 m 1,22,23
 213 282 213 282 175 249.5 c 128,-1,24
 137 217 137 217 137 169.196 c 128,-1,25
 137 121.391 137 121.391 184.897 91.1957 c 128,-1,26
 232.793 61 232.793 61 310.397 61 c 128,-1,27
 388 61 388 61 433.5 87 c 128,-1,28
 479 113 479 113 479 150 c 128,-1,29
 479 187 479 187 455 209.5 c 128,-1,30
 431 232 431 232 389 247 c 2,31,-1
 276 289 l 1,22,23
159 463 m 0,32,33
 159 436 159 436 181 416.5 c 128,-1,34
 203 397 203 397 244 381 c 2,35,-1
 317 353 l 1,36,37
 377.283 355.079 377.283 355.079 416.141 384.485 c 128,-1,38
 455 413.892 455 413.892 455 461.446 c 128,-1,39
 455 509 455 509 414 538.5 c 128,-1,40
 373 568 373 568 308.111 568 c 128,-1,41
 243.222 568 243.222 568 201.111 539.575 c 128,-1,42
 159 511.15 159 511.15 159 463 c 0,32,33
EndSplineSet
Validated: 1
EndChar

StartChar: nine.propold
Encoding: 274 -1 92
Width: 580
Flags: W
LayerCount: 2
Fore
SplineSet
285.5 551 m 0,0,1
 339 551 339 551 385.5 525.5 c 128,-1,2
 432 500 432 500 464 456.5 c 0,3,4
 530 366.781 530 366.781 530 216.938 c 128,-1,5
 530 67.0952 530 67.0952 465.176 -23.4524 c 128,-1,6
 400.352 -114 400.352 -114 281 -114 c 0,7,8
 187.642 -114 187.642 -114 128.821 -58.3304 c 128,-1,9
 70 -2.66071 70 -2.66071 70 83 c 1,10,-1
 153 83 l 1,11,12
 155 26 155 26 187.5 -8 c 128,-1,13
 220 -42 220 -42 272.5 -42 c 128,-1,14
 325 -42 325 -42 356.5 -22.5 c 0,15,16
 449 34.7619 449 34.7619 449 238 c 0,17,18
 449 283 449 283 444 318 c 1,19,20
 436 241 436 241 389 198.5 c 128,-1,21
 342 156 342 156 263.365 156 c 128,-1,22
 184.731 156 184.731 156 125.365 212.127 c 128,-1,23
 66 268.255 66 268.255 66 354 c 0,24,25
 66 441.214 66 441.214 125.115 496.107 c 128,-1,26
 184.231 551 184.231 551 285.5 551 c 0,0,1
279 481 m 128,-1,28
 219 481 219 481 183.5 446.5 c 128,-1,29
 148 412 148 412 148 353.5 c 128,-1,30
 148 295 148 295 184 260.5 c 128,-1,31
 220 226 220 226 278.5 226 c 128,-1,32
 337 226 337 226 374 263 c 128,-1,33
 411 300 411 300 411 356 c 128,-1,34
 411 412 411 412 375 446.5 c 128,-1,27
 339 481 339 481 279 481 c 128,-1,28
EndSplineSet
Validated: 1
EndChar

StartChar: dollar
Encoding: 36 36 93
Width: 632
Flags: W
LayerCount: 2
Fore
SplineSet
417 330 m 2,0,1
 486 307 486 307 524.5 268.5 c 128,-1,2
 563 230 563 230 563 163.5 c 128,-1,3
 563 97 563 97 506 46.3333 c 128,-1,4
 449 -4.33333 449 -4.33333 347 -10 c 1,5,-1
 347 -91 l 1,6,-1
 285 -91 l 1,7,-1
 285 -9 l 1,8,9
 190.073 -0.562088 190.073 -0.562088 129.537 50.581 c 128,-1,10
 69 101.724 69 101.724 69 189 c 1,11,-1
 146 189 l 1,12,13
 146 76.2381 146 76.2381 285 63 c 1,14,-1
 285 298 l 1,15,-1
 253 310 l 1,16,17
 170 336 170 336 127.5 372 c 128,-1,18
 85 408 85 408 85 475 c 128,-1,19
 85 542 85 542 135.5 586.5 c 128,-1,20
 186 631 186 631 285 638 c 1,21,-1
 285 713 l 1,22,-1
 347 713 l 1,23,-1
 347 637 l 1,24,25
 434 630 434 630 481 587 c 128,-1,26
 528 544 528 544 539 476 c 1,27,-1
 461 476 l 1,28,29
 444.084 556.35 444.084 556.35 347 568 c 1,30,-1
 347 353 l 1,31,-1
 417 330 l 2,0,1
475 167 m 0,32,33
 475 240.727 475 240.727 383 270 c 1,34,-1
 347 282 l 1,35,-1
 347 62 l 1,36,37
 410 67 410 67 442.5 98 c 128,-1,38
 475 129 475 129 475 167 c 0,32,33
199 536 m 128,-1,40
 170 509 170 509 170 472.5 c 128,-1,41
 170 436 170 436 190 415.5 c 128,-1,42
 210 395 210 395 255 381 c 1,43,-1
 285 370 l 1,44,-1
 285 569 l 1,45,39
 228 563 228 563 199 536 c 128,-1,40
EndSplineSet
Validated: 1
EndChar

StartChar: question
Encoding: 63 63 94
Width: 499
Flags: W
LayerCount: 2
Fore
SplineSet
248 568 m 0,0,1
 130.727 568 130.727 568 114 476 c 1,2,-1
 30 476 l 1,3,4
 37 550 37 550 91 595 c 128,-1,5
 145 640 145 640 242.689 640 c 128,-1,6
 340.378 640 340.378 640 396.689 592.189 c 128,-1,7
 453 544.377 453 544.377 453 475 c 0,8,9
 453 423 453 423 427 388.5 c 128,-1,10
 401 354 401 354 343 322 c 0,11,12
 318 308 318 308 301 297 c 128,-1,13
 284 286 284 286 274 272.5 c 0,14,15
 255 246.85 255 246.85 255 200 c 2,16,-1
 255 161 l 1,17,-1
 177 161 l 1,18,-1
 177 206 l 2,19,20
 177 269.348 177 269.348 198.183 302.504 c 128,-1,21
 219.367 335.661 219.367 335.661 274.194 365.676 c 128,-1,22
 329.021 395.692 329.021 395.692 348.011 418.298 c 128,-1,23
 367 440.905 367 440.905 367 478.952 c 128,-1,24
 367 517 367 517 335.5 542.5 c 128,-1,25
 304 568 304 568 248 568 c 0,0,1
217 102 m 128,-1,27
 243 102 243 102 260 85 c 128,-1,28
 277 68 277 68 277 44.5 c 128,-1,29
 277 21 277 21 260 5 c 128,-1,30
 243 -11 243 -11 217 -11 c 128,-1,31
 191 -11 191 -11 175 5 c 128,-1,32
 159 21 159 21 159 44.5 c 128,-1,33
 159 68 159 68 175 85 c 128,-1,26
 191 102 191 102 217 102 c 128,-1,27
EndSplineSet
Validated: 1
EndChar

StartChar: sterling
Encoding: 275 163 95
Width: 565
Flags: W
LayerCount: 2
Fore
SplineSet
400 490 m 1,0,1
 384 568 384 568 298 568 c 0,2,3
 256 568 256 568 227.5 536 c 128,-1,4
 199 504 199 504 199 432 c 2,5,-1
 199 323 l 1,6,-1
 381 323 l 1,7,-1
 381 267 l 1,8,-1
 199 267 l 1,9,-1
 199 163 l 2,10,11
 199 94.9 199 94.9 162 69 c 1,12,-1
 345 69 l 2,13,14
 394 69 394 69 416.5 89.5 c 128,-1,15
 439 110 439 110 445 154 c 1,16,-1
 529 154 l 1,17,18
 522.616 77.3866 522.616 77.3866 481.02 38.6933 c 128,-1,19
 439.425 1.06581e-014 439.425 1.06581e-014 345 0 c 2,20,-1
 20 0 l 1,21,-1
 20 69 l 1,22,-1
 48 69 l 2,23,24
 86 69 86 69 103.5 91 c 128,-1,25
 121 113 121 113 121 159 c 2,26,-1
 121 267 l 1,27,-1
 30 267 l 1,28,-1
 30 323 l 1,29,-1
 121 323 l 1,30,-1
 121 432 l 2,31,32
 121 531 121 531 167.5 585.5 c 128,-1,33
 214 640 214 640 305 640 c 0,34,35
 376 640 376 640 421 602 c 128,-1,36
 466 564 466 564 477 490 c 1,37,-1
 400 490 l 1,0,1
EndSplineSet
Validated: 1
EndChar

StartChar: grave
Encoding: 96 96 96
Width: 315
Flags: W
LayerCount: 2
Fore
SplineSet
57 860 m 1,0,-1
 292 727 l 1,1,-1
 269 677 l 1,2,-1
 24 790 l 1,3,-1
 57 860 l 1,0,-1
EndSplineSet
Validated: 1
EndChar

StartChar: acute
Encoding: 276 180 97
Width: 315
Flags: W
LayerCount: 2
Fore
SplineSet
290 790 m 1,0,-1
 46 677 l 1,1,-1
 23 727 l 1,2,-1
 258 860 l 1,3,-1
 290 790 l 1,0,-1
EndSplineSet
Validated: 1
EndChar

StartChar: agrave
Encoding: 277 224 98
Width: 551
Flags: W
LayerCount: 2
Fore
SplineSet
387 310 m 2,0,1
 387 375 387 375 360 403 c 128,-1,2
 333 431 333 431 281.5 431 c 128,-1,3
 230 431 230 431 198.5 410.5 c 128,-1,4
 167 390 167 390 167 346 c 1,5,-1
 80 346 l 1,6,7
 80 455.778 80 455.778 198 482 c 0,8,9
 234 490 234 490 276.5 490 c 0,10,11
 364.614 490 364.614 490 414.807 444.929 c 128,-1,12
 465 399.857 465 399.857 465 308 c 2,13,-1
 465 0 l 1,14,-1
 397 0 l 1,15,-1
 389 80 l 1,16,17
 345 -11 345 -11 230 -11 c 0,18,19
 152.756 -11 152.756 -11 106.378 32.2159 c 128,-1,20
 60 75.4318 60 75.4318 60 139.066 c 128,-1,21
 60 202.7 60 202.7 111.643 238.85 c 128,-1,22
 163.286 275 163.286 275 240.143 275 c 128,-1,23
 317 275 317 275 387 249 c 1,24,-1
 387 310 l 2,0,1
387 199 m 1,25,26
 315.889 219 315.889 219 262.944 219 c 128,-1,27
 210 219 210 219 177 200 c 128,-1,28
 144 181 144 181 144 140 c 0,29,30
 144 50 144 50 246 50 c 0,31,32
 304 50 304 50 345.5 91.5 c 128,-1,33
 387 133 387 133 387 199 c 1,25,26
182 731 m 1,34,-1
 417 598 l 1,35,-1
 394 548 l 1,36,-1
 149 661 l 1,37,-1
 182 731 l 1,34,-1
EndSplineSet
Validated: 1
EndChar

StartChar: egrave
Encoding: 278 232 99
Width: 514
Flags: W
LayerCount: 2
Fore
SplineSet
267 53 m 0,0,1
 366.159 53 366.159 53 380 140 c 1,2,-1
 461 140 l 1,3,4
 450 68 450 68 397.5 28.5 c 128,-1,5
 345 -11 345 -11 267 -11 c 0,6,7
 170.815 -11 170.815 -11 110.908 57.3158 c 128,-1,8
 51 125.632 51 125.632 51 239.885 c 128,-1,9
 51 354.138 51 354.138 111.615 422.069 c 128,-1,10
 172.231 490 172.231 490 272.642 490 c 128,-1,11
 373.054 490 373.054 490 422.453 412.223 c 128,-1,12
 471.851 334.447 471.851 334.447 457 222 c 1,13,-1
 130 222 l 1,14,15
 130 147.824 130 147.824 165.822 100.412 c 128,-1,16
 201.644 53 201.644 53 267 53 c 0,0,1
324.5 415 m 0,17,18
 302 427 302 427 269.5 427 c 0,19,20
 207.55 427 207.55 427 172.388 385.633 c 128,-1,21
 137.227 344.267 137.227 344.267 131 282 c 1,22,-1
 386 282 l 1,23,24
 386 382.2 386 382.2 324.5 415 c 0,17,18
159 736 m 1,25,-1
 394 603 l 1,26,-1
 371 553 l 1,27,-1
 126 666 l 1,28,-1
 159 736 l 1,25,-1
EndSplineSet
Validated: 33
EndChar

StartChar: ograve
Encoding: 279 242 100
Width: 547
Flags: W
LayerCount: 2
Fore
SplineSet
274 490 m 128,-1,1
 373.524 490 373.524 490 435.262 425.175 c 128,-1,2
 497 360.35 497 360.35 497 239 c 0,3,4
 497 118.65 497 118.65 435.262 53.825 c 128,-1,5
 373.524 -11 373.524 -11 274 -11 c 128,-1,6
 174.476 -11 174.476 -11 112.738 53.825 c 128,-1,7
 51 118.65 51 118.65 51 239 c 0,8,9
 51 360.35 51 360.35 112.738 425.175 c 128,-1,0
 174.476 490 174.476 490 274 490 c 128,-1,1
381 373.5 m 128,-1,11
 345 422 345 422 275.5 422 c 128,-1,12
 206 422 206 422 169 373.5 c 128,-1,13
 132 325 132 325 132 239.5 c 128,-1,14
 132 154 132 154 167 105.5 c 128,-1,15
 202 57 202 57 271.5 57 c 128,-1,16
 341 57 341 57 379 105.5 c 128,-1,17
 417 154 417 154 417 239.5 c 128,-1,10
 417 325 417 325 381 373.5 c 128,-1,11
174 731 m 1,18,-1
 409 598 l 1,19,-1
 386 548 l 1,20,-1
 141 661 l 1,21,-1
 174 731 l 1,18,-1
EndSplineSet
Validated: 1
EndChar

StartChar: Agrave
Encoding: 280 192 101
Width: 575
Flags: W
LayerCount: 2
Fore
SplineSet
242 629 m 1,0,-1
 338 629 l 1,1,-1
 549 0 l 1,2,-1
 467 0 l 1,3,-1
 413 160 l 1,4,-1
 163 160 l 1,5,-1
 109 0 l 1,6,-1
 26 0 l 1,7,-1
 242 629 l 1,0,-1
184 222 m 1,8,-1
 393 222 l 1,9,-1
 289 532 l 1,10,-1
 184 222 l 1,8,-1
190 860 m 1,11,-1
 425 727 l 1,12,-1
 402 677 l 1,13,-1
 157 790 l 1,14,-1
 190 860 l 1,11,-1
EndSplineSet
Validated: 1
EndChar

StartChar: Egrave
Encoding: 281 200 102
Width: 564
Flags: W
LayerCount: 2
Fore
SplineSet
100 629 m 1,0,-1
 487 629 l 1,1,-1
 487 561 l 1,2,-1
 179 561 l 1,3,-1
 179 350 l 1,4,-1
 469 350 l 1,5,-1
 469 283 l 1,6,-1
 179 283 l 1,7,-1
 179 69 l 1,8,-1
 487 69 l 1,9,-1
 487 0 l 1,10,-1
 100 0 l 1,11,-1
 100 629 l 1,0,-1
194 860 m 1,12,-1
 429 727 l 1,13,-1
 406 677 l 1,14,-1
 161 790 l 1,15,-1
 194 860 l 1,12,-1
EndSplineSet
Validated: 1
EndChar

StartChar: ugrave
Encoding: 282 249 103
Width: 606
Flags: W
LayerCount: 2
Fore
SplineSet
426 95 m 1,0,1
 377.059 -9 377.059 -9 267 -9 c 0,2,3
 186 -9 186 -9 136.5 36 c 128,-1,4
 87 81 87 81 87 175 c 2,5,-1
 87 479 l 1,6,-1
 166 479 l 1,7,-1
 166 181 l 2,8,9
 166 60 166 60 278 60 c 0,10,11
 342.875 60 342.875 60 383.5 110 c 128,-1,12
 423.996 159.841 423.996 159.841 426 238 c 1,13,-1
 426 479 l 1,14,-1
 505 479 l 1,15,-1
 505 0 l 1,16,-1
 426 0 l 1,17,-1
 426 95 l 1,0,1
200 769 m 1,18,-1
 435 636 l 1,19,-1
 412 586 l 1,20,-1
 167 699 l 1,21,-1
 200 769 l 1,18,-1
EndSplineSet
Validated: 1
EndChar

StartChar: aacute
Encoding: 283 225 104
Width: 551
Flags: W
LayerCount: 2
Fore
SplineSet
387 310 m 2,0,1
 387 375 387 375 360 403 c 128,-1,2
 333 431 333 431 281.5 431 c 128,-1,3
 230 431 230 431 198.5 410.5 c 128,-1,4
 167 390 167 390 167 346 c 1,5,-1
 80 346 l 1,6,7
 80 455.778 80 455.778 198 482 c 0,8,9
 234 490 234 490 276.5 490 c 0,10,11
 364.614 490 364.614 490 414.807 444.929 c 128,-1,12
 465 399.857 465 399.857 465 308 c 2,13,-1
 465 0 l 1,14,-1
 397 0 l 1,15,-1
 389 80 l 1,16,17
 345 -11 345 -11 230 -11 c 0,18,19
 152.756 -11 152.756 -11 106.378 32.2159 c 128,-1,20
 60 75.4318 60 75.4318 60 139.066 c 128,-1,21
 60 202.7 60 202.7 111.643 238.85 c 128,-1,22
 163.286 275 163.286 275 240.143 275 c 128,-1,23
 317 275 317 275 387 249 c 1,24,-1
 387 310 l 2,0,1
387 199 m 1,25,26
 315.889 219 315.889 219 262.944 219 c 128,-1,27
 210 219 210 219 177 200 c 128,-1,28
 144 181 144 181 144 140 c 0,29,30
 144 50 144 50 246 50 c 0,31,32
 303.474 50 303.474 50 344.275 89.755 c 128,-1,33
 385.076 129.51 385.076 129.51 387 193 c 1,34,-1
 387 199 l 1,25,26
415 661 m 1,35,-1
 171 548 l 1,36,-1
 148 598 l 1,37,-1
 383 731 l 1,38,-1
 415 661 l 1,35,-1
EndSplineSet
Validated: 1
EndChar

StartChar: Aacute
Encoding: 287 193 108
Width: 575
Flags: W
LayerCount: 2
Fore
SplineSet
242 629 m 1,0,-1
 338 629 l 1,1,-1
 549 0 l 1,2,-1
 467 0 l 1,3,-1
 413 160 l 1,4,-1
 163 160 l 1,5,-1
 109 0 l 1,6,-1
 26 0 l 1,7,-1
 242 629 l 1,0,-1
184 222 m 1,8,-1
 393 222 l 1,9,-1
 289 532 l 1,10,-1
 184 222 l 1,8,-1
423 790 m 1,11,-1
 179 677 l 1,12,-1
 156 727 l 1,13,-1
 391 860 l 1,14,-1
 423 790 l 1,11,-1
EndSplineSet
Validated: 1
EndChar

StartChar: Igrave
Encoding: 289 204 110
Width: 280
Flags: W
LayerCount: 2
Fore
SplineSet
101 629 m 1,0,-1
 180 629 l 1,1,-1
 180 0 l 1,2,-1
 101 0 l 1,3,-1
 101 629 l 1,0,-1
40 860 m 1,4,-1
 275 727 l 1,5,-1
 252 677 l 1,6,-1
 7 790 l 1,7,-1
 40 860 l 1,4,-1
EndSplineSet
Validated: 1
EndChar

StartChar: Ograve
Encoding: 291 210 112
Width: 646
Flags: W
LayerCount: 2
Fore
SplineSet
323 640 m 0,0,1
 445.049 640 445.049 640 520.525 556.253 c 128,-1,2
 596 472.507 596 472.507 596 313.219 c 128,-1,3
 596 153.932 596 153.932 520.75 71.4658 c 128,-1,4
 445.5 -11 445.5 -11 323 -11 c 0,5,6
 199.556 -11 199.556 -11 125.278 72.5625 c 128,-1,7
 51 156.125 51 156.125 51 314 c 0,8,9
 51 472.875 51 472.875 125.278 556.438 c 128,-1,10
 199.556 640 199.556 640 323 640 c 0,0,1
323 569 m 128,-1,12
 235 569 235 569 184 503 c 128,-1,13
 133 437 133 437 133 313 c 128,-1,14
 133 189 133 189 184 125 c 128,-1,15
 235 61 235 61 323 61 c 128,-1,16
 411 61 411 61 462.5 125 c 128,-1,17
 514 189 514 189 514 313 c 128,-1,18
 514 437 514 437 462.5 503 c 128,-1,11
 411 569 411 569 323 569 c 128,-1,12
223 860 m 1,19,-1
 458 727 l 1,20,-1
 435 677 l 1,21,-1
 190 790 l 1,22,-1
 223 860 l 1,19,-1
EndSplineSet
Validated: 1
EndChar

StartChar: Ugrave
Encoding: 293 217 114
Width: 654
Flags: W
LayerCount: 2
Fore
SplineSet
166 629 m 1,0,-1
 166 227 l 2,1,2
 166 139 166 139 210 100 c 128,-1,3
 254 61 254 61 326 61 c 128,-1,4
 398 61 398 61 442 100 c 128,-1,5
 486 139 486 139 486 227 c 2,6,-1
 486 629 l 1,7,-1
 565 629 l 1,8,-1
 565 227 l 2,9,10
 565 109 565 109 500 49 c 128,-1,11
 435 -11 435 -11 325.5 -11 c 128,-1,12
 216 -11 216 -11 151.5 49 c 128,-1,13
 87 109 87 109 87 227 c 2,14,-1
 87 629 l 1,15,-1
 166 629 l 1,0,-1
226 860 m 1,16,-1
 461 727 l 1,17,-1
 438 677 l 1,18,-1
 193 790 l 1,19,-1
 226 860 l 1,16,-1
EndSplineSet
Validated: 1
EndChar

StartChar: circumflex
Encoding: 295 710 116
Width: 407
Flags: W
LayerCount: 2
Fore
SplineSet
383 716 m 1,0,-1
 333 677 l 1,1,-1
 204 785 l 1,2,-1
 74 677 l 1,3,-1
 24 716 l 1,4,-1
 204 872 l 1,5,-1
 383 716 l 1,0,-1
EndSplineSet
Validated: 1
EndChar

StartChar: acircumflex
Encoding: 296 226 117
Width: 551
Flags: W
LayerCount: 2
Fore
SplineSet
387 310 m 2,0,1
 387 375 387 375 360 403 c 128,-1,2
 333 431 333 431 281.5 431 c 128,-1,3
 230 431 230 431 198.5 410.5 c 128,-1,4
 167 390 167 390 167 346 c 1,5,-1
 80 346 l 1,6,7
 80 455.778 80 455.778 198 482 c 0,8,9
 234 490 234 490 276.5 490 c 0,10,11
 364.614 490 364.614 490 414.807 444.929 c 128,-1,12
 465 399.857 465 399.857 465 308 c 2,13,-1
 465 0 l 1,14,-1
 397 0 l 1,15,-1
 389 80 l 1,16,17
 345 -11 345 -11 230 -11 c 0,18,19
 152.756 -11 152.756 -11 106.378 32.2159 c 128,-1,20
 60 75.4318 60 75.4318 60 139.066 c 128,-1,21
 60 202.7 60 202.7 111.643 238.85 c 128,-1,22
 163.286 275 163.286 275 240.143 275 c 128,-1,23
 317 275 317 275 387 249 c 1,24,-1
 387 310 l 2,0,1
387 199 m 1,25,26
 315.889 219 315.889 219 262.944 219 c 128,-1,27
 210 219 210 219 177 200 c 128,-1,28
 144 181 144 181 144 140 c 0,29,30
 144 50 144 50 246 50 c 0,31,32
 304 50 304 50 345.5 91.5 c 128,-1,33
 387 133 387 133 387 199 c 1,25,26
461 587 m 1,34,-1
 411 548 l 1,35,-1
 282 656 l 1,36,-1
 152 548 l 1,37,-1
 102 587 l 1,38,-1
 282 743 l 1,39,-1
 461 587 l 1,34,-1
EndSplineSet
Validated: 1
EndChar

StartChar: ecircumflex
Encoding: 297 234 118
Width: 514
Flags: W
LayerCount: 2
Fore
SplineSet
270 53 m 0,0,1
 369.159 53 369.159 53 383 140 c 1,2,-1
 464 140 l 1,3,4
 453 68 453 68 400.5 28.5 c 128,-1,5
 348 -11 348 -11 270 -11 c 0,6,7
 173.815 -11 173.815 -11 113.908 57.3158 c 128,-1,8
 54 125.632 54 125.632 54 239.885 c 128,-1,9
 54 354.138 54 354.138 114.615 422.069 c 128,-1,10
 175.231 490 175.231 490 275.642 490 c 128,-1,11
 376.054 490 376.054 490 425.453 412.223 c 128,-1,12
 474.851 334.447 474.851 334.447 460 222 c 1,13,-1
 133 222 l 1,14,15
 133 147.824 133 147.824 168.822 100.412 c 128,-1,16
 204.644 53 204.644 53 270 53 c 0,0,1
327.5 415 m 0,17,18
 305 427 305 427 272.5 427 c 0,19,20
 210.55 427 210.55 427 175.388 385.633 c 128,-1,21
 140.227 344.267 140.227 344.267 134 282 c 1,22,-1
 389 282 l 1,23,24
 389 382.2 389 382.2 327.5 415 c 0,17,18
442 592 m 1,25,-1
 392 553 l 1,26,-1
 263 661 l 1,27,-1
 133 553 l 1,28,-1
 83 592 l 1,29,-1
 263 748 l 1,30,-1
 442 592 l 1,25,-1
EndSplineSet
Validated: 33
EndChar

StartChar: ocircumflex
Encoding: 298 244 119
Width: 547
Flags: W
LayerCount: 2
Fore
SplineSet
274 490 m 128,-1,1
 373.524 490 373.524 490 435.262 425.175 c 128,-1,2
 497 360.35 497 360.35 497 239 c 0,3,4
 497 118.65 497 118.65 435.262 53.825 c 128,-1,5
 373.524 -11 373.524 -11 274 -11 c 128,-1,6
 174.476 -11 174.476 -11 112.738 53.825 c 128,-1,7
 51 118.65 51 118.65 51 239 c 0,8,9
 51 360.35 51 360.35 112.738 425.175 c 128,-1,0
 174.476 490 174.476 490 274 490 c 128,-1,1
381 373.5 m 128,-1,11
 345 422 345 422 275.5 422 c 128,-1,12
 206 422 206 422 169 373.5 c 128,-1,13
 132 325 132 325 132 239.5 c 128,-1,14
 132 154 132 154 167 105.5 c 128,-1,15
 202 57 202 57 271.5 57 c 128,-1,16
 341 57 341 57 379 105.5 c 128,-1,17
 417 154 417 154 417 239.5 c 128,-1,10
 417 325 417 325 381 373.5 c 128,-1,11
453 587 m 1,18,-1
 403 548 l 1,19,-1
 274 656 l 1,20,-1
 144 548 l 1,21,-1
 94 587 l 1,22,-1
 274 743 l 1,23,-1
 453 587 l 1,18,-1
EndSplineSet
Validated: 1
EndChar

StartChar: ucircumflex
Encoding: 299 251 120
Width: 606
Flags: W
LayerCount: 2
Fore
SplineSet
426 95 m 1,0,1
 377.059 -9 377.059 -9 267 -9 c 0,2,3
 186 -9 186 -9 136.5 36 c 128,-1,4
 87 81 87 81 87 175 c 2,5,-1
 87 479 l 1,6,-1
 166 479 l 1,7,-1
 166 181 l 2,8,9
 166 60 166 60 278 60 c 0,10,11
 342.875 60 342.875 60 383.5 110 c 128,-1,12
 423.996 159.841 423.996 159.841 426 238 c 1,13,-1
 426 479 l 1,14,-1
 505 479 l 1,15,-1
 505 0 l 1,16,-1
 426 0 l 1,17,-1
 426 95 l 1,0,1
480 625 m 1,18,-1
 430 586 l 1,19,-1
 301 694 l 1,20,-1
 171 586 l 1,21,-1
 121 625 l 1,22,-1
 301 781 l 1,23,-1
 480 625 l 1,18,-1
EndSplineSet
Validated: 1
EndChar

StartChar: Acircumflex
Encoding: 300 194 121
Width: 575
Flags: W
LayerCount: 2
Fore
SplineSet
242 629 m 1,0,-1
 338 629 l 1,1,-1
 549 0 l 1,2,-1
 467 0 l 1,3,-1
 413 160 l 1,4,-1
 163 160 l 1,5,-1
 109 0 l 1,6,-1
 26 0 l 1,7,-1
 242 629 l 1,0,-1
184 222 m 1,8,-1
 393 222 l 1,9,-1
 289 532 l 1,10,-1
 184 222 l 1,8,-1
469 716 m 1,11,-1
 419 677 l 1,12,-1
 290 785 l 1,13,-1
 160 677 l 1,14,-1
 110 716 l 1,15,-1
 290 872 l 1,16,-1
 469 716 l 1,11,-1
EndSplineSet
Validated: 1
EndChar

StartChar: Ecircumflex
Encoding: 301 202 122
Width: 564
Flags: W
LayerCount: 2
Fore
SplineSet
105 629 m 1,0,-1
 492 629 l 1,1,-1
 492 561 l 1,2,-1
 184 561 l 1,3,-1
 184 350 l 1,4,-1
 474 350 l 1,5,-1
 474 283 l 1,6,-1
 184 283 l 1,7,-1
 184 69 l 1,8,-1
 492 69 l 1,9,-1
 492 0 l 1,10,-1
 105 0 l 1,11,-1
 105 629 l 1,0,-1
479 716 m 1,12,-1
 429 677 l 1,13,-1
 300 785 l 1,14,-1
 170 677 l 1,15,-1
 120 716 l 1,16,-1
 300 872 l 1,17,-1
 479 716 l 1,12,-1
EndSplineSet
Validated: 1
EndChar

StartChar: Icircumflex
Encoding: 302 206 123
Width: 280
Flags: W
LayerCount: 2
Fore
SplineSet
101 629 m 1,0,-1
 180 629 l 1,1,-1
 180 0 l 1,2,-1
 101 0 l 1,3,-1
 101 629 l 1,0,-1
320 716 m 1,4,-1
 270 677 l 1,5,-1
 141 785 l 1,6,-1
 11 677 l 1,7,-1
 -39 716 l 1,8,-1
 141 872 l 1,9,-1
 320 716 l 1,4,-1
EndSplineSet
Validated: 1
EndChar

StartChar: Ocircumflex
Encoding: 303 212 124
Width: 646
Flags: W
LayerCount: 2
Fore
SplineSet
323 640 m 0,0,1
 445.049 640 445.049 640 520.525 556.253 c 128,-1,2
 596 472.507 596 472.507 596 313.219 c 128,-1,3
 596 153.932 596 153.932 520.75 71.4658 c 128,-1,4
 445.5 -11 445.5 -11 323 -11 c 0,5,6
 199.556 -11 199.556 -11 125.278 72.5625 c 128,-1,7
 51 156.125 51 156.125 51 314 c 0,8,9
 51 472.875 51 472.875 125.278 556.438 c 128,-1,10
 199.556 640 199.556 640 323 640 c 0,0,1
323 569 m 128,-1,12
 235 569 235 569 184 503 c 128,-1,13
 133 437 133 437 133 313 c 128,-1,14
 133 189 133 189 184 125 c 128,-1,15
 235 61 235 61 323 61 c 128,-1,16
 411 61 411 61 462.5 125 c 128,-1,17
 514 189 514 189 514 313 c 128,-1,18
 514 437 514 437 462.5 503 c 128,-1,11
 411 569 411 569 323 569 c 128,-1,12
502 716 m 1,19,-1
 452 677 l 1,20,-1
 323 785 l 1,21,-1
 193 677 l 1,22,-1
 143 716 l 1,23,-1
 323 872 l 1,24,-1
 502 716 l 1,19,-1
EndSplineSet
Validated: 1
EndChar

StartChar: Ucircumflex
Encoding: 304 219 125
Width: 654
Flags: W
LayerCount: 2
Fore
SplineSet
166 629 m 1,0,-1
 166 227 l 2,1,2
 166 139 166 139 210 100 c 128,-1,3
 254 61 254 61 326 61 c 128,-1,4
 398 61 398 61 442 100 c 128,-1,5
 486 139 486 139 486 227 c 2,6,-1
 486 629 l 1,7,-1
 565 629 l 1,8,-1
 565 227 l 2,9,10
 565 109 565 109 500 49 c 128,-1,11
 435 -11 435 -11 325.5 -11 c 128,-1,12
 216 -11 216 -11 151.5 49 c 128,-1,13
 87 109 87 109 87 227 c 2,14,-1
 87 629 l 1,15,-1
 166 629 l 1,0,-1
505 716 m 1,16,-1
 455 677 l 1,17,-1
 326 785 l 1,18,-1
 196 677 l 1,19,-1
 146 716 l 1,20,-1
 326 872 l 1,21,-1
 505 716 l 1,16,-1
EndSplineSet
Validated: 1
EndChar

StartChar: tilde
Encoding: 305 732 126
Width: 366
Flags: W
LayerCount: 2
Fore
SplineSet
112 770 m 0,0,1
 79.6207 770 79.6207 770 55 719 c 1,2,-1
 23 738 l 1,3,4
 35 789 35 789 58 815.5 c 128,-1,5
 81 842 81 842 107 842 c 128,-1,6
 133 842 133 842 166.5 825 c 0,7,8
 212.676 801.568 212.676 801.568 226.171 795.784 c 128,-1,9
 239.667 790 239.667 790 252.833 790 c 128,-1,10
 266 790 266 790 280 802.5 c 128,-1,11
 294 815 294 815 304 842 c 1,12,-1
 339 819 l 1,13,14
 328 771 328 771 303.5 745 c 128,-1,15
 279 719 279 719 258.5 719 c 128,-1,16
 238 719 238 719 221 725 c 128,-1,17
 204 731 204 731 174 746.5 c 128,-1,18
 144 762 144 762 133.5 766 c 128,-1,19
 123 770 123 770 112 770 c 0,0,1
EndSplineSet
Validated: 1
EndChar

StartChar: ampersand
Encoding: 38 38 127
Width: 916
Flags: W
LayerCount: 2
Fore
SplineSet
725 350 m 1,0,1
 680.152 213.32 680.152 213.32 610 128 c 1,2,-1
 653 91 l 2,3,4
 673 74 673 74 688.5 66 c 128,-1,5
 704 58 704 58 728.5 58 c 128,-1,6
 753 58 753 58 772.5 76.5 c 128,-1,7
 792 95 792 95 795 140 c 1,8,-1
 869 140 l 1,9,10
 865 68 865 68 831.5 28.5 c 128,-1,11
 798 -11 798 -11 734 -11 c 0,12,13
 695 -11 695 -11 662 5 c 128,-1,14
 629 21 629 21 590 56 c 1,15,-1
 564 78 l 1,16,17
 464.405 -11 464.405 -11 336 -11 c 0,18,19
 231.061 -11 231.061 -11 160.031 41.7348 c 128,-1,20
 89 94.4697 89 94.4697 89 168.235 c 128,-1,21
 89 242 89 242 136.5 279.5 c 128,-1,22
 184 317 184 317 276 332 c 1,23,-1
 262 345 l 1,24,25
 185 411.595 185 411.595 185 492 c 0,26,27
 185 555.4 185 555.4 237.25 597.2 c 128,-1,28
 289.5 639 289.5 639 376.096 639 c 128,-1,29
 462.692 639 462.692 639 514.346 597.031 c 128,-1,30
 566 555.062 566 555.062 566 495.531 c 128,-1,31
 566 436 566 436 527 393 c 128,-1,32
 488 350 488 350 400 312 c 1,33,-1
 558 173 l 1,34,35
 626.19 254.828 626.19 254.828 670 380 c 1,36,-1
 725 350 l 1,0,1
211.5 251 m 128,-1,38
 175 224 175 224 175 176 c 128,-1,39
 175 128 175 128 216.5 93.5 c 128,-1,40
 258 59 258 59 344.048 59 c 128,-1,41
 430.097 59 430.097 59 511 125 c 1,42,-1
 325 288 l 1,43,37
 248 278 248 278 211.5 251 c 128,-1,38
480 488 m 0,44,45
 480 524 480 524 452.5 548 c 128,-1,46
 425 572 425 572 375.5 572 c 128,-1,47
 326 572 326 572 298.5 544.5 c 128,-1,48
 271 517 271 517 271 485 c 128,-1,49
 271 453 271 453 284 428 c 128,-1,50
 297 403 297 403 327 377 c 1,51,-1
 354 352 l 1,52,53
 457.538 399.571 457.538 399.571 474.5 452 c 0,54,55
 480 469 480 469 480 488 c 0,44,45
EndSplineSet
Validated: 1
EndChar

StartChar: at
Encoding: 64 64 128
Width: 940
Flags: W
LayerCount: 2
Fore
SplineSet
575 289 m 2,0,1
 575 373 575 373 515.5 373 c 0,2,3
 457.455 373 457.455 373 410.227 324.674 c 128,-1,4
 363 276.349 363 276.349 363 202 c 0,5,6
 363 149 363 149 390.5 120 c 128,-1,7
 418 91 418 91 459 91 c 128,-1,8
 500 91 500 91 526 114.5 c 128,-1,9
 552 138 552 138 575 183 c 1,10,-1
 575 289 l 2,0,1
641 138 m 2,11,12
 641 87 641 87 680 87 c 0,13,14
 700 87 700 87 723.5 100.5 c 128,-1,15
 747 114 747 114 766.5 140 c 0,16,17
 812 200.667 812 200.667 812 296 c 0,18,19
 812 415.103 812 415.103 730.892 492.051 c 128,-1,20
 649.784 569 649.784 569 511 569 c 0,21,22
 429 569 429 569 362 541 c 128,-1,23
 295 513 295 513 247.5 465.5 c 0,24,25
 148 366 148 366 148 216.995 c 128,-1,26
 148 67.9902 148 67.9902 254 -24.5 c 128,-1,27
 360.011 -117 360.011 -117 545 -117 c 1,28,-1
 545 -181 l 1,29,30
 332.167 -181 332.167 -181 198 -66 c 0,31,32
 135 -12 135 -12 101 62.5 c 128,-1,33
 67 137 67 137 67 226 c 128,-1,34
 67 315 67 315 100 391 c 128,-1,35
 133 467 133 467 192 522.5 c 128,-1,36
 251 578 251 578 332.5 609 c 128,-1,37
 414 640 414 640 505 640 c 128,-1,38
 596 640 596 640 667 613 c 128,-1,39
 738 586 738 586 788 539.5 c 128,-1,40
 838 493 838 493 866 430 c 128,-1,41
 894 367 894 367 894 300.5 c 0,42,43
 894 178.167 894 178.167 829.643 103.083 c 128,-1,44
 765.286 28 765.286 28 679 28 c 0,45,46
 636 28 636 28 610 46 c 128,-1,47
 584 64 584 64 579 98 c 1,48,-1
 576 114 l 1,49,50
 558 76 558 76 528 52 c 128,-1,51
 498 28 498 28 457.5 28 c 0,52,53
 384.444 28 384.444 28 336.722 76.8068 c 128,-1,54
 289 125.614 289 125.614 289 201 c 0,55,56
 289 300.419 289 300.419 355.222 367.71 c 128,-1,57
 421.444 435 421.444 435 512 435 c 0,58,59
 572 435 572 435 606.5 399 c 128,-1,60
 641 363 641 363 641 290 c 2,61,-1
 641 138 l 2,11,12
EndSplineSet
Validated: 1
EndChar

StartChar: dieresis
Encoding: 306 168 129
Width: 323
Flags: W
LayerCount: 2
Fore
SplineSet
38.5 793.5 m 128,-1,1
 24 808 24 808 24 829 c 128,-1,2
 24 850 24 850 38.5 864.5 c 128,-1,3
 53 879 53 879 76 879 c 128,-1,4
 99 879 99 879 114.5 864.5 c 128,-1,5
 130 850 130 850 130 829 c 128,-1,6
 130 808 130 808 114.5 793.5 c 128,-1,7
 99 779 99 779 76 779 c 128,-1,0
 53 779 53 779 38.5 793.5 c 128,-1,1
207 793.5 m 128,-1,9
 192 808 192 808 192 829 c 128,-1,10
 192 850 192 850 207 864.5 c 128,-1,11
 222 879 222 879 244.5 879 c 128,-1,12
 267 879 267 879 282.5 864.5 c 128,-1,13
 298 850 298 850 298 829 c 128,-1,14
 298 808 298 808 282.5 793.5 c 128,-1,15
 267 779 267 779 244.5 779 c 128,-1,8
 222 779 222 779 207 793.5 c 128,-1,9
EndSplineSet
Validated: 1
EndChar

StartChar: adieresis
Encoding: 307 228 130
Width: 551
Flags: W
LayerCount: 2
Fore
SplineSet
387 310 m 2,0,1
 387 375 387 375 360 403 c 128,-1,2
 333 431 333 431 281.5 431 c 128,-1,3
 230 431 230 431 198.5 410.5 c 128,-1,4
 167 390 167 390 167 346 c 1,5,-1
 80 346 l 1,6,7
 80 455.778 80 455.778 198 482 c 0,8,9
 234 490 234 490 276.5 490 c 0,10,11
 364.614 490 364.614 490 414.807 444.929 c 128,-1,12
 465 399.857 465 399.857 465 308 c 2,13,-1
 465 0 l 1,14,-1
 397 0 l 1,15,-1
 389 80 l 1,16,17
 345 -11 345 -11 230 -11 c 0,18,19
 152.756 -11 152.756 -11 106.378 32.2159 c 128,-1,20
 60 75.4318 60 75.4318 60 139.066 c 128,-1,21
 60 202.7 60 202.7 111.643 238.85 c 128,-1,22
 163.286 275 163.286 275 240.143 275 c 128,-1,23
 317 275 317 275 387 249 c 1,24,-1
 387 310 l 2,0,1
387 199 m 1,25,26
 315.889 219 315.889 219 262.944 219 c 128,-1,27
 210 219 210 219 177 200 c 128,-1,28
 144 181 144 181 144 140 c 0,29,30
 144 50 144 50 246 50 c 0,31,32
 304 50 304 50 345.5 91.5 c 128,-1,33
 387 133 387 133 387 199 c 1,25,26
159.5 619.5 m 128,-1,35
 145 634 145 634 145 655 c 128,-1,36
 145 676 145 676 159.5 690.5 c 128,-1,37
 174 705 174 705 197 705 c 128,-1,38
 220 705 220 705 235.5 690.5 c 128,-1,39
 251 676 251 676 251 655 c 128,-1,40
 251 634 251 634 235.5 619.5 c 128,-1,41
 220 605 220 605 197 605 c 128,-1,34
 174 605 174 605 159.5 619.5 c 128,-1,35
328 619.5 m 128,-1,43
 313 634 313 634 313 655 c 128,-1,44
 313 676 313 676 328 690.5 c 128,-1,45
 343 705 343 705 365.5 705 c 128,-1,46
 388 705 388 705 403.5 690.5 c 128,-1,47
 419 676 419 676 419 655 c 128,-1,48
 419 634 419 634 403.5 619.5 c 128,-1,49
 388 605 388 605 365.5 605 c 128,-1,42
 343 605 343 605 328 619.5 c 128,-1,43
EndSplineSet
Validated: 1
EndChar

StartChar: edieresis
Encoding: 308 235 131
Width: 514
Flags: W
LayerCount: 2
Fore
SplineSet
267 53 m 0,0,1
 366.159 53 366.159 53 380 140 c 1,2,-1
 461 140 l 1,3,4
 450 68 450 68 397.5 28.5 c 128,-1,5
 345 -11 345 -11 267 -11 c 0,6,7
 170.815 -11 170.815 -11 110.908 57.3158 c 128,-1,8
 51 125.632 51 125.632 51 239.885 c 128,-1,9
 51 354.138 51 354.138 111.615 422.069 c 128,-1,10
 172.231 490 172.231 490 272.642 490 c 128,-1,11
 373.054 490 373.054 490 422.453 412.223 c 128,-1,12
 471.851 334.447 471.851 334.447 457 222 c 1,13,-1
 130 222 l 1,14,15
 130 147.824 130 147.824 165.822 100.412 c 128,-1,16
 201.644 53 201.644 53 267 53 c 0,0,1
324.5 415 m 0,17,18
 302 427 302 427 269.5 427 c 0,19,20
 207.55 427 207.55 427 172.388 385.633 c 128,-1,21
 137.227 344.267 137.227 344.267 131 282 c 1,22,-1
 386 282 l 1,23,24
 386 382.2 386 382.2 324.5 415 c 0,17,18
137.5 619.5 m 128,-1,26
 123 634 123 634 123 655 c 128,-1,27
 123 676 123 676 137.5 690.5 c 128,-1,28
 152 705 152 705 175 705 c 128,-1,29
 198 705 198 705 213.5 690.5 c 128,-1,30
 229 676 229 676 229 655 c 128,-1,31
 229 634 229 634 213.5 619.5 c 128,-1,32
 198 605 198 605 175 605 c 128,-1,25
 152 605 152 605 137.5 619.5 c 128,-1,26
306 619.5 m 128,-1,34
 291 634 291 634 291 655 c 128,-1,35
 291 676 291 676 306 690.5 c 128,-1,36
 321 705 321 705 343.5 705 c 128,-1,37
 366 705 366 705 381.5 690.5 c 128,-1,38
 397 676 397 676 397 655 c 128,-1,39
 397 634 397 634 381.5 619.5 c 128,-1,40
 366 605 366 605 343.5 605 c 128,-1,33
 321 605 321 605 306 619.5 c 128,-1,34
EndSplineSet
Validated: 33
EndChar

StartChar: odieresis
Encoding: 309 246 132
Width: 547
Flags: W
LayerCount: 2
Fore
SplineSet
274 490 m 128,-1,1
 373.524 490 373.524 490 435.262 425.175 c 128,-1,2
 497 360.35 497 360.35 497 239 c 0,3,4
 497 118.65 497 118.65 435.262 53.825 c 128,-1,5
 373.524 -11 373.524 -11 274 -11 c 128,-1,6
 174.476 -11 174.476 -11 112.738 53.825 c 128,-1,7
 51 118.65 51 118.65 51 239 c 0,8,9
 51 360.35 51 360.35 112.738 425.175 c 128,-1,0
 174.476 490 174.476 490 274 490 c 128,-1,1
381 373.5 m 128,-1,11
 345 422 345 422 275.5 422 c 128,-1,12
 206 422 206 422 169 373.5 c 128,-1,13
 132 325 132 325 132 239.5 c 128,-1,14
 132 154 132 154 167 105.5 c 128,-1,15
 202 57 202 57 271.5 57 c 128,-1,16
 341 57 341 57 379 105.5 c 128,-1,17
 417 154 417 154 417 239.5 c 128,-1,10
 417 325 417 325 381 373.5 c 128,-1,11
152.5 619.5 m 128,-1,19
 138 634 138 634 138 655 c 128,-1,20
 138 676 138 676 152.5 690.5 c 128,-1,21
 167 705 167 705 190 705 c 128,-1,22
 213 705 213 705 228.5 690.5 c 128,-1,23
 244 676 244 676 244 655 c 128,-1,24
 244 634 244 634 228.5 619.5 c 128,-1,25
 213 605 213 605 190 605 c 128,-1,18
 167 605 167 605 152.5 619.5 c 128,-1,19
321 619.5 m 128,-1,27
 306 634 306 634 306 655 c 128,-1,28
 306 676 306 676 321 690.5 c 128,-1,29
 336 705 336 705 358.5 705 c 128,-1,30
 381 705 381 705 396.5 690.5 c 128,-1,31
 412 676 412 676 412 655 c 128,-1,32
 412 634 412 634 396.5 619.5 c 128,-1,33
 381 605 381 605 358.5 605 c 128,-1,26
 336 605 336 605 321 619.5 c 128,-1,27
EndSplineSet
Validated: 1
EndChar

StartChar: udieresis
Encoding: 310 252 133
Width: 606
Flags: W
LayerCount: 2
Fore
SplineSet
426 95 m 1,0,1
 377.059 -9 377.059 -9 267 -9 c 0,2,3
 186 -9 186 -9 136.5 36 c 128,-1,4
 87 81 87 81 87 175 c 2,5,-1
 87 479 l 1,6,-1
 166 479 l 1,7,-1
 166 181 l 2,8,9
 166 60 166 60 278 60 c 0,10,11
 342.875 60 342.875 60 383.5 110 c 128,-1,12
 423.996 159.841 423.996 159.841 426 238 c 1,13,-1
 426 479 l 1,14,-1
 505 479 l 1,15,-1
 505 0 l 1,16,-1
 426 0 l 1,17,-1
 426 95 l 1,0,1
178.5 619.5 m 128,-1,19
 164 634 164 634 164 655 c 128,-1,20
 164 676 164 676 178.5 690.5 c 128,-1,21
 193 705 193 705 216 705 c 128,-1,22
 239 705 239 705 254.5 690.5 c 128,-1,23
 270 676 270 676 270 655 c 128,-1,24
 270 634 270 634 254.5 619.5 c 128,-1,25
 239 605 239 605 216 605 c 128,-1,18
 193 605 193 605 178.5 619.5 c 128,-1,19
347 619.5 m 128,-1,27
 332 634 332 634 332 655 c 128,-1,28
 332 676 332 676 347 690.5 c 128,-1,29
 362 705 362 705 384.5 705 c 128,-1,30
 407 705 407 705 422.5 690.5 c 128,-1,31
 438 676 438 676 438 655 c 128,-1,32
 438 634 438 634 422.5 619.5 c 128,-1,33
 407 605 407 605 384.5 605 c 128,-1,26
 362 605 362 605 347 619.5 c 128,-1,27
EndSplineSet
Validated: 1
EndChar

StartChar: Adieresis
Encoding: 311 196 134
Width: 575
Flags: W
LayerCount: 2
Fore
SplineSet
242 629 m 1,0,-1
 338 629 l 1,1,-1
 549 0 l 1,2,-1
 467 0 l 1,3,-1
 413 160 l 1,4,-1
 163 160 l 1,5,-1
 109 0 l 1,6,-1
 26 0 l 1,7,-1
 242 629 l 1,0,-1
184 222 m 1,8,-1
 393 222 l 1,9,-1
 289 532 l 1,10,-1
 184 222 l 1,8,-1
188.5 749.5 m 128,-1,12
 174 764 174 764 174 785 c 128,-1,13
 174 806 174 806 188.5 820.5 c 128,-1,14
 203 835 203 835 226 835 c 128,-1,15
 249 835 249 835 264.5 820.5 c 128,-1,16
 280 806 280 806 280 785 c 128,-1,17
 280 764 280 764 264.5 749.5 c 128,-1,18
 249 735 249 735 226 735 c 128,-1,11
 203 735 203 735 188.5 749.5 c 128,-1,12
357 749.5 m 128,-1,20
 342 764 342 764 342 785 c 128,-1,21
 342 806 342 806 357 820.5 c 128,-1,22
 372 835 372 835 394.5 835 c 128,-1,23
 417 835 417 835 432.5 820.5 c 128,-1,24
 448 806 448 806 448 785 c 128,-1,25
 448 764 448 764 432.5 749.5 c 128,-1,26
 417 735 417 735 394.5 735 c 128,-1,19
 372 735 372 735 357 749.5 c 128,-1,20
EndSplineSet
Validated: 1
EndChar

StartChar: Edieresis
Encoding: 312 203 135
Width: 564
Flags: W
LayerCount: 2
Fore
SplineSet
100 629 m 1,0,-1
 487 629 l 1,1,-1
 487 561 l 1,2,-1
 179 561 l 1,3,-1
 179 350 l 1,4,-1
 469 350 l 1,5,-1
 469 283 l 1,6,-1
 179 283 l 1,7,-1
 179 69 l 1,8,-1
 487 69 l 1,9,-1
 487 0 l 1,10,-1
 100 0 l 1,11,-1
 100 629 l 1,0,-1
172.5 749.5 m 128,-1,13
 158 764 158 764 158 785 c 128,-1,14
 158 806 158 806 172.5 820.5 c 128,-1,15
 187 835 187 835 210 835 c 128,-1,16
 233 835 233 835 248.5 820.5 c 128,-1,17
 264 806 264 806 264 785 c 128,-1,18
 264 764 264 764 248.5 749.5 c 128,-1,19
 233 735 233 735 210 735 c 128,-1,12
 187 735 187 735 172.5 749.5 c 128,-1,13
341 749.5 m 128,-1,21
 326 764 326 764 326 785 c 128,-1,22
 326 806 326 806 341 820.5 c 128,-1,23
 356 835 356 835 378.5 835 c 128,-1,24
 401 835 401 835 416.5 820.5 c 128,-1,25
 432 806 432 806 432 785 c 128,-1,26
 432 764 432 764 416.5 749.5 c 128,-1,27
 401 735 401 735 378.5 735 c 128,-1,20
 356 735 356 735 341 749.5 c 128,-1,21
EndSplineSet
Validated: 1
EndChar

StartChar: Idieresis
Encoding: 313 207 136
Width: 280
Flags: W
LayerCount: 2
Fore
SplineSet
101 629 m 1,0,-1
 180 629 l 1,1,-1
 180 0 l 1,2,-1
 101 0 l 1,3,-1
 101 629 l 1,0,-1
18.5 749.5 m 128,-1,5
 4 764 4 764 4 785 c 128,-1,6
 4 806 4 806 18.5 820.5 c 128,-1,7
 33 835 33 835 56 835 c 128,-1,8
 79 835 79 835 94.5 820.5 c 128,-1,9
 110 806 110 806 110 785 c 128,-1,10
 110 764 110 764 94.5 749.5 c 128,-1,11
 79 735 79 735 56 735 c 128,-1,4
 33 735 33 735 18.5 749.5 c 128,-1,5
187 749.5 m 128,-1,13
 172 764 172 764 172 785 c 128,-1,14
 172 806 172 806 187 820.5 c 128,-1,15
 202 835 202 835 224.5 835 c 128,-1,16
 247 835 247 835 262.5 820.5 c 128,-1,17
 278 806 278 806 278 785 c 128,-1,18
 278 764 278 764 262.5 749.5 c 128,-1,19
 247 735 247 735 224.5 735 c 128,-1,12
 202 735 202 735 187 749.5 c 128,-1,13
EndSplineSet
Validated: 1
EndChar

StartChar: Odieresis
Encoding: 314 214 137
Width: 646
Flags: W
LayerCount: 2
Fore
SplineSet
323 640 m 0,0,1
 445.049 640 445.049 640 520.525 556.253 c 128,-1,2
 596 472.507 596 472.507 596 313.219 c 128,-1,3
 596 153.932 596 153.932 520.75 71.4658 c 128,-1,4
 445.5 -11 445.5 -11 323 -11 c 0,5,6
 199.556 -11 199.556 -11 125.278 72.5625 c 128,-1,7
 51 156.125 51 156.125 51 314 c 0,8,9
 51 472.875 51 472.875 125.278 556.438 c 128,-1,10
 199.556 640 199.556 640 323 640 c 0,0,1
323 569 m 128,-1,12
 235 569 235 569 184 503 c 128,-1,13
 133 437 133 437 133 313 c 128,-1,14
 133 189 133 189 184 125 c 128,-1,15
 235 61 235 61 323 61 c 128,-1,16
 411 61 411 61 462.5 125 c 128,-1,17
 514 189 514 189 514 313 c 128,-1,18
 514 437 514 437 462.5 503 c 128,-1,11
 411 569 411 569 323 569 c 128,-1,12
200.5 749.5 m 128,-1,20
 186 764 186 764 186 785 c 128,-1,21
 186 806 186 806 200.5 820.5 c 128,-1,22
 215 835 215 835 238 835 c 128,-1,23
 261 835 261 835 276.5 820.5 c 128,-1,24
 292 806 292 806 292 785 c 128,-1,25
 292 764 292 764 276.5 749.5 c 128,-1,26
 261 735 261 735 238 735 c 128,-1,19
 215 735 215 735 200.5 749.5 c 128,-1,20
369 749.5 m 128,-1,28
 354 764 354 764 354 785 c 128,-1,29
 354 806 354 806 369 820.5 c 128,-1,30
 384 835 384 835 406.5 835 c 128,-1,31
 429 835 429 835 444.5 820.5 c 128,-1,32
 460 806 460 806 460 785 c 128,-1,33
 460 764 460 764 444.5 749.5 c 128,-1,34
 429 735 429 735 406.5 735 c 128,-1,27
 384 735 384 735 369 749.5 c 128,-1,28
EndSplineSet
Validated: 1
EndChar

StartChar: Udieresis
Encoding: 315 220 138
Width: 654
Flags: W
LayerCount: 2
Fore
SplineSet
166 629 m 1,0,-1
 166 227 l 2,1,2
 166 139 166 139 210 100 c 128,-1,3
 254 61 254 61 326 61 c 128,-1,4
 398 61 398 61 442 100 c 128,-1,5
 486 139 486 139 486 227 c 2,6,-1
 486 629 l 1,7,-1
 565 629 l 1,8,-1
 565 227 l 2,9,10
 565 109 565 109 500 49 c 128,-1,11
 435 -11 435 -11 325.5 -11 c 128,-1,12
 216 -11 216 -11 151.5 49 c 128,-1,13
 87 109 87 109 87 227 c 2,14,-1
 87 629 l 1,15,-1
 166 629 l 1,0,-1
203.5 749.5 m 128,-1,17
 189 764 189 764 189 785 c 128,-1,18
 189 806 189 806 203.5 820.5 c 128,-1,19
 218 835 218 835 241 835 c 128,-1,20
 264 835 264 835 279.5 820.5 c 128,-1,21
 295 806 295 806 295 785 c 128,-1,22
 295 764 295 764 279.5 749.5 c 128,-1,23
 264 735 264 735 241 735 c 128,-1,16
 218 735 218 735 203.5 749.5 c 128,-1,17
372 749.5 m 128,-1,25
 357 764 357 764 357 785 c 128,-1,26
 357 806 357 806 372 820.5 c 128,-1,27
 387 835 387 835 409.5 835 c 128,-1,28
 432 835 432 835 447.5 820.5 c 128,-1,29
 463 806 463 806 463 785 c 128,-1,30
 463 764 463 764 447.5 749.5 c 128,-1,31
 432 735 432 735 409.5 735 c 128,-1,24
 387 735 387 735 372 749.5 c 128,-1,25
EndSplineSet
Validated: 1
EndChar

StartChar: dotlessi
Encoding: 316 305 139
Width: 280
Flags: W
LayerCount: 2
Fore
SplineSet
101 479 m 1,0,-1
 180 479 l 1,1,-1
 180 0 l 1,2,-1
 101 0 l 1,3,-1
 101 479 l 1,0,-1
EndSplineSet
Validated: 1
EndChar

StartChar: igrave
Encoding: 317 236 140
Width: 299
Flags: W
LayerCount: 2
Fore
SplineSet
106 479 m 1,0,-1
 185 479 l 1,1,-1
 185 0 l 1,2,-1
 106 0 l 1,3,-1
 106 479 l 1,0,-1
45 731 m 1,4,-1
 280 598 l 1,5,-1
 257 548 l 1,6,-1
 12 661 l 1,7,-1
 45 731 l 1,4,-1
EndSplineSet
Validated: 1
EndChar

StartChar: icircumflex
Encoding: 319 238 142
Width: 299
Flags: W
LayerCount: 2
Fore
SplineSet
106 479 m 1,0,-1
 185 479 l 1,1,-1
 185 0 l 1,2,-1
 106 0 l 1,3,-1
 106 479 l 1,0,-1
325 587 m 1,4,-1
 275 548 l 1,5,-1
 146 656 l 1,6,-1
 16 548 l 1,7,-1
 -34 587 l 1,8,-1
 146 743 l 1,9,-1
 325 587 l 1,4,-1
EndSplineSet
Validated: 1
EndChar

StartChar: idieresis
Encoding: 320 239 143
Width: 299
Flags: W
LayerCount: 2
Fore
SplineSet
106 479 m 1,0,-1
 185 479 l 1,1,-1
 185 0 l 1,2,-1
 106 0 l 1,3,-1
 106 479 l 1,0,-1
23.5 619.5 m 128,-1,5
 9 634 9 634 9 655 c 128,-1,6
 9 676 9 676 23.5 690.5 c 128,-1,7
 38 705 38 705 61 705 c 128,-1,8
 84 705 84 705 99.5 690.5 c 128,-1,9
 115 676 115 676 115 655 c 128,-1,10
 115 634 115 634 99.5 619.5 c 128,-1,11
 84 605 84 605 61 605 c 128,-1,4
 38 605 38 605 23.5 619.5 c 128,-1,5
192 619.5 m 128,-1,13
 177 634 177 634 177 655 c 128,-1,14
 177 676 177 676 192 690.5 c 128,-1,15
 207 705 207 705 229.5 705 c 128,-1,16
 252 705 252 705 267.5 690.5 c 128,-1,17
 283 676 283 676 283 655 c 128,-1,18
 283 634 283 634 267.5 619.5 c 128,-1,19
 252 605 252 605 229.5 605 c 128,-1,12
 207 605 207 605 192 619.5 c 128,-1,13
EndSplineSet
Validated: 1
EndChar

StartChar: rupeesymbol
Encoding: 321 8377 144
Width: 581
Flags: W
LayerCount: 2
Fore
SplineSet
92 629 m 1,0,-1
 508 629 l 1,1,-1
 508 580 l 1,2,-1
 325 580 l 1,3,4
 394 544 394 544 409 477 c 1,5,-1
 508 477 l 1,6,-1
 508 429 l 1,7,-1
 414 429 l 1,8,9
 407.432 314.068 407.432 314.068 295 270.5 c 0,10,11
 255 255 255 255 200 250 c 1,12,-1
 474 0 l 1,13,-1
 362 0 l 1,14,-1
 92 248 l 1,15,-1
 92 296 l 1,16,-1
 153 296 l 2,17,18
 240 296 240 296 282 334 c 128,-1,19
 324 372 324 372 327 429 c 1,20,-1
 92 429 l 1,21,-1
 92 477 l 1,22,-1
 323 477 l 1,23,24
 312 523 312 523 270.5 551.5 c 128,-1,25
 229 580 229 580 153 580 c 2,26,-1
 92 580 l 1,27,-1
 92 629 l 1,0,-1
EndSplineSet
Validated: 1
EndChar

StartChar: less
Encoding: 60 60 145
Width: 454
Flags: W
LayerCount: 2
Fore
SplineSet
408 512 m 1,0,-1
 120 305 l 1,1,-1
 408 101 l 1,2,-1
 356 40 l 1,3,-1
 40 271 l 1,4,-1
 40 340 l 1,5,-1
 356 572 l 1,6,-1
 408 512 l 1,0,-1
EndSplineSet
Validated: 1
EndChar

StartChar: greater
Encoding: 62 62 146
Width: 454
Flags: W
LayerCount: 2
Fore
SplineSet
98 572 m 1,0,-1
 414 340 l 1,1,-1
 414 271 l 1,2,-1
 98 40 l 1,3,-1
 47 101 l 1,4,-1
 333 305 l 1,5,-1
 47 512 l 1,6,-1
 98 572 l 1,0,-1
EndSplineSet
Validated: 1
EndChar

StartChar: quotedbl
Encoding: 34 34 147
Width: 306
Flags: W
LayerCount: 2
Fore
SplineSet
110 681 m 1,0,-1
 99 461 l 1,1,-1
 39 461 l 1,2,-1
 28 681 l 1,3,-1
 110 681 l 1,0,-1
278 681 m 1,4,-1
 267 461 l 1,5,-1
 207 461 l 1,6,-1
 196 681 l 1,7,-1
 278 681 l 1,4,-1
EndSplineSet
Validated: 1
EndChar

StartChar: numbersign
Encoding: 35 35 148
Width: 627
Flags: W
LayerCount: 2
Fore
SplineSet
380 170 m 1,0,-1
 226 170 l 1,1,-1
 212 31 l 1,2,-1
 138 31 l 1,3,-1
 152 170 l 1,4,-1
 53 170 l 1,5,-1
 58 224 l 1,6,-1
 158 224 l 1,7,-1
 177 402 l 1,8,-1
 76 402 l 1,9,-1
 82 455 l 1,10,-1
 182 455 l 1,11,-1
 197 593 l 1,12,-1
 271 593 l 1,13,-1
 256 455 l 1,14,-1
 410 455 l 1,15,-1
 425 593 l 1,16,-1
 498 593 l 1,17,-1
 483 455 l 1,18,-1
 586 455 l 1,19,-1
 580 402 l 1,20,-1
 478 402 l 1,21,-1
 459 224 l 1,22,-1
 562 224 l 1,23,-1
 556 170 l 1,24,-1
 453 170 l 1,25,-1
 439 31 l 1,26,-1
 365 31 l 1,27,-1
 380 170 l 1,0,-1
232 224 m 1,28,-1
 385 224 l 1,29,-1
 404 402 l 1,30,-1
 251 402 l 1,31,-1
 232 224 l 1,28,-1
EndSplineSet
Validated: 1
EndChar

StartChar: asterisk
Encoding: 42 42 149
Width: 412
Flags: W
LayerCount: 2
Fore
SplineSet
173 516 m 1,0,-1
 56 556 l 1,1,-1
 80 610 l 1,2,-1
 186 556 l 1,3,-1
 176 684 l 1,4,-1
 238 684 l 1,5,-1
 228 556 l 1,6,-1
 334 610 l 1,7,-1
 358 556 l 1,8,-1
 242 516 l 1,9,-1
 332 427 l 1,10,-1
 288 388 l 1,11,-1
 208 492 l 1,12,-1
 128 388 l 1,13,-1
 83 427 l 1,14,-1
 173 516 l 1,0,-1
EndSplineSet
Validated: 1
EndChar

StartChar: slash
Encoding: 47 47 150
Width: 432
Flags: W
LayerCount: 2
Fore
SplineSet
308 731 m 1,0,-1
 388 731 l 1,1,-1
 136 -73 l 1,2,-1
 57 -73 l 1,3,-1
 308 731 l 1,0,-1
EndSplineSet
Validated: 1
EndChar

StartChar: percent
Encoding: 37 37 151
Width: 726
Flags: W
LayerCount: 2
Fore
SplineSet
279 602 m 128,-1,1
 317 564 317 564 317 496 c 128,-1,2
 317 428 317 428 279.5 390.5 c 128,-1,3
 241.993 353 241.993 353 188.236 353 c 128,-1,4
 134.493 353 134.493 353 97.75 390.8 c 128,-1,5
 61 428.6 61 428.6 61 496 c 128,-1,6
 61 563.4 61 563.4 98.2361 601.7 c 128,-1,7
 135.472 640 135.472 640 188.236 640 c 128,-1,0
 241 640 241 640 279 602 c 128,-1,1
235 565 m 128,-1,9
 217 587 217 587 188 587 c 128,-1,10
 159 587 159 587 141 565 c 128,-1,11
 123 543 123 543 123 496 c 128,-1,12
 123 449 123 449 141 428 c 128,-1,13
 159 407 159 407 188 407 c 128,-1,14
 217 407 217 407 235 428 c 128,-1,15
 253 449 253 449 253 496 c 128,-1,8
 253 543 253 543 235 565 c 128,-1,9
534 629 m 5,16,-1
 616 629 l 5,17,-1
 193 0 l 5,18,-1
 112 0 l 5,19,-1
 534 629 l 5,16,-1
538 276 m 0,20,21
 592 276 592 276 629.5 238.5 c 128,-1,22
 667 201 667 201 667 132.5 c 128,-1,23
 667 64 667 64 629.5 26.5 c 128,-1,24
 592 -11 592 -11 538 -11 c 0,25,26
 484.5 -11 484.5 -11 447.75 26.8 c 128,-1,27
 411 64.6 411 64.6 411 132.5 c 128,-1,28
 411 200.4 411 200.4 447.75 238.2 c 128,-1,29
 484.5 276 484.5 276 538 276 c 0,20,21
538 223 m 128,-1,31
 509 223 509 223 491 201 c 128,-1,32
 473 179 473 179 473 132 c 128,-1,33
 473 85 473 85 491 64 c 128,-1,34
 509 43 509 43 538 43 c 128,-1,35
 567 43 567 43 585 64 c 128,-1,36
 603 85 603 85 603 132 c 128,-1,37
 603 179 603 179 585 201 c 128,-1,30
 567 223 567 223 538 223 c 128,-1,31
EndSplineSet
Validated: 1
EndChar

StartChar: backslash
Encoding: 92 92 152
Width: 432
Flags: W
LayerCount: 2
Fore
SplineSet
45 731 m 1,0,-1
 124 731 l 1,1,-1
 376 -73 l 1,2,-1
 296 -73 l 1,3,-1
 45 731 l 1,0,-1
EndSplineSet
Validated: 1
EndChar

StartChar: bar
Encoding: 124 124 153
Width: 280
Flags: W
LayerCount: 2
Fore
SplineSet
101 750 m 5,0,-1
 180 750 l 5,1,-1
 180 -122 l 5,2,-1
 101 -122 l 5,3,-1
 101 750 l 5,0,-1
EndSplineSet
Validated: 1
EndChar

StartChar: bracketleft
Encoding: 91 91 154
Width: 317
Flags: W
LayerCount: 2
Fore
SplineSet
101 731 m 1,0,-1
 299 731 l 1,1,-1
 299 661 l 1,2,-1
 180 661 l 1,3,-1
 180 -32 l 1,4,-1
 299 -32 l 1,5,-1
 299 -102 l 1,6,-1
 101 -102 l 1,7,-1
 101 731 l 1,0,-1
EndSplineSet
Validated: 1
EndChar

StartChar: bracketright
Encoding: 93 93 155
Width: 285
Flags: W
LayerCount: 2
Fore
SplineSet
184 -102 m 1,0,-1
 -14 -102 l 1,1,-1
 -14 -32 l 1,2,-1
 105 -32 l 1,3,-1
 105 661 l 1,4,-1
 -14 661 l 1,5,-1
 -14 731 l 1,6,-1
 184 731 l 1,7,-1
 184 -102 l 1,0,-1
EndSplineSet
Validated: 1
EndChar

StartChar: asciicircum
Encoding: 94 94 156
Width: 448
Flags: W
LayerCount: 2
Fore
SplineSet
21 245 m 1,0,-1
 197 586 l 1,1,-1
 258 586 l 1,2,-1
 434 245 l 1,3,-1
 346 245 l 1,4,-1
 227 491 l 1,5,-1
 110 245 l 1,6,-1
 21 245 l 1,0,-1
EndSplineSet
Validated: 1
EndChar

StartChar: underscore
Encoding: 95 95 157
Width: 726
Flags: W
LayerCount: 2
Fore
SplineSet
55 -56 m 1,0,-1
 671 -56 l 1,1,-1
 671 -124 l 1,2,-1
 55 -124 l 1,3,-1
 55 -56 l 1,0,-1
EndSplineSet
Validated: 1
EndChar

StartChar: braceleft
Encoding: 123 123 158
Width: 349
Flags: W
LayerCount: 2
Fore
SplineSet
154 303 m 1,0,1
 206 278.13 206 278.13 206 190 c 2,2,-1
 206 97 l 2,3,4
 206 16 206 16 236.5 -26.5 c 128,-1,5
 267 -69 267 -69 341 -69 c 1,6,-1
 341 -138 l 1,7,8
 128 -138 128 -138 128 96 c 2,9,-1
 128 188 l 2,10,11
 128 231 128 231 119.5 249 c 128,-1,12
 111 267 111 267 92 267 c 2,13,-1
 75 267 l 1,14,-1
 75 343 l 1,15,-1
 92 343 l 2,16,17
 111 343 111 343 119.5 360.5 c 128,-1,18
 128 378 128 378 128 422 c 2,19,-1
 128 513 l 2,20,21
 128 681.457 128 681.457 241.5 730.5 c 0,22,23
 282 748 282 748 341 748 c 1,24,-1
 341 679 l 1,25,26
 267 679 267 679 236.5 636.5 c 128,-1,27
 206 594 206 594 206 512 c 2,28,-1
 206 420 l 2,29,30
 206 334.13 206 334.13 154 307 c 1,31,-1
 154 303 l 1,0,1
EndSplineSet
Validated: 1
EndChar

StartChar: braceright
Encoding: 125 125 159
Width: 349
Flags: W
LayerCount: 2
Fore
SplineSet
195 307 m 1,0,1
 143 334.13 143 334.13 143 420 c 2,2,-1
 143 512 l 2,3,4
 143 594 143 594 112.5 636.5 c 128,-1,5
 82 679 82 679 8 679 c 1,6,-1
 8 748 l 1,7,8
 221 748 221 748 221 513 c 2,9,-1
 221 422 l 2,10,11
 221 378 221 378 229.5 360.5 c 128,-1,12
 238 343 238 343 257 343 c 2,13,-1
 274 343 l 1,14,-1
 274 267 l 1,15,-1
 257 267 l 2,16,17
 238 267 238 267 229.5 249 c 128,-1,18
 221 231 221 231 221 188 c 2,19,-1
 221 96 l 2,20,21
 221 -71.8415 221 -71.8415 107 -120.5 c 0,22,23
 66 -138 66 -138 8 -138 c 1,24,-1
 8 -69 l 1,25,26
 82 -69 82 -69 112.5 -26.5 c 128,-1,27
 143 16 143 16 143 97 c 2,28,-1
 143 190 l 2,29,30
 143 278.13 143 278.13 195 303 c 1,31,-1
 195 307 l 1,0,1
EndSplineSet
Validated: 1
EndChar

StartChar: asciitilde
Encoding: 126 126 160
Width: 515
Flags: W
LayerCount: 2
Fore
SplineSet
158 282 m 0,0,1
 120.969 282 120.969 282 97 223 c 1,2,-1
 53 246 l 1,3,4
 85.8889 357 85.8889 357 160 357 c 0,5,6
 194.5 357 194.5 357 261.062 329.5 c 128,-1,7
 327.625 302 327.625 302 354 302 c 0,8,9
 394 302 394 302 419 359 c 1,10,-1
 462 332 l 1,11,12
 426.667 226 426.667 226 349 226 c 0,13,14
 326 226 326 226 278 244 c 128,-1,15
 230 262 230 262 215.5 267.5 c 0,16,17
 177.273 282 177.273 282 158 282 c 0,0,1
EndSplineSet
Validated: 1
EndChar

StartChar: atilde
Encoding: 322 227 161
Width: 551
Flags: W
LayerCount: 2
Fore
SplineSet
387 310 m 2,0,1
 387 375 387 375 360 403 c 128,-1,2
 333 431 333 431 281.5 431 c 128,-1,3
 230 431 230 431 198.5 410.5 c 128,-1,4
 167 390 167 390 167 346 c 1,5,-1
 80 346 l 1,6,7
 80 455.778 80 455.778 198 482 c 0,8,9
 234 490 234 490 276.5 490 c 0,10,11
 364.614 490 364.614 490 414.807 444.929 c 128,-1,12
 465 399.857 465 399.857 465 308 c 2,13,-1
 465 0 l 1,14,-1
 397 0 l 1,15,-1
 389 80 l 1,16,17
 345 -11 345 -11 230 -11 c 0,18,19
 152.756 -11 152.756 -11 106.378 32.2159 c 128,-1,20
 60 75.4318 60 75.4318 60 139.066 c 128,-1,21
 60 202.7 60 202.7 111.643 238.85 c 128,-1,22
 163.286 275 163.286 275 240.143 275 c 128,-1,23
 317 275 317 275 387 249 c 1,24,-1
 387 310 l 2,0,1
387 199 m 1,25,26
 315.889 219 315.889 219 262.944 219 c 128,-1,27
 210 219 210 219 177 200 c 128,-1,28
 144 181 144 181 144 140 c 0,29,30
 144 50 144 50 246 50 c 0,31,32
 303.474 50 303.474 50 344.275 89.755 c 128,-1,33
 385.076 129.51 385.076 129.51 387 193 c 1,34,-1
 387 199 l 1,25,26
213 641 m 0,35,36
 180.621 641 180.621 641 156 590 c 1,37,-1
 124 609 l 1,38,39
 136 660 136 660 159 686.5 c 128,-1,40
 182 713 182 713 208 713 c 128,-1,41
 234 713 234 713 267.5 696 c 0,42,43
 313.676 672.568 313.676 672.568 327.171 666.784 c 128,-1,44
 340.667 661 340.667 661 353.833 661 c 128,-1,45
 367 661 367 661 381 673.5 c 128,-1,46
 395 686 395 686 405 713 c 1,47,-1
 440 690 l 1,48,49
 429 642 429 642 404.5 616 c 128,-1,50
 380 590 380 590 359.5 590 c 128,-1,51
 339 590 339 590 322 596 c 128,-1,52
 305 602 305 602 275 617.5 c 128,-1,53
 245 633 245 633 234.5 637 c 128,-1,54
 224 641 224 641 213 641 c 0,35,36
EndSplineSet
Validated: 1
EndChar

StartChar: ntilde
Encoding: 323 241 162
Width: 604
Flags: W
LayerCount: 2
Fore
SplineSet
339 490 m 0,0,1
 224.902 490 224.902 490 178 386 c 1,2,-1
 169 478 l 1,3,-1
 101 478 l 1,4,-1
 101 0 l 1,5,-1
 180 0 l 1,6,-1
 180 235 l 1,7,8
 182 322 182 322 219 371 c 128,-1,9
 256 420 256 420 316 420 c 128,-1,10
 376 420 376 420 408.5 385 c 128,-1,11
 441 350 441 350 441 281 c 2,12,-1
 441 0 l 1,13,-1
 519 0 l 1,14,-1
 519 281 l 2,15,16
 519 378 519 378 471.5 434 c 128,-1,17
 424 490 424 490 339 490 c 0,0,1
237 641 m 0,18,19
 204.621 641 204.621 641 180 590 c 1,20,-1
 148 609 l 1,21,22
 160 660 160 660 183 686.5 c 128,-1,23
 206 713 206 713 232 713 c 128,-1,24
 258 713 258 713 291.5 696 c 0,25,26
 337.676 672.568 337.676 672.568 351.171 666.784 c 128,-1,27
 364.667 661 364.667 661 377.833 661 c 128,-1,28
 391 661 391 661 405 673.5 c 128,-1,29
 419 686 419 686 429 713 c 1,30,-1
 464 690 l 1,31,32
 453 642 453 642 428.5 616 c 128,-1,33
 404 590 404 590 383.5 590 c 128,-1,34
 363 590 363 590 346 596 c 128,-1,35
 329 602 329 602 299 617.5 c 128,-1,36
 269 633 269 633 258.5 637 c 128,-1,37
 248 641 248 641 237 641 c 0,18,19
EndSplineSet
Validated: 9
EndChar

StartChar: otilde
Encoding: 324 245 163
Width: 547
Flags: W
LayerCount: 2
Fore
SplineSet
274 490 m 128,-1,1
 174.476 490 174.476 490 112.738 425.175 c 128,-1,2
 51 360.35 51 360.35 51 239 c 0,3,4
 51 118.65 51 118.65 112.738 53.825 c 128,-1,5
 174.476 -11 174.476 -11 274 -11 c 128,-1,6
 373.524 -11 373.524 -11 435.262 53.825 c 128,-1,7
 497 118.65 497 118.65 497 239 c 0,8,9
 497 360.35 497 360.35 435.262 425.175 c 128,-1,0
 373.524 490 373.524 490 274 490 c 128,-1,1
169 373.5 m 128,-1,11
 206 422 206 422 275.5 422 c 128,-1,12
 345 422 345 422 381 373.5 c 128,-1,13
 417 325 417 325 417 239.5 c 128,-1,14
 417 154 417 154 379 105.5 c 128,-1,15
 341 57 341 57 271.5 57 c 128,-1,16
 202 57 202 57 167 105.5 c 128,-1,17
 132 154 132 154 132 239.5 c 128,-1,10
 132 325 132 325 169 373.5 c 128,-1,11
206 641 m 0,18,19
 173.621 641 173.621 641 149 590 c 1,20,-1
 117 609 l 1,21,22
 129 660 129 660 152 686.5 c 128,-1,23
 175 713 175 713 201 713 c 128,-1,24
 227 713 227 713 260.5 696 c 0,25,26
 306.676 672.568 306.676 672.568 320.171 666.784 c 128,-1,27
 333.667 661 333.667 661 346.833 661 c 128,-1,28
 360 661 360 661 374 673.5 c 128,-1,29
 388 686 388 686 398 713 c 1,30,-1
 433 690 l 1,31,32
 422 642 422 642 397.5 616 c 128,-1,33
 373 590 373 590 352.5 590 c 128,-1,34
 332 590 332 590 315 596 c 128,-1,35
 298 602 298 602 268 617.5 c 128,-1,36
 238 633 238 633 227.5 637 c 128,-1,37
 217 641 217 641 206 641 c 0,18,19
EndSplineSet
Validated: 9
EndChar

StartChar: Atilde
Encoding: 325 195 164
Width: 575
Flags: W
LayerCount: 2
Fore
SplineSet
242 629 m 1,0,-1
 338 629 l 1,1,-1
 549 0 l 1,2,-1
 467 0 l 1,3,-1
 413 160 l 1,4,-1
 163 160 l 1,5,-1
 109 0 l 1,6,-1
 26 0 l 1,7,-1
 242 629 l 1,0,-1
184 222 m 1,8,-1
 393 222 l 1,9,-1
 289 532 l 1,10,-1
 184 222 l 1,8,-1
221 770 m 0,11,12
 188.621 770 188.621 770 164 719 c 1,13,-1
 132 738 l 1,14,15
 144 789 144 789 167 815.5 c 128,-1,16
 190 842 190 842 216 842 c 128,-1,17
 242 842 242 842 275.5 825 c 0,18,19
 321.676 801.568 321.676 801.568 335.171 795.784 c 128,-1,20
 348.667 790 348.667 790 361.833 790 c 128,-1,21
 375 790 375 790 389 802.5 c 128,-1,22
 403 815 403 815 413 842 c 1,23,-1
 448 819 l 1,24,25
 437 771 437 771 412.5 745 c 128,-1,26
 388 719 388 719 367.5 719 c 128,-1,27
 347 719 347 719 330 725 c 128,-1,28
 313 731 313 731 283 746.5 c 128,-1,29
 253 762 253 762 242.5 766 c 128,-1,30
 232 770 232 770 221 770 c 0,11,12
EndSplineSet
Validated: 1
EndChar

StartChar: Ntilde
Encoding: 326 209 165
Width: 686
Flags: W
LayerCount: 2
Fore
SplineSet
99 629 m 1,0,-1
 99 0 l 1,1,-1
 179 0 l 1,2,-1
 179 512 l 1,3,-1
 496 0 l 1,4,-1
 584 0 l 1,5,-1
 584 629 l 1,6,-1
 505 629 l 1,7,-1
 505 124 l 1,8,-1
 193 629 l 1,9,-1
 99 629 l 1,0,-1
274 770 m 0,10,11
 241.621 770 241.621 770 217 719 c 1,12,-1
 185 738 l 1,13,14
 197 789 197 789 220 815.5 c 128,-1,15
 243 842 243 842 269 842 c 128,-1,16
 295 842 295 842 328.5 825 c 0,17,18
 374.676 801.568 374.676 801.568 388.171 795.784 c 128,-1,19
 401.667 790 401.667 790 414.833 790 c 128,-1,20
 428 790 428 790 442 802.5 c 128,-1,21
 456 815 456 815 466 842 c 1,22,-1
 501 819 l 1,23,24
 490 771 490 771 465.5 745 c 128,-1,25
 441 719 441 719 420.5 719 c 128,-1,26
 400 719 400 719 383 725 c 128,-1,27
 366 731 366 731 336 746.5 c 128,-1,28
 306 762 306 762 295.5 766 c 128,-1,29
 285 770 285 770 274 770 c 0,10,11
EndSplineSet
Validated: 9
EndChar

StartChar: Otilde
Encoding: 327 213 166
Width: 646
Flags: W
LayerCount: 2
Fore
SplineSet
323 640 m 0,0,1
 199.556 640 199.556 640 125.278 556.438 c 128,-1,2
 51 472.875 51 472.875 51 314 c 0,3,4
 51 156.125 51 156.125 125.278 72.5625 c 128,-1,5
 199.556 -11 199.556 -11 323 -11 c 0,6,7
 445.5 -11 445.5 -11 520.75 71.4658 c 128,-1,8
 596 153.932 596 153.932 596 313.219 c 128,-1,9
 596 472.507 596 472.507 520.525 556.253 c 128,-1,10
 445.049 640 445.049 640 323 640 c 0,0,1
323 569 m 128,-1,12
 411 569 411 569 462.5 503 c 128,-1,13
 514 437 514 437 514 313 c 128,-1,14
 514 189 514 189 462.5 125 c 128,-1,15
 411 61 411 61 323 61 c 128,-1,16
 235 61 235 61 184 125 c 128,-1,17
 133 189 133 189 133 313 c 128,-1,18
 133 437 133 437 184 503 c 128,-1,11
 235 569 235 569 323 569 c 128,-1,12
254 770 m 0,19,20
 221.621 770 221.621 770 197 719 c 1,21,-1
 165 738 l 1,22,23
 177 789 177 789 200 815.5 c 128,-1,24
 223 842 223 842 249 842 c 128,-1,25
 275 842 275 842 308.5 825 c 0,26,27
 354.676 801.568 354.676 801.568 368.171 795.784 c 128,-1,28
 381.667 790 381.667 790 394.833 790 c 128,-1,29
 408 790 408 790 422 802.5 c 128,-1,30
 436 815 436 815 446 842 c 1,31,-1
 481 819 l 1,32,33
 470 771 470 771 445.5 745 c 128,-1,34
 421 719 421 719 400.5 719 c 128,-1,35
 380 719 380 719 363 725 c 128,-1,36
 346 731 346 731 316 746.5 c 128,-1,37
 286 762 286 762 275.5 766 c 128,-1,38
 265 770 265 770 254 770 c 0,19,20
EndSplineSet
Validated: 9
EndChar

StartChar: ccedilla
Encoding: 328 231 167
Width: 515
Flags: W
LayerCount: 2
Fore
SplineSet
351.075 -108.613 m 0,0,1
 351.075 -182.67 351.075 -182.67 238.967 -182.67 c 0,2,3
 215.646 -182.67 215.646 -182.67 202.144 -181.033 c 1,4,-1
 202.144 -140.938 l 1,5,6
 222.192 -143.392 222.192 -143.392 237.331 -143.392 c 0,7,8
 297.477 -143.392 297.477 -143.392 297.477 -110.25 c 0,9,10
 297.477 -78.7451 297.477 -78.7451 243.059 -78.7451 c 0,11,12
 225.466 -78.7451 225.466 -78.7451 219.737 -79.5635 c 1,13,-1
 244.649 -9.81105 l 1,14,15
 168.949 -1.9453 168.949 -1.9453 113.654 57.958 c 0,16,17
 50 126.917 50 126.917 50 241.292 c 128,-1,18
 50 355.667 50 355.667 112.969 422.833 c 128,-1,19
 175.938 490 175.938 490 260.683 490 c 128,-1,20
 345.429 490 345.429 490 395.128 446.513 c 128,-1,21
 444.827 403.026 444.827 403.026 460 338 c 1,22,-1
 380 331 l 1,23,24
 367 373 367 373 338 396.5 c 128,-1,25
 309 420 309 420 274.5 420 c 0,26,27
 209.911 420 209.911 420 170.456 372.014 c 128,-1,28
 131 324.027 131 324.027 131 241.722 c 128,-1,29
 131 159.417 131 159.417 169.457 109.208 c 128,-1,30
 207.915 59 207.915 59 265.457 59 c 128,-1,31
 323 59 323 59 351.5 85.5 c 128,-1,32
 380 112 380 112 380 161 c 1,33,-1
 461 161 l 1,34,35
 461 83.8232 461 83.8232 407.267 36.4121 c 0,36,37
 359.983 -5.30876 359.983 -5.30876 288.076 -10.3168 c 1,38,-1
 274.154 -46.0137 l 1,39,40
 312.614 -47.2402 312.614 -47.2402 331.844 -63.8115 c 128,-1,41
 351.075 -80.3818 351.075 -80.3818 351.075 -108.613 c 0,0,1
EndSplineSet
Validated: 1
EndChar

StartChar: oe
Encoding: 330 339 169
Width: 876
Flags: W
LayerCount: 2
Back
SplineSet
631.758 56.5 m 4,0,1
 730.917 56.5 730.917 56.5 744.758 143.5 c 5,2,-1
 825.758 143.5 l 5,3,4
 814.758 71.5 814.758 71.5 762.258 32 c 132,-1,5
 709.758 -7.5 709.758 -7.5 631.758 -7.5 c 4,6,7
 535.573 -7.5 535.573 -7.5 475.666 60.8154 c 132,-1,8
 415.758 129.132 415.758 129.132 415.758 243.385 c 132,-1,9
 415.758 357.638 415.758 357.638 476.373 425.569 c 132,-1,10
 536.989 493.5 536.989 493.5 637.4 493.5 c 132,-1,11
 737.812 493.5 737.812 493.5 787.211 415.723 c 132,-1,12
 836.609 337.947 836.609 337.947 821.758 225.5 c 5,13,-1
 494.758 225.5 l 5,14,15
 494.758 151.324 494.758 151.324 530.58 103.912 c 132,-1,16
 566.402 56.5 566.402 56.5 631.758 56.5 c 4,0,1
689.258 418.5 m 4,17,18
 666.758 430.5 666.758 430.5 634.258 430.5 c 4,19,20
 572.308 430.5 572.308 430.5 537.146 389.133 c 132,-1,21
 501.985 347.767 501.985 347.767 495.758 285.5 c 5,22,-1
 750.758 285.5 l 5,23,24
 750.758 385.7 750.758 385.7 689.258 418.5 c 4,17,18
273 490 m 260,25,26
 372.524 490 372.524 490 434.262 425.175 c 132,-1,27
 496 360.35 496 360.35 496 239 c 260,28,29
 496 118.65 496 118.65 434.262 53.825 c 132,-1,30
 372.524 -11 372.524 -11 273 -11 c 260,31,32
 173.476 -11 173.476 -11 111.738 53.825 c 132,-1,33
 50 118.65 50 118.65 50 239 c 260,34,35
 50 360.35 50 360.35 111.738 425.175 c 132,-1,36
 173.476 490 173.476 490 273 490 c 260,25,26
380 373.5 m 132,-1,38
 344 422 344 422 274.5 422 c 132,-1,39
 205 422 205 422 168 373.5 c 132,-1,40
 131 325 131 325 131 239.5 c 132,-1,41
 131 154 131 154 166 105.5 c 132,-1,42
 201 57 201 57 270.5 57 c 132,-1,43
 340 57 340 57 378 105.5 c 132,-1,44
 416 154 416 154 416 239.5 c 132,-1,37
 416 325 416 325 380 373.5 c 132,-1,38
EndSplineSet
Fore
SplineSet
380 373.5 m 0,0,1
 344 422 344 422 274.5 422 c 128,-1,2
 205 422 205 422 168 373.5 c 128,-1,3
 131 325 131 325 131 239.5 c 128,-1,4
 131 154 131 154 166 105.5 c 128,-1,5
 201 57 201 57 270.5 57 c 128,-1,6
 340 57 340 57 378 105.5 c 0,7,8
 414.243 151.757 414.243 151.757 415.919 231.672 c 0,9,10
 415.758 237.467 415.758 237.467 415.758 243.385 c 0,11,12
 415.758 247.282 415.758 247.282 415.829 251.125 c 0,13,14
 413.515 328.347 413.515 328.347 380 373.5 c 0,0,1
273 490 m 128,-1,16
 372.524 490 372.524 490 434.262 425.175 c 0,17,18
 446.087 412.759 446.087 412.759 455.647 398.269 c 1,19,20
 464.93 412.745 464.93 412.745 476.373 425.569 c 0,21,22
 536.989 493.5 536.989 493.5 637.4 493.5 c 128,-1,23
 737.812 493.5 737.812 493.5 787.211 415.723 c 128,-1,24
 836.609 337.947 836.609 337.947 821.758 225.5 c 1,25,-1
 495.801 225.5 l 1,26,27
 495.58 218.124 495.58 218.124 495.114 210.968 c 0,28,29
 498.331 146.595 498.331 146.595 530.58 103.912 c 0,30,31
 566.402 56.5 566.402 56.5 631.758 56.5 c 0,32,33
 730.917 56.5 730.917 56.5 744.758 143.5 c 1,34,-1
 825.758 143.5 l 1,35,36
 814.758 71.5 814.758 71.5 762.258 32 c 128,-1,37
 709.758 -7.5 709.758 -7.5 631.758 -7.5 c 0,38,39
 535.573 -7.5 535.573 -7.5 475.666 60.8154 c 0,40,41
 465.978 71.8627 465.978 71.8627 457.857 84.1112 c 1,42,43
 447.473 67.6968 447.473 67.6968 434.262 53.825 c 0,44,45
 372.524 -11 372.524 -11 273 -11 c 128,-1,46
 173.476 -11 173.476 -11 111.738 53.825 c 128,-1,47
 50 118.65 50 118.65 50 239 c 0,48,49
 50 360.35 50 360.35 111.738 425.175 c 128,-1,15
 173.476 490 173.476 490 273 490 c 128,-1,16
689.258 418.5 m 0,50,51
 666.758 430.5 666.758 430.5 634.258 430.5 c 0,52,53
 572.308 430.5 572.308 430.5 537.146 389.133 c 128,-1,54
 501.985 347.767 501.985 347.767 495.758 285.5 c 1,55,-1
 750.758 285.5 l 1,56,57
 750.758 385.7 750.758 385.7 689.258 418.5 c 0,50,51
EndSplineSet
Validated: 33
EndChar

StartChar: OE
Encoding: 331 338 170
Width: 646
Flags: W
LayerCount: 2
Fore
SplineSet
323 640 m 0,0,1
 445.049 640 445.049 640 520.525 556.253 c 128,-1,2
 596 472.507 596 472.507 596 313.219 c 128,-1,3
 596 153.932 596 153.932 520.75 71.4658 c 128,-1,4
 445.5 -11 445.5 -11 323 -11 c 0,5,6
 199.556 -11 199.556 -11 125.278 72.5625 c 128,-1,7
 51 156.125 51 156.125 51 314 c 0,8,9
 51 472.875 51 472.875 125.278 556.438 c 128,-1,10
 199.556 640 199.556 640 323 640 c 0,0,1
323 569 m 128,-1,12
 235 569 235 569 184 503 c 128,-1,13
 133 437 133 437 133 313 c 128,-1,14
 133 189 133 189 184 125 c 128,-1,15
 235 61 235 61 323 61 c 128,-1,16
 411 61 411 61 462.5 125 c 128,-1,17
 514 189 514 189 514 313 c 128,-1,18
 514 437 514 437 462.5 503 c 128,-1,11
 411 569 411 569 323 569 c 128,-1,12
EndSplineSet
Validated: 1
EndChar

StartChar: cedilla
Encoding: 332 184 171
Width: 682
VWidth: 2048
Flags: W
LayerCount: 2
Back
SplineSet
327 -109 m 4,0,1
 327 -85 327 -85 280 -85 c 6,2,-1
 250 -85 l 5,3,-1
 261 0 l 5,4,-1
 305 0 l 5,5,-1
 299 -47 l 5,6,-1
 316 -48 l 6,7,8
 384 -53 384 -53 384 -103 c 4,9,10
 384 -131 384 -131 355.5 -154 c 132,-1,11
 327 -177 327 -177 268 -177 c 132,-1,12
 209 -177 209 -177 157 -140 c 5,13,-1
 182 -98 l 5,14,15
 225 -134 225 -134 281 -134 c 4,16,17
 307 -134 307 -134 317 -126.5 c 132,-1,18
 327 -119 327 -119 327 -109 c 4,0,1
EndSplineSet
Fore
SplineSet
366.075 -103.513 m 0,0,1
 366.075 -177.57 366.075 -177.57 253.967 -177.57 c 0,2,3
 230.646 -177.57 230.646 -177.57 217.144 -175.933 c 1,4,-1
 217.144 -135.837 l 1,5,6
 237.192 -138.292 237.192 -138.292 252.331 -138.292 c 0,7,8
 312.477 -138.292 312.477 -138.292 312.477 -105.15 c 0,9,10
 312.477 -73.6455 312.477 -73.6455 258.059 -73.6455 c 0,11,12
 240.466 -73.6455 240.466 -73.6455 234.737 -74.4639 c 1,13,-1
 261.332 0.000976562 l 1,14,-1
 305.111 0.000976562 l 1,15,-1
 289.154 -40.9141 l 1,16,17
 327.614 -42.1406 327.614 -42.1406 346.844 -58.7119 c 128,-1,18
 366.075 -75.2822 366.075 -75.2822 366.075 -103.513 c 0,0,1
EndSplineSet
Validated: 1
EndChar

StartChar: Ccedilla
Encoding: 333 199 172
Width: 613
VWidth: 0
LayerCount: 2
Fore
SplineSet
396.5 -108.613 m 0,0,1
 396.5 -182.67 396.5 -182.67 284.392 -182.67 c 0,2,3
 261.07 -182.67 261.07 -182.67 247.568 -181.033 c 1,4,-1
 247.568 -140.938 l 1,5,6
 267.617 -143.392 267.617 -143.392 282.756 -143.392 c 0,7,8
 342.901 -143.392 342.901 -143.392 342.901 -110.25 c 0,9,10
 342.901 -78.7451 342.901 -78.7451 288.483 -78.7451 c 0,11,12
 270.891 -78.7451 270.891 -78.7451 265.162 -79.5635 c 1,13,-1
 289.98 -10.0739 l 1,14,15
 188.184 -1.86755 188.184 -1.86755 123.256 79.0576 c 0,16,17
 51 169.116 51 169.116 51 319.995 c 128,-1,18
 51 470.875 51 470.875 126.167 555.438 c 128,-1,19
 201.333 640 201.333 640 319 640 c 0,20,21
 420 640 420 640 481.5 589.5 c 128,-1,22
 543 539 543 539 566 458 c 1,23,-1
 481 441 l 1,24,25
 461 500 461 500 418.5 534.5 c 128,-1,26
 376 569 376 569 319 569 c 0,27,28
 240.397 569 240.397 569 188.198 503.23 c 128,-1,29
 136 437.46 136 437.46 136 319.863 c 128,-1,30
 136 202.267 136 202.267 182.391 131.133 c 128,-1,31
 228.783 60 228.783 60 319 60 c 0,32,33
 394 60 394 60 437.5 99.5 c 128,-1,34
 481 139 481 139 481 204 c 1,35,-1
 566 204 l 1,36,37
 566 105.015 566 105.015 498.67 47.0078 c 0,38,39
 437.15 -5.99314 437.15 -5.99314 333.403 -10.5678 c 1,40,-1
 319.579 -46.0137 l 1,41,42
 358.039 -47.2402 358.039 -47.2402 377.269 -63.8115 c 128,-1,43
 396.5 -80.3818 396.5 -80.3818 396.5 -108.613 c 0,0,1
EndSplineSet
Validated: 1
EndChar

StartChar: ring
Encoding: 334 730 173
Width: 434
VWidth: 0
Flags: W
LayerCount: 2
Fore
SplineSet
287.315 688.672 m 132,-1,1
 287.315 639.844 287.315 639.844 252.647 605.176 c 132,-1,2
 217.979 570.508 217.979 570.508 169.151 570.508 c 132,-1,3
 120.323 570.508 120.323 570.508 85.6553 605.176 c 132,-1,4
 50.9873 639.844 50.9873 639.844 50.9873 688.672 c 4,5,6
 50.9873 737.988 50.9873 737.988 85.6553 772.168 c 132,-1,7
 120.323 806.348 120.323 806.348 169.151 806.348 c 4,8,9
 217.491 806.348 217.491 806.348 252.403 771.924 c 132,-1,0
 287.315 737.5 287.315 737.5 287.315 688.672 c 132,-1,1
234.581 688.672 m 132,-1,11
 234.581 716.016 234.581 716.016 215.538 735.059 c 132,-1,12
 196.495 754.102 196.495 754.102 169.151 754.102 c 4,13,14
 141.319 754.102 141.319 754.102 122.276 735.059 c 132,-1,15
 103.233 716.016 103.233 716.016 103.233 688.672 c 4,16,17
 103.233 661.816 103.233 661.816 121.788 641.797 c 132,-1,18
 140.343 621.777 140.343 621.777 169.151 621.777 c 4,19,20
 197.472 621.777 197.472 621.777 216.026 641.553 c 132,-1,10
 234.581 661.328 234.581 661.328 234.581 688.672 c 132,-1,11
EndSplineSet
Validated: 1
EndChar

StartChar: caron
Encoding: 337 711 176
Width: 407
Flags: W
LayerCount: 2
Fore
SplineSet
382.964 837 m 1,0,-1
 332.964 876 l 1,1,-1
 203.964 768 l 1,2,-1
 73.9639 876 l 1,3,-1
 23.9639 837 l 1,4,-1
 203.964 681 l 1,5,-1
 382.964 837 l 1,0,-1
EndSplineSet
Validated: 9
EndChar

StartChar: uni0243
Encoding: 343 579 182
Width: 622
Flags: W
LayerCount: 2
Fore
SplineSet
180 348 m 1,0,-1
 334 348 l 2,1,2
 392 348 392 348 426.5 376.5 c 128,-1,3
 461 405 461 405 461 455 c 128,-1,4
 461 505 461 505 427.5 533 c 128,-1,5
 394 561 394 561 334 561 c 2,6,-1
 180 561 l 1,7,-1
 180 348 l 1,0,-1
335 69 m 2,8,9
 407 69 407 69 438 98 c 128,-1,10
 469 127 469 127 469 175 c 128,-1,11
 469 223 469 223 435 251.5 c 128,-1,12
 401 280 401 280 335 280 c 2,13,-1
 180 280 l 1,14,-1
 180 203 l 1,15,-1
 309 203 l 1,16,-1
 309 137 l 1,17,-1
 180 137 l 1,18,-1
 180 69 l 1,19,-1
 335 69 l 2,8,9
101 629 m 1,20,-1
 336 629 l 2,21,22
 435.4 629 435.4 629 488.7 581.971 c 128,-1,23
 542 534.941 542 534.941 542 464 c 0,24,25
 542 410 542 410 512.5 370 c 128,-1,26
 483 330 483 330 423 316 c 1,27,28
 481.815 305.86 481.815 305.86 517.407 265.033 c 128,-1,29
 553 224.206 553 224.206 553 172 c 0,30,31
 553 56.0241 553 56.0241 439.5 15 c 0,32,33
 398 0 398 0 337 0 c 2,34,-1
 101 0 l 1,35,-1
 101 137 l 1,36,-1
 16 137 l 1,37,-1
 16 203 l 1,38,-1
 101 203 l 1,39,-1
 101 629 l 1,20,-1
EndSplineSet
Validated: 1
EndChar

StartChar: Euro
Encoding: 344 8364 183
Width: 612
Flags: W
LayerCount: 2
Fore
SplineSet
337 640 m 0,0,1
 438 640 438 640 495 589.5 c 128,-1,2
 552 539 552 539 575 458 c 1,3,-1
 490 441 l 1,4,5
 470 500 470 500 432 534.5 c 128,-1,6
 394 569 394 569 337 569 c 0,7,8
 270.397 569 270.397 569 218.198 501.23 c 0,9,10
 185.56 458.855 185.56 458.855 173.33 397 c 1,11,-1
 444 397 l 1,12,-1
 422 331 l 1,13,-1
 166.222 331 l 1,14,15
 166 323.538 166 323.538 166 315.863 c 0,16,17
 166 294.102 166 294.102 167.486 274 c 1,18,-1
 403 274 l 1,19,-1
 381 208 l 1,20,-1
 177.41 208 l 1,21,22
 188.251 162.815 188.251 162.815 209.392 129.133 c 0,23,24
 252.783 60 252.783 60 331 60 c 0,25,26
 403 60 403 60 446.5 99.5 c 128,-1,27
 490 139 490 139 490 204 c 1,28,-1
 575 204 l 1,29,30
 575 105.015 575 105.015 507.67 47.0078 c 128,-1,31
 440.339 -11 440.339 -11 329.925 -11 c 128,-1,32
 219.512 -11 219.512 -11 150.256 77.0586 c 0,33,34
 107.973 130.821 107.973 130.821 91.5049 208 c 1,35,-1
 12 208 l 1,36,-1
 34 274 l 1,37,-1
 82.4252 274 l 1,38,39
 81 294.351 81 294.351 81 315.995 c 0,40,41
 81 323.579 81 323.579 81.1899 331 c 1,42,-1
 12 331 l 1,43,-1
 34 397 l 1,44,-1
 87.1422 397 l 1,45,46
 102.487 491.62 102.487 491.62 156.166 553.438 c 0,47,48
 231.333 640 231.333 640 337 640 c 0,0,1
EndSplineSet
Validated: 1
EndChar

StartChar: guillemotleft
Encoding: 345 171 184
Width: 464
Flags: W
LayerCount: 2
Fore
SplineSet
176 429 m 5,0,-1
 261 429 l 5,1,-1
 123 233 l 5,2,-1
 261 37 l 5,3,-1
 176 37 l 5,4,-1
 30 233 l 5,5,-1
 176 429 l 5,0,-1
349 429 m 5,6,-1
 434 429 l 5,7,-1
 296 233 l 5,8,-1
 434 37 l 5,9,-1
 349 37 l 5,10,-1
 203 233 l 5,11,-1
 349 429 l 5,6,-1
EndSplineSet
Validated: 1
EndChar

StartChar: guillemotright
Encoding: 346 187 185
Width: 464
Flags: W
LayerCount: 2
Fore
SplineSet
288 429 m 1,0,-1
 203 429 l 1,1,-1
 341 233 l 1,2,-1
 203 37 l 1,3,-1
 288 37 l 1,4,-1
 434 233 l 1,5,-1
 288 429 l 1,0,-1
115 429 m 1,6,-1
 30 429 l 1,7,-1
 168 233 l 1,8,-1
 30 37 l 1,9,-1
 115 37 l 1,10,-1
 261 233 l 1,11,-1
 115 429 l 1,6,-1
EndSplineSet
Validated: 9
EndChar

StartChar: uni203D
Encoding: 357 8253 196
Width: 499
Flags: W
LayerCount: 2
Fore
SplineSet
167 499.067 m 1,0,-1
 262 499.067 l 1,1,2
 260.101 427.742 260.101 427.742 258.202 356.417 c 1,3,4
 265.804 361.083 265.804 361.083 274.194 365.676 c 0,5,6
 329.021 395.692 329.021 395.692 348.011 418.298 c 128,-1,7
 367 440.905 367 440.905 367 478.952 c 128,-1,8
 367 517 367 517 335.5 542.5 c 128,-1,9
 304 568 304 568 248 568 c 0,10,11
 130.727 568 130.727 568 114 476 c 1,12,-1
 30 476 l 1,13,14
 37 550 37 550 91 595 c 128,-1,15
 145 640 145 640 242.689 640 c 128,-1,16
 340.378 640 340.378 640 396.689 592.189 c 128,-1,17
 453 544.377 453 544.377 453 475 c 0,18,19
 453 423 453 423 427 388.5 c 128,-1,20
 401 354 401 354 343 322 c 0,21,22
 318 308 318 308 301 297 c 128,-1,23
 284 286 284 286 274 272.5 c 0,24,25
 255 246.85 255 246.85 255 200 c 2,26,-1
 255 161 l 1,27,-1
 253 161 l 1,28,-1
 177 161 l 1,29,-1
 167 499.067 l 1,0,-1
217 102 m 128,-1,31
 243 102 243 102 260 85 c 128,-1,32
 277 68 277 68 277 44.5 c 128,-1,33
 277 21 277 21 260 5 c 128,-1,34
 243 -11 243 -11 217 -11 c 128,-1,35
 191 -11 191 -11 175 5 c 128,-1,36
 159 21 159 21 159 44.5 c 128,-1,37
 159 68 159 68 175 85 c 128,-1,30
 191 102 191 102 217 102 c 128,-1,31
EndSplineSet
Validated: 1
EndChar

StartChar: multiply
Encoding: 358 215 197
Width: 512
Flags: W
LayerCount: 2
Fore
SplineSet
434 507 m 1,0,-1
 486 455 l 1,1,-1
 308 277 l 1,2,-1
 486 99 l 1,3,-1
 434 47 l 1,4,-1
 256 225 l 1,5,-1
 78 47 l 1,6,-1
 26 99 l 1,7,-1
 204 277 l 1,8,-1
 26 455 l 1,9,-1
 78 507 l 1,10,-1
 256 329 l 1,11,-1
 434 507 l 1,0,-1
EndSplineSet
Validated: 1
EndChar

StartChar: germandbls
Encoding: 359 223 198
Width: 613
VWidth: 0
Flags: W
LayerCount: 2
Fore
SplineSet
301 674 m 256,0,1
 208 674 208 674 154.5 618.5 c 128,-1,2
 101 563 101 563 101 470 c 2,3,-1
 101 0 l 257,4,-1
 180 0 l 257,5,-1
 180 470 l 258,6,7
 180 545 180 545 211.5 579.5 c 128,-1,8
 243 614 243 614 296 614 c 0,9,10
 343 614 343 614 369.5 589 c 128,-1,11
 396 564 396 564 396 526 c 0,12,13
 396 487 396 487 355.5 438 c 128,-1,14
 315 389 315 389 315 354 c 0,15,16
 315 331 315 331 332 309.5 c 128,-1,17
 349 288 349 288 373 270 c 128,-1,18
 397 252 397 252 421 233.5 c 128,-1,19
 445 215 445 215 462 189.5 c 128,-1,20
 479 164 479 164 479 135 c 0,21,22
 479 96 479 96 455 74 c 128,-1,23
 431 52 431 52 391 52 c 0,24,25
 345 52 345 52 295 75 c 1,26,-1
 295 14 l 257,27,28
 348 -11 348 -11 400 -11 c 0,29,30
 471 -11 471 -11 517 33 c 128,-1,31
 563 77 563 77 563 142 c 0,32,33
 563 185 563 185 536.5 223.5 c 128,-1,34
 510 262 510 262 479 285 c 128,-1,35
 448 308 448 308 421.5 332.5 c 128,-1,36
 395 357 395 357 395 374 c 0,37,38
 395 393 395 393 416.5 417 c 128,-1,39
 438 441 438 441 459 471 c 128,-1,40
 480 501 480 501 480 535 c 0,41,42
 480 590 480 590 430.5 632 c 128,-1,43
 381 674 381 674 301 674 c 256,0,1
EndSplineSet
EndChar

StartChar: guilsinglleft
Encoding: 360 8249 199
Width: 291
Flags: W
LayerCount: 2
Fore
SplineSet
176 429 m 1,0,-1
 261 429 l 1,1,-1
 123 233 l 1,2,-1
 261 37 l 1,3,-1
 176 37 l 1,4,-1
 30 233 l 1,5,-1
 176 429 l 1,0,-1
EndSplineSet
Validated: 1
EndChar

StartChar: guilsinglright
Encoding: 361 8250 200
Width: 291
Flags: W
LayerCount: 2
Fore
SplineSet
115 429 m 1,0,-1
 30 429 l 1,1,-1
 168 233 l 1,2,-1
 30 37 l 1,3,-1
 115 37 l 1,4,-1
 261 233 l 1,5,-1
 115 429 l 1,0,-1
EndSplineSet
Validated: 9
EndChar

StartChar: ae
Encoding: 362 230 201
Width: 850
VWidth: 0
Flags: W
LayerCount: 2
Fore
SplineSet
475 222 m 257,0,-1
 802 222 l 257,1,2
 806 254 806 254 806 271 c 0,3,4
 806 362 806 362 758 426 c 128,-1,5
 710 490 710 490 617 490 c 0,6,7
 503 490 503 490 448 408 c 1,8,9
 393 490 393 490 286 490 c 0,10,11
 248 490 248 490 215.5 483.5 c 128,-1,12
 183 477 183 477 153.5 461.5 c 128,-1,13
 124 446 124 446 107 416.5 c 128,-1,14
 90 387 90 387 90 346 c 1,15,-1
 177 346 l 257,16,17
 177 431 177 431 291 431 c 0,18,19
 344 431 344 431 370.5 402.5 c 128,-1,20
 397 374 397 374 397 310 c 2,21,-1
 397 282 l 257,22,-1
 280 282 l 258,23,24
 188 282 188 282 129 245.5 c 128,-1,25
 70 209 70 209 70 139 c 128,-1,26
 70 69 70 69 119 29 c 128,-1,27
 168 -11 168 -11 256 -11 c 0,28,29
 374 -11 374 -11 436 90 c 1,30,31
 492 -11 492 -11 612 -11 c 0,32,33
 691 -11 691 -11 743 29 c 128,-1,34
 795 69 795 69 806 140 c 1,35,-1
 725 140 l 257,36,37
 712 53 712 53 612 53 c 0,38,39
 548 53 548 53 511.5 98 c 128,-1,40
 475 143 475 143 475 222 c 257,0,-1
397 222 m 257,41,-1
 397 205 l 258,42,43
 397 139 397 139 357.5 94.5 c 128,-1,44
 318 50 318 50 256 50 c 0,45,46
 154 50 154 50 154 140 c 256,47,48
 154 180 154 180 189 201 c 128,-1,49
 224 222 224 222 280 222 c 2,50,-1
 397 222 l 257,41,-1
614 427 m 256,51,52
 673 427 673 427 702 388.5 c 128,-1,53
 731 350 731 350 731 282 c 1,54,-1
 476 282 l 257,55,56
 482 346 482 346 518.5 386.5 c 128,-1,57
 555 427 555 427 614 427 c 256,51,52
EndSplineSet
EndChar

StartChar: oslash
Encoding: 363 248 202
Width: 546
Flags: W
LayerCount: 2
Fore
SplineSet
482.34765625 498.641601562 m 5,0,-1
 529.6640625 450.240234375 l 5,1,-1
 60.109375 -23.3408203125 l 5,2,-1
 12.79296875 25.0595703125 l 5,3,-1
 482.34765625 498.641601562 l 5,0,-1
273 490 m 128,-1,5
 372.524 490 372.524 490 434.262 425.175 c 128,-1,6
 496 360.35 496 360.35 496 239 c 0,7,8
 496 118.65 496 118.65 434.262 53.825 c 128,-1,9
 372.524 -11 372.524 -11 273 -11 c 128,-1,10
 173.476 -11 173.476 -11 111.738 53.825 c 128,-1,11
 50 118.65 50 118.65 50 239 c 0,12,13
 50 360.35 50 360.35 111.738 425.175 c 128,-1,4
 173.476 490 173.476 490 273 490 c 128,-1,5
380 373.5 m 128,-1,15
 344 422 344 422 274.5 422 c 128,-1,16
 205 422 205 422 168 373.5 c 128,-1,17
 131 325 131 325 131 239.5 c 128,-1,18
 131 154 131 154 166 105.5 c 128,-1,19
 201 57 201 57 270.5 57 c 128,-1,20
 340 57 340 57 378 105.5 c 128,-1,21
 416 154 416 154 416 239.5 c 128,-1,14
 416 325 416 325 380 373.5 c 128,-1,15
EndSplineSet
EndChar

StartChar: Oslash
Encoding: 364 216 203
Width: 646
Flags: W
LayerCount: 2
Fore
SplineSet
598.34765625 639.641601562 m 5,0,-1
 651.6640625 585.240234375 l 5,1,-1
 46.109375 -16.3408203125 l 5,2,-1
 -7.20703125 38.0595703125 l 5,3,-1
 598.34765625 639.641601562 l 5,0,-1
323 640 m 0,4,5
 445.049 640 445.049 640 520.525 556.253 c 128,-1,6
 596 472.507 596 472.507 596 313.219 c 128,-1,7
 596 153.932 596 153.932 520.75 71.4658 c 128,-1,8
 445.5 -11 445.5 -11 323 -11 c 0,9,10
 199.556 -11 199.556 -11 125.278 72.5625 c 128,-1,11
 51 156.125 51 156.125 51 314 c 0,12,13
 51 472.875 51 472.875 125.278 556.438 c 128,-1,14
 199.556 640 199.556 640 323 640 c 0,4,5
323 569 m 128,-1,16
 235 569 235 569 184 503 c 128,-1,17
 133 437 133 437 133 313 c 128,-1,18
 133 189 133 189 184 125 c 128,-1,19
 235 61 235 61 323 61 c 128,-1,20
 411 61 411 61 462.5 125 c 128,-1,21
 514 189 514 189 514 313 c 128,-1,22
 514 437 514 437 462.5 503 c 128,-1,15
 411 569 411 569 323 569 c 128,-1,16
EndSplineSet
EndChar

StartChar: macron
Encoding: 365 175 204
Width: 373
Flags: W
LayerCount: 2
Fore
SplineSet
21 874 m 5,0,-1
 354 874 l 5,1,-1
 354 800 l 5,2,-1
 21 800 l 5,3,-1
 21 874 l 5,0,-1
EndSplineSet
EndChar

StartChar: AE
Encoding: 435 198 274
Width: 841
VWidth: 0
Flags: W
LayerCount: 2
Fore
SplineSet
269 629 m 257,0,-1
 26 0 l 257,1,-1
 109 0 l 257,2,-1
 170 160 l 257,3,-1
 379 160 l 257,4,-1
 379 0 l 257,5,-1
 766 0 l 257,6,-1
 766 69 l 257,7,-1
 458 69 l 257,8,-1
 458 283 l 257,9,-1
 748 283 l 257,10,-1
 748 350 l 257,11,-1
 458 350 l 257,12,-1
 458 561 l 257,13,-1
 766 561 l 257,14,-1
 766 629 l 257,15,-1
 269 629 l 257,0,-1
196 227 m 257,16,-1
 326 561 l 257,17,-1
 379 561 l 257,18,-1
 379 227 l 257,19,-1
 196 227 l 257,16,-1
EndSplineSet
EndChar

StartChar: uni018A
Encoding: 446 394 285
Width: 661
Flags: W
LayerCount: 2
Fore
SplineSet
285 629 m 2,0,1
 427 629 427 629 512.5 543.5 c 128,-1,2
 598 458 598 458 598 314.5 c 128,-1,3
 598 171 598 171 512.5 85.5 c 128,-1,4
 427 0 427 0 285 0 c 2,5,-1
 100 0 l 1,6,-1
 100 629 l 1,7,-1
 285 629 l 2,0,1
179 69 m 1,8,-1
 285 69 l 2,9,10
 389.924 69 389.924 69 451.962 138.398 c 128,-1,11
 514 207.797 514 207.797 514 315 c 0,12,13
 514 421.746 514 421.746 451.708 490.373 c 128,-1,14
 389.415 559 389.415 559 285 559 c 2,15,-1
 179 559 l 1,16,-1
 179 69 l 1,8,-1
EndSplineSet
EndChar

StartChar: uni0181
Encoding: 447 385 286
Width: 622
Flags: W
LayerCount: 2
Fore
SplineSet
101 629 m 1,0,-1
 336 629 l 2,1,2
 435.4 629 435.4 629 488.7 581.971 c 128,-1,3
 542 534.941 542 534.941 542 464 c 0,4,5
 542 410 542 410 512.5 370 c 128,-1,6
 483 330 483 330 423 316 c 1,7,8
 481.815 305.86 481.815 305.86 517.407 265.033 c 128,-1,9
 553 224.206 553 224.206 553 172 c 0,10,11
 553 56.0241 553 56.0241 439.5 15 c 0,12,13
 398 0 398 0 337 0 c 2,14,-1
 101 0 l 1,15,-1
 101 629 l 1,0,-1
335 69 m 2,16,17
 407 69 407 69 438 98 c 128,-1,18
 469 127 469 127 469 175 c 128,-1,19
 469 223 469 223 435 251.5 c 128,-1,20
 401 280 401 280 335 280 c 2,21,-1
 180 280 l 1,22,-1
 180 69 l 1,23,-1
 335 69 l 2,16,17
180 348 m 1,24,-1
 334 348 l 2,25,26
 392 348 392 348 426.5 376.5 c 128,-1,27
 461 405 461 405 461 455 c 128,-1,28
 461 505 461 505 427.5 533 c 128,-1,29
 394 561 394 561 334 561 c 2,30,-1
 180 561 l 1,31,-1
 180 348 l 1,24,-1
EndSplineSet
EndChar

StartChar: uni0257
Encoding: 448 599 287
Width: 594
Flags: W
LayerCount: 2
Fore
SplineSet
414 407 m 1,0,-1
 414 681 l 1,1,-1
 492 681 l 1,2,-1
 492 0 l 1,3,-1
 428 0 l 1,4,-1
 418 80 l 1,5,6
 395 35 395 35 357 12 c 128,-1,7
 319 -11 319 -11 274 -11 c 0,8,9
 182.758 -11 182.758 -11 121.379 58.8448 c 128,-1,10
 60 128.69 60 128.69 60 241.319 c 128,-1,11
 60 353.947 60 353.947 120.586 421.974 c 128,-1,12
 181.172 490 181.172 490 273.723 490 c 128,-1,13
 366.275 490 366.275 490 414 407 c 1,0,-1
180.702 370.895 m 128,-1,15
 141 321.789 141 321.789 141 240 c 128,-1,16
 141 158.211 141 158.211 181.106 108.605 c 128,-1,17
 221.213 59 221.213 59 277.092 59 c 128,-1,18
 332.971 59 332.971 59 372.529 96.4191 c 128,-1,19
 412.086 133.838 412.086 133.838 414 197 c 1,20,-1
 414 275 l 2,21,22
 414 342 414 342 375 381 c 128,-1,23
 336 420 336 420 278.202 420 c 128,-1,14
 220.404 420 220.404 420 180.702 370.895 c 128,-1,15
EndSplineSet
EndChar

StartChar: uni0253
Encoding: 449 595 288
Width: 584
Flags: W
LayerCount: 2
Fore
SplineSet
180 407 m 1,0,1
 227.725 490 227.725 490 319.777 490 c 128,-1,2
 411.828 490 411.828 490 472.914 421.412 c 128,-1,3
 534 352.825 534 352.825 534 240.429 c 128,-1,4
 534 128.034 534 128.034 471.856 58.5169 c 128,-1,5
 409.712 -11 409.712 -11 321 -11 c 0,6,7
 273 -11 273 -11 234.5 13 c 128,-1,8
 196 37 196 37 174 84 c 1,9,-1
 156 0 l 1,10,-1
 101 0 l 1,11,-1
 101 681 l 1,12,-1
 180 681 l 1,13,-1
 180 407 l 1,0,1
219.735 383.27 m 128,-1,15
 181.956 346.54 181.956 346.54 180 282 c 1,16,-1
 180 204 l 2,17,18
 180 138 180 138 219.5 98.5 c 128,-1,19
 259 59 259 59 315.128 59 c 128,-1,20
 371.255 59 371.255 59 412.128 108.256 c 128,-1,21
 453 157.513 453 157.513 453 240 c 128,-1,22
 453 322.487 453 322.487 412.543 371.244 c 128,-1,23
 372.085 420 372.085 420 314.8 420 c 128,-1,14
 257.514 420 257.514 420 219.735 383.27 c 128,-1,15
EndSplineSet
EndChar

StartChar: uni018E
Encoding: 450 398 289
Width: 562
Flags: W
LayerCount: 2
Fore
SplineSet
487 629 m 1,0,-1
 100 629 l 1,1,-1
 100 561 l 1,2,-1
 408 561 l 1,3,-1
 408 350 l 1,4,-1
 118 350 l 1,5,-1
 118 283 l 1,6,-1
 408 283 l 1,7,-1
 408 69 l 1,8,-1
 100 69 l 1,9,-1
 100 0 l 1,10,-1
 487 0 l 1,11,-1
 487 629 l 1,0,-1
EndSplineSet
EndChar

StartChar: uni01DD
Encoding: 451 477 290
Width: 515
Flags: W
LayerCount: 2
Fore
SplineSet
245 424 m 4,0,1
 145.840820312 424 145.840820312 424 132 337 c 5,2,-1
 51 337 l 5,3,4
 62 409 62 409 114.5 448.5 c 132,-1,5
 167 488 167 488 245 488 c 4,6,7
 341.184570312 488 341.184570312 488 401.091796875 419.684570312 c 132,-1,8
 461 351.368164062 461 351.368164062 461 237.115234375 c 132,-1,9
 461 122.862304688 461 122.862304688 400.384765625 54.9306640625 c 132,-1,10
 339.768554688 -13 339.768554688 -13 239.358398438 -13 c 132,-1,11
 138.946289062 -13 138.946289062 -13 89.546875 64.77734375 c 132,-1,12
 40.1494140625 142.552734375 40.1494140625 142.552734375 55 255 c 5,13,-1
 382 255 l 5,14,15
 382 329.17578125 382 329.17578125 346.177734375 376.587890625 c 132,-1,16
 310.356445312 424 310.356445312 424 245 424 c 4,0,1
187.5 62 m 4,17,18
 210 50 210 50 242.5 50 c 4,19,20
 304.450195312 50 304.450195312 50 339.612304688 91.3671875 c 132,-1,21
 374.7734375 132.733398438 374.7734375 132.733398438 381 195 c 5,22,-1
 126 195 l 5,23,24
 126 94.7998046875 126 94.7998046875 187.5 62 c 4,17,18
EndSplineSet
EndChar

StartChar: Lslash
Encoding: 452 321 291
Width: 498
Flags: W
LayerCount: 2
Fore
SplineSet
312.885742188 475.8515625 m 1,0,-1
 350 419 l 1,1,-1
 65.529296875 211.844726562 l 1,2,-1
 28.4150390625 268.696289062 l 1,3,-1
 312.885742188 475.8515625 l 1,0,-1
210 69 m 1,4,-1
 490 69 l 1,5,-1
 490 0 l 1,6,-1
 131 0 l 1,7,-1
 131 629 l 1,8,-1
 210 629 l 1,9,-1
 210 69 l 1,4,-1
EndSplineSet
EndChar

StartChar: lslash
Encoding: 453 322 292
Width: 354
Flags: W
LayerCount: 2
Fore
SplineSet
284.885742188 460.8515625 m 1,0,-1
 322 404 l 1,1,-1
 70 220 l 1,2,-1
 32.8857421875 276.8515625 l 1,3,-1
 284.885742188 460.8515625 l 1,0,-1
133 681 m 1,4,-1
 212 681 l 1,5,-1
 212 0 l 1,6,-1
 133 0 l 1,7,-1
 133 681 l 1,4,-1
EndSplineSet
EndChar

StartChar: uni0237
Encoding: 456 567 295
Width: 314
Flags: W
LayerCount: 2
Fore
SplineSet
33 -177 m 0,0,1
 121 -177 121 -177 121 -67 c 2,2,-1
 121 480 l 1,3,-1
 200 480 l 1,4,-1
 200 -67 l 2,5,6
 200 -203.857 200 -203.857 110 -236 c 0,7,8
 82 -246 82 -246 48 -246 c 0,9,10
 -14.0556 -246 -14.0556 -246 -86 -209 c 1,11,-1
 -82 -140 l 1,12,13
 -18.8824 -177 -18.8824 -177 33 -177 c 0,0,1
EndSplineSet
EndChar

StartChar: ogonek
Encoding: 460 731 299
Width: 614
VWidth: 2000
Flags: W
LayerCount: 2
Fore
SplineSet
309.5 -179 m 0,0,1
 216 -179 216 -179 216 -96.5 c 0,2,3
 216 -56 216 -56 261.578125 -12.8271484375 c 0,4,5
 275 -0 275 -0 291.256835938 9.8203125 c 1,6,-1
 334.255859375 2.892578125 l 1,7,8
 279 -32 279 -32 279.104492188 -79.169921875 c 0,9,10
 279 -99 279 -99 290.5 -110.5 c 0,11,12
 318.6 -138.6 318.6 -138.6 369 -105 c 1,13,-1
 385.666992188 -151.641601562 l 1,14,15
 356 -179 356 -179 309.5 -179 c 0,0,1
EndSplineSet
EndChar

StartChar: yen
Encoding: 461 165 300
Width: 549
Flags: W
LayerCount: 2
Fore
SplineSet
74 255 m 1,0,-1
 477 255 l 1,1,-1
 477 180 l 1,2,-1
 74 180 l 1,3,-1
 74 255 l 1,0,-1
57 404 m 1,4,-1
 174 404 l 1,5,-1
 274 332 l 1,6,-1
 358 404 l 1,7,-1
 492 404 l 1,8,-1
 492 329 l 1,9,-1
 57 329 l 1,10,-1
 57 404 l 1,4,-1
104 629 m 1,11,-1
 273 340 l 1,12,-1
 446 629 l 1,13,-1
 539 629 l 1,14,-1
 313 258 l 1,15,-1
 313 0 l 1,16,-1
 233 0 l 1,17,-1
 233 258 l 1,18,-1
 10 629 l 1,19,-1
 104 629 l 1,11,-1
EndSplineSet
EndChar

StartChar: copyright
Encoding: 462 169 301
Width: 753
Flags: W
LayerCount: 2
Fore
SplineSet
720.306640625 340.685546875 m 0,0,1
 720.306640625 198.05078125 720.306640625 198.05078125 619.03515625 96.779296875 c 0,2,3
 517.763671875 -4.4921875 517.763671875 -4.4921875 375.12890625 -4.4921875 c 0,4,5
 232.494140625 -4.4921875 232.494140625 -4.4921875 131.223632812 96.779296875 c 0,6,7
 29.9521484375 198.05078125 29.9521484375 198.05078125 29.9521484375 340.685546875 c 0,8,9
 29.9521484375 484.745117188 29.9521484375 484.745117188 131.223632812 584.591796875 c 0,10,11
 232.494140625 684.4375 232.494140625 684.4375 375.12890625 684.4375 c 0,12,13
 516.338867188 684.4375 516.338867188 684.4375 618.322265625 583.87890625 c 0,14,15
 720.306640625 483.321289062 720.306640625 483.321289062 720.306640625 340.685546875 c 0,0,1
676.780273438 342.971679688 m 0,16,17
 677 468 677 468 589.494140625 555.596679688 c 0,18,19
 502 643 502 643 376.869140625 642.885742188 c 0,20,21
 249 643 249 643 162.005859375 555.596679688 c 0,22,23
 75 469 75 469 74.7197265625 342.971679688 c 0,24,25
 74 219 74 219 159.770507812 128.110351562 c 0,26,27
 246 36 246 36 376.869140625 36.3447265625 c 0,28,29
 507 37 507 37 591.732421875 126.991210938 c 0,30,31
 677 218 677 218 676.780273438 342.971679688 c 0,16,17
EndSplineSet
Refer: 14 99 S 0.88 0 0 0.88 140.72 126.04 2
EndChar

StartChar: registered
Encoding: 463 174 302
Width: 765
Flags: W
LayerCount: 2
Back
SplineSet
569.5 323 m 132,-1,1
 528 275 528 275 447 261 c 5,2,-1
 627 0 l 5,3,-1
 525 0 l 5,4,-1
 362 257 l 5,5,-1
 252 257 l 5,6,-1
 252 0 l 5,7,-1
 173 0 l 5,8,-1
 173 629 l 5,9,-1
 392 629 l 6,10,11
 498.299804688 629 498.299804688 629 554.650390625 577.7734375 c 132,-1,12
 611 526.544921875 611 526.544921875 611 448.7734375 c 132,-1,0
 611 371 611 371 569.5 323 c 132,-1,1
386 312 m 6,13,14
 457 312 457 312 493.5 346.5 c 132,-1,15
 530 381 530 381 530 437.5 c 132,-1,16
 530 494 530 494 494.5 527.5 c 132,-1,17
 459 561 459 561 392 561 c 6,18,-1
 252 561 l 5,19,-1
 252 312 l 5,20,-1
 386 312 l 6,13,14
EndSplineSet
Fore
SplineSet
724.306640625 340.685546875 m 0,0,1
 724.306640625 198.05078125 724.306640625 198.05078125 623.03515625 96.779296875 c 0,2,3
 521.763671875 -4.4921875 521.763671875 -4.4921875 379.12890625 -4.4921875 c 0,4,5
 236.494140625 -4.4921875 236.494140625 -4.4921875 135.223632812 96.779296875 c 0,6,7
 33.9521484375 198.05078125 33.9521484375 198.05078125 33.9521484375 340.685546875 c 0,8,9
 33.9521484375 484.745117188 33.9521484375 484.745117188 135.223632812 584.591796875 c 0,10,11
 236.494140625 684.4375 236.494140625 684.4375 379.12890625 684.4375 c 0,12,13
 520.338867188 684.4375 520.338867188 684.4375 622.322265625 583.87890625 c 0,14,15
 724.306640625 483.321289062 724.306640625 483.321289062 724.306640625 340.685546875 c 0,0,1
680.780273438 342.971679688 m 0,16,17
 681 468 681 468 593.494140625 555.596679688 c 0,18,19
 506 643 506 643 380.869140625 642.885742188 c 0,20,21
 253 643 253 643 166.005859375 555.596679688 c 0,22,23
 79 469 79 469 78.7197265625 342.971679688 c 0,24,25
 78 219 78 219 163.770507812 128.110351562 c 0,26,27
 250 36 250 36 380.869140625 36.3447265625 c 0,28,29
 511 37 511 37 595.732421875 126.991210938 c 0,30,31
 681 218 681 218 680.780273438 342.971679688 c 0,16,17
EndSplineSet
Refer: 55 82 N 0.688656 0 0 0.685406 169.298 121.992 2
EndChar

StartChar: breve
Encoding: 503 728 342
Width: 333
Flags: W
LayerCount: 2
Fore
SplineSet
15 732 m 1,0,-1
 82 732 l 1,1,2
 90 666 90 666 166 666 c 0,3,4
 206 666 206 666 225.5 683 c 128,-1,5
 245 700 245 700 248 732 c 1,6,-1
 316 732 l 1,7,8
 305 597 305 597 164 597 c 0,9,10
 128 597 128 597 98 606.5 c 128,-1,11
 68 616 68 616 42 648 c 128,-1,12
 16 680 16 680 15 732 c 1,0,-1
EndSplineSet
EndChar

StartChar: Eth
Encoding: 529 208 368
Width: 661
VWidth: 0
Flags: W
LayerCount: 2
Fore
SplineSet
22 285 m 257,0,-1
 330 285 l 257,1,-1
 330 345 l 257,2,-1
 22 345 l 257,3,-1
 22 285 l 257,0,-1
100 629 m 257,4,-1
 100 0 l 257,5,-1
 285 0 l 258,6,7
 427 0 427 0 512.5 85.5 c 128,-1,8
 598 171 598 171 598 314 c 0,9,10
 598 453 598 453 513.5 541 c 128,-1,11
 429 629 429 629 285 629 c 2,12,-1
 100 629 l 257,4,-1
179 559 m 257,13,-1
 285 559 l 258,14,15
 389 559 389 559 451.5 489.5 c 128,-1,16
 514 420 514 420 514 315 c 0,17,18
 514 212 514 212 453.5 140.5 c 128,-1,19
 393 69 393 69 285 69 c 2,20,-1
 179 69 l 257,21,-1
 179 559 l 257,13,-1
EndSplineSet
EndChar

StartChar: Thorn
Encoding: 530 222 369
Width: 554
VWidth: 0
Flags: W
LayerCount: 2
Fore
SplineSet
178 192 m 257,0,-1
 178 442 l 257,1,-1
 302 442 l 258,2,3
 366 442 366 442 400 408 c 128,-1,4
 434 374 434 374 434 315 c 0,5,6
 434 257 434 257 400 224.5 c 128,-1,7
 366 192 366 192 302 192 c 2,8,-1
 178 192 l 257,0,-1
178 0 m 257,9,-1
 178 124 l 257,10,-1
 302 124 l 258,11,12
 405 124 405 124 460 175 c 128,-1,13
 515 226 515 226 515 316 c 0,14,15
 515 407 515 407 460 458.5 c 128,-1,16
 405 510 405 510 302 510 c 2,17,-1
 178 510 l 257,18,-1
 178 629 l 257,19,-1
 99 629 l 257,20,-1
 99 0 l 257,21,-1
 178 0 l 257,9,-1
EndSplineSet
EndChar

StartChar: eth
Encoding: 531 240 370
Width: 555
VWidth: 0
Flags: W
LayerCount: 2
Fore
SplineSet
257 490 m 256,0,1
 179 490 179 490 119.5 426 c 128,-1,2
 60 362 60 362 60 242 c 0,3,4
 60 119 60 119 124.5 54 c 128,-1,5
 189 -11 189 -11 289 -11 c 0,6,7
 382 -11 382 -11 437 73 c 128,-1,8
 492 157 492 157 492 297 c 0,9,10
 492 434 492 434 440 556 c 128,-1,11
 388 678 388 678 254 810 c 1,12,-1
 184 771 l 257,13,14
 298 659 298 659 349.5 571.5 c 128,-1,15
 401 484 401 484 414 384 c 1,16,17
 367 490 367 490 257 490 c 256,0,1
279 59 m 256,18,19
 215 59 215 59 178 107.5 c 128,-1,20
 141 156 141 156 141 241 c 128,-1,21
 141 326 141 326 176.5 373.5 c 128,-1,22
 212 421 212 421 269 421 c 128,-1,23
 326 421 326 421 367 373.5 c 128,-1,24
 408 326 408 326 415 238 c 1,25,26
 396 59 396 59 279 59 c 256,18,19
216 558 m 257,27,-1
 503 723 l 257,28,-1
 465 775 l 257,29,-1
 179 610 l 257,30,-1
 216 558 l 257,27,-1
EndSplineSet
EndChar

StartChar: thorn
Encoding: 532 254 371
Width: 594
VWidth: 0
Flags: W
LayerCount: 2
Fore
SplineSet
316 -11 m 256,0,1
 413 -11 413 -11 473.5 63 c 128,-1,2
 534 137 534 137 534 239 c 0,3,4
 534 339 534 339 474.5 414.5 c 128,-1,5
 415 490 415 490 315 490 c 0,6,7
 226 490 226 490 180 414 c 1,8,-1
 180 640 l 257,9,-1
 101 640 l 257,10,-1
 101 -235 l 257,11,-1
 180 -235 l 257,12,-1
 180 58 l 257,13,14
 224 -11 224 -11 316 -11 c 256,0,1
312 59 m 256,15,16
 254 59 254 59 217 95.5 c 128,-1,17
 180 132 180 132 180 194 c 2,18,-1
 180 285 l 258,19,20
 182 347 182 347 219 383.5 c 128,-1,21
 256 420 256 420 314 420 c 0,22,23
 379 420 379 420 416 364.5 c 128,-1,24
 453 309 453 309 453 238 c 0,25,26
 453 170 453 170 415.5 114.5 c 128,-1,27
 378 59 378 59 312 59 c 256,15,16
EndSplineSet
EndChar

StartChar: hungarumlaut
Encoding: 533 733 372
Width: 422
Flags: W
LayerCount: 2
Fore
SplineSet
386 860 m 1,0,-1
 251 627 l 1,1,-1
 203 655 l 1,2,-1
 320 899 l 1,3,-1
 386 860 l 1,0,-1
219 860 m 1,4,-1
 84 627 l 1,5,-1
 36 655 l 1,6,-1
 153 899 l 1,7,-1
 219 860 l 1,4,-1
EndSplineSet
EndChar

StartChar: afii10020
Encoding: 179 1043 394
Width: 524
Flags: W
LayerCount: 2
Fore
SplineSet
101 629 m 1,0,-1
 483 629 l 1,1,-1
 483 561 l 1,2,-1
 180 561 l 5,3,-1
 180 0 l 5,4,-1
 101 0 l 1,5,-1
 101 629 l 1,0,-1
EndSplineSet
EndChar

StartChar: afii10033
Encoding: 191 1055 395
Width: 669
Flags: W
LayerCount: 2
Fore
SplineSet
568 629 m 1,0,-1
 568 0 l 1,1,-1
 489 0 l 1,2,-1
 489 561 l 1,3,-1
 180 561 l 1,4,-1
 180 0 l 1,5,-1
 101 0 l 1,6,-1
 101 629 l 1,7,-1
 568 629 l 1,0,-1
EndSplineSet
EndChar

StartChar: afii10081
Encoding: 223 1087 397
Width: 603
Flags: W
LayerCount: 2
Fore
SplineSet
518 478 m 1,0,-1
 518 0 l 1,1,-1
 440 0 l 1,2,-1
 440 410 l 5,3,-1
 179 410 l 5,4,-1
 179 0 l 1,5,-1
 100 0 l 1,6,-1
 100 478 l 1,7,-1
 518 478 l 1,0,-1
EndSplineSet
EndChar

StartChar: afii10079
Encoding: 221 1085 398
Width: 603
Flags: W
LayerCount: 2
Fore
SplineSet
518 478 m 5,0,-1
 518 0 l 5,1,-1
 440 0 l 5,2,-1
 440 220 l 5,3,-1
 179 220 l 5,4,-1
 179 0 l 5,5,-1
 100 0 l 5,6,-1
 100 478 l 5,7,-1
 179 478 l 5,8,-1
 179 288 l 5,9,-1
 440 288 l 5,10,-1
 440 478 l 5,11,-1
 518 478 l 5,0,-1
EndSplineSet
EndChar

StartChar: afii10074
Encoding: 216 1080 399
Width: 603
Flags: W
LayerCount: 2
Back
SplineSet
518 478 m 1,0,-1
 518 0 l 1,1,-1
 440 0 l 1,2,-1
 440 220 l 1,3,-1
 179 220 l 1,4,-1
 179 0 l 1,5,-1
 100 0 l 1,6,-1
 100 478 l 1,7,-1
 179 478 l 5,8,-1
 179 288 l 1,9,-1
 440 288 l 1,10,-1
 440 478 l 1,11,-1
 518 478 l 1,0,-1
EndSplineSet
Fore
SplineSet
100 478 m 1,0,-1
 179 478 l 1,1,-1
 179 118 l 1,2,-1
 440 478 l 1,3,-1
 518 478 l 1,4,-1
 518 0 l 1,5,-1
 440 0 l 1,6,-1
 440 360 l 1,7,-1
 179 0 l 1,8,-1
 100 0 l 1,9,-1
 100 478 l 1,0,-1
EndSplineSet
EndChar

StartChar: afii10076
Encoding: 218 1082 401
Width: 544
Flags: W
LayerCount: 2
Back
SplineSet
244 253 m 1,0,-1
 180 201 l 1,1,-1
 180 0 l 1,2,-1
 101 0 l 1,3,-1
 101 478 l 1,4,-1
 180 478 l 1,5,-1
 180 285 l 1,6,-1
 411 478 l 1,7,-1
 521 478 l 1,8,-1
 301 299 l 1,9,-1
 532 0 l 1,10,-1
 435 0 l 1,11,-1
 244 253 l 1,0,-1
EndSplineSet
Fore
SplineSet
254 228 m 5,0,-1
 180 228 l 5,1,-1
 180 0 l 5,2,-1
 101 0 l 5,3,-1
 101 478 l 5,4,-1
 180 478 l 5,5,-1
 180 291 l 5,6,-1
 226 291 l 5,7,-1
 371 479 l 5,8,-1
 481 479 l 5,9,-1
 311 274 l 5,10,-1
 512 0 l 5,11,-1
 415 0 l 5,12,-1
 254 228 l 5,0,-1
EndSplineSet
EndChar

StartChar: afii10077
Encoding: 219 1083 402
Width: 564
Flags: W
HStem: -11 81<74 109 74 140.5> 0 21G<400 400 400 479> 418 61<220 400 220 220>
VStem: 20 200<2 298 82 298> 141 79<334 418> 400 79<0 418 418 418>
LayerCount: 2
Fore
SplineSet
400 0 m 1,0,-1
 400 418 l 1,1,-1
 220 418 l 1,2,-1
 220 298 l 2,3,4
 220 251 220 251 218.5 216.5 c 128,-1,5
 217 182 217 182 212 144 c 128,-1,6
 207 106 207 106 196.5 80 c 128,-1,7
 186 54 186 54 170.5 32 c 128,-1,8
 155 10 155 10 131 -0.5 c 128,-1,9
 107 -11 107 -11 75 -11 c 0,10,11
 52 -11 52 -11 20 2 c 1,12,-1
 20 82 l 1,13,14
 56 70 56 70 81 70 c 0,15,16
 119 70 119 70 130 132.5 c 128,-1,17
 141 195 141 195 141 334 c 2,18,-1
 141 479 l 1,19,-1
 479 479 l 1,20,-1
 479 0 l 1,21,-1
 400 0 l 1,0,-1
EndSplineSet
EndChar

StartChar: afii10078
Encoding: 220 1084 403
Width: 724
Flags: W
HStem: 0 21G<100 172 100 100 326 405 326 326 560 639 560 560> 458 20G<100 215 215 215 527 639 639 639>
VStem: 100 72<0 300 0 478> 540 79 560 79<0 300 300 300>
LayerCount: 2
Fore
SplineSet
560 0 m 1,0,-1
 560 300 l 1,1,-1
 570 395 l 1,2,-1
 405 0 l 1,3,-1
 326 0 l 1,4,-1
 162 395 l 1,5,-1
 172 300 l 1,6,-1
 172 0 l 1,7,-1
 100 0 l 1,8,-1
 100 478 l 1,9,-1
 215 478 l 1,10,-1
 371 92 l 1,11,-1
 527 478 l 1,12,-1
 639 478 l 1,13,-1
 639 0 l 1,14,-1
 560 0 l 1,0,-1
EndSplineSet
EndChar

StartChar: afii10073
Encoding: 215 1079 404
Width: 439
Flags: W
HStem: -11 70 -11 160<20 277.5> 234 54<148 221 148 221> 352 145<20 247.5 20 247.5> 432 65
VStem: 20 82<111 149 111 149 352 379.5> 301 80<351.5 389> 319 80<132.5 188.5>
LayerCount: 2
Fore
SplineSet
20 352 m 1,0,1
 20 394 20 394 37.5 424.5 c 128,-1,2
 55 455 55 455 84 470 c 128,-1,3
 113 485 113 485 141 491 c 128,-1,4
 169 497 169 497 199 497 c 0,5,6
 278 497 278 497 329.5 467 c 128,-1,7
 381 437 381 437 381 377 c 0,8,9
 381 299 381 299 319 272 c 1,10,11
 399 250 399 250 399 158 c 0,12,13
 399 88 399 88 352 38.5 c 128,-1,14
 305 -11 305 -11 209 -11 c 0,15,16
 136 -11 136 -11 78 33 c 128,-1,17
 20 77 20 77 20 149 c 1,18,-1
 102 149 l 1,19,20
 102 97 102 97 134.5 73 c 128,-1,21
 167 49 167 49 209 49 c 0,22,23
 266 49 266 49 292.5 81 c 128,-1,24
 319 113 319 113 319 157 c 0,25,26
 319 202 319 202 295 218 c 128,-1,27
 271 234 271 234 221 234 c 2,28,-1
 148 234 l 1,29,-1
 148 288 l 1,30,-1
 221 288 l 2,31,32
 270 288 270 288 285.5 306.5 c 128,-1,33
 301 325 301 325 301 364 c 0,34,35
 301 437 301 437 199 437 c 0,36,37
 159 437 159 437 130.5 414.5 c 128,-1,38
 102 392 102 392 102 352 c 1,39,-1
 20 352 l 1,0,1
EndSplineSet
EndChar

StartChar: afii10072
Encoding: 214 1078 405
Width: 763
Flags: W
HStem: 0 21G<10 107 10 10 342 421 342 342 656 656 656 753> 228 63<296 342 296 342 268 342 421 467> 459 20G<41 151 151 151 342 421 421 421 612 722 722 722>
VStem: 342 79<0 228 0 228 291 479>
LayerCount: 2
Fore
SplineSet
495 228 m 1,0,-1
 421 228 l 1,1,-1
 421 0 l 1,2,-1
 342 0 l 1,3,-1
 342 228 l 1,4,-1
 268 228 l 1,5,-1
 107 0 l 1,6,-1
 10 0 l 1,7,-1
 211 274 l 1,8,-1
 41 479 l 1,9,-1
 151 479 l 1,10,-1
 296 291 l 1,11,-1
 342 291 l 1,12,-1
 342 479 l 1,13,-1
 421 479 l 1,14,-1
 421 291 l 1,15,-1
 467 291 l 1,16,-1
 612 479 l 1,17,-1
 722 479 l 1,18,-1
 552 274 l 1,19,-1
 753 0 l 1,20,-1
 656 0 l 1,21,-1
 495 228 l 1,0,-1
EndSplineSet
EndChar

StartChar: afii10069
Encoding: 212 1076 406
Width: 555
Flags: W
HStem: -82 150<50 106 50 129 50 106 479 535> 0 68<50 129 188 400> 418 61<220 400 220 220>
VStem: 50 79<-82 0 -82 68 -82 68> 141 79<334 418> 400 79<68 418 418 418> 456 79<-82 0 0 0>
LayerCount: 2
Fore
SplineSet
129 0 m 1,0,-1
 129 -82 l 1,1,-1
 50 -82 l 1,2,-1
 50 68 l 1,3,-1
 106 68 l 1,4,5
 128 91 128 91 134.5 154.5 c 128,-1,6
 141 218 141 218 141 334 c 2,7,-1
 141 479 l 1,8,-1
 479 479 l 1,9,-1
 479 68 l 1,10,-1
 535 68 l 1,11,-1
 535 -82 l 1,12,-1
 456 -82 l 1,13,-1
 456 0 l 1,14,-1
 129 0 l 1,0,-1
400 68 m 1,15,-1
 400 418 l 1,16,-1
 220 418 l 1,17,-1
 220 298 l 2,18,19
 220 138 220 138 188 68 c 1,20,-1
 400 68 l 1,15,-1
EndSplineSet
EndChar

StartChar: afii10068
Encoding: 211 1075 407
Width: 400
Flags: W
HStem: 0 21G<50 129 50 50> 411 68<129 390 129 129>
VStem: 50 79<0 411 0 479 0 479>
LayerCount: 2
Fore
SplineSet
50 479 m 1,0,-1
 390 479 l 1,1,-1
 390 411 l 1,2,-1
 129 411 l 1,3,-1
 129 0 l 1,4,-1
 50 0 l 1,5,-1
 50 479 l 1,0,-1
EndSplineSet
EndChar

StartChar: afii10067
Encoding: 210 1074 408
Width: 483
Flags: W
HStem: 0 57<129 250> 228 57<129 234 129 234 234 244> 433 57<129 254 129 129>
VStem: 50 79<57 228 285 433> 337 78 372 43 372 81
LayerCount: 2
Fore
SplineSet
327 364 m 0,0,1
 327 399 327 399 310 416 c 128,-1,2
 293 433 293 433 254 433 c 2,3,-1
 129 433 l 1,4,-1
 129 285 l 1,5,-1
 234 285 l 2,6,7
 277 285 277 285 302 306 c 128,-1,8
 327 327 327 327 327 364 c 0,0,1
50 490 m 1,9,-1
 256 490 l 2,10,11
 405 490 405 490 405 379 c 0,12,13
 405 291 405 291 327 274 c 1,14,15
 381 267 381 267 412 232.5 c 128,-1,16
 443 198 443 198 443 140 c 0,17,18
 443 68 443 68 395.5 34 c 128,-1,19
 348 0 348 0 250 0 c 2,20,-1
 50 0 l 1,21,-1
 50 490 l 1,9,-1
129 228 m 1,22,-1
 129 57 l 1,23,-1
 254 57 l 2,24,25
 362 57 362 57 362 140 c 0,26,27
 362 228 362 228 244 228 c 2,28,-1
 129 228 l 1,22,-1
EndSplineSet
EndChar

StartChar: afii10066
Encoding: 209 1073 409
Width: 523
Flags: W
HStem: -11 70 420 70 661 20G
VStem: 50 79 402 81
LayerCount: 2
Fore
SplineSet
129 407 m 1,0,-1
 130 408 l 1,1,2
 178 491 178 491 270 491 c 0,3,4
 367 491 367 491 425.5 419 c 128,-1,5
 484 347 484 347 484 241 c 0,6,7
 484 136 484 136 425 63 c 128,-1,8
 366 -10 366 -10 271 -10 c 0,9,10
 172 -10 172 -10 111.5 47 c 128,-1,11
 51 104 51 104 51 201 c 2,12,-1
 51 387 l 2,13,14
 51 454 51 454 75.5 511.5 c 128,-1,15
 100 569 100 569 149 596 c 0,16,17
 158 601 158 601 251 636 c 0,18,19
 359 677 359 677 368 682 c 1,20,-1
 400 632 l 1,21,22
 391 627 391 627 367.5 616.5 c 128,-1,23
 344 606 344 606 315 594 c 128,-1,24
 286 582 286 582 278 578 c 0,25,26
 176 533 176 533 162 522 c 0,27,28
 149 512 149 512 139 488 c 128,-1,29
 129 464 129 464 129 443 c 2,30,-1
 129 407 l 1,0,-1
130 283 m 2,31,-1
 130 205 l 2,32,33
 130 143 130 143 168 101.5 c 128,-1,34
 206 60 206 60 265 60 c 0,35,36
 327 60 327 60 365 113.5 c 128,-1,37
 403 167 403 167 403 241 c 128,-1,38
 403 315 403 315 365.5 368 c 128,-1,39
 328 421 328 421 265 421 c 0,40,41
 206 421 206 421 168 382.5 c 128,-1,42
 130 344 130 344 130 283 c 2,31,-1
EndSplineSet
EndChar

StartChar: afii10084
Encoding: 226 1090 410
Width: 491
Flags: W
HStem: 0 21G<211 290 211 211> 411 68<20 211 20 471 290 471 290 290>
VStem: 211 79<0 411 0 411>
LayerCount: 2
Fore
SplineSet
471 479 m 1,0,-1
 471 411 l 1,1,-1
 290 411 l 1,2,-1
 290 0 l 1,3,-1
 211 0 l 1,4,-1
 211 411 l 1,5,-1
 20 411 l 1,6,-1
 20 479 l 1,7,-1
 471 479 l 1,0,-1
EndSplineSet
EndChar

StartChar: afii10086
Encoding: 228 1092 411
Width: 791
Flags: W
HStem: -11 68 422 68 661 20G
VStem: 40 80 356 79 671 80
LayerCount: 2
Fore
SplineSet
635 373 m 1,0,-1
 635 375 l 1,1,2
 599 423 599 423 530 423 c 0,3,4
 473 423 473 423 436 388 c 1,5,-1
 436 90 l 1,6,7
 469 57 469 57 526 57 c 0,8,9
 596 57 596 57 633 105 c 0,10,11
 671 154 671 154 671 239 c 0,12,13
 671 325 671 325 635 373 c 1,0,-1
356 682 m 1,14,-1
 433 682 l 1,15,-1
 433 474 l 1,16,17
 475 492 475 492 526 492 c 0,18,19
 626 492 626 492 688 427 c 128,-1,20
 750 362 750 362 750 241 c 128,-1,21
 750 120 750 120 689 56 c 0,22,23
 627 -9 627 -9 527 -9 c 0,24,25
 476 -9 476 -9 434 9 c 1,26,-1
 434 -197 l 1,27,-1
 355 -197 l 1,28,-1
 355 9 l 1,29,30
 313 -9 313 -9 262 -9 c 0,31,32
 162 -9 162 -9 100 56 c 0,33,34
 39 120 39 120 39 241 c 128,-1,35
 39 362 39 362 101 427 c 128,-1,36
 163 492 163 492 263 492 c 0,37,38
 314 492 314 492 356 474 c 1,39,-1
 356 682 l 1,14,-1
354 90 m 1,40,-1
 354 386 l 1,41,42
 317 421 317 421 260 421 c 0,43,44
 191 421 191 421 155 373 c 128,-1,45
 119 325 119 325 119 239 c 0,46,47
 119 154 119 154 157 105 c 0,48,49
 194 57 194 57 264 57 c 0,50,51
 321 57 321 57 354 90 c 1,40,-1
EndSplineSet
EndChar

StartChar: afii10088
Encoding: 230 1094 412
Width: 525
Flags: W
HStem: 0 68<129 389 129 433> 459 20G<50 129 129 129 389 468 468 468>
VStem: 50 79<68 479 68 479 68 479> 389 79<68 479 68 479> 433 72<-82 0 0 0>
LayerCount: 2
Fore
SplineSet
50 0 m 1,0,-1
 50 479 l 1,1,-1
 129 479 l 1,2,-1
 129 68 l 1,3,-1
 389 68 l 1,4,-1
 389 479 l 1,5,-1
 468 479 l 1,6,-1
 468 68 l 1,7,-1
 505 68 l 1,8,-1
 505 -82 l 1,9,-1
 433 -82 l 1,10,-1
 433 0 l 1,11,-1
 50 0 l 1,0,-1
EndSplineSet
EndChar

StartChar: afii10089
Encoding: 231 1095 413
Width: 508
Flags: W
HStem: 0 21G<379 458 379 379> 111 69<194.5 253.5 194.5 256.5> 459 20G<41 120 120 120 379 458 458 458>
VStem: 40 79 379 79<0 215 215 215 358 479 0 479>
LayerCount: 2
Fore
SplineSet
379 159 m 1,0,1
 311 111 311 111 220 111 c 0,2,3
 140 111 140 111 90 156 c 0,4,5
 41 201 41 201 41 295 c 2,6,-1
 41 479 l 1,7,-1
 120 479 l 1,8,-1
 120 301 l 2,9,10
 120 180 120 180 232 180 c 0,11,12
 314 180 314 180 379 239 c 1,13,-1
 379 479 l 1,14,-1
 458 479 l 1,15,-1
 458 0 l 1,16,-1
 379 0 l 1,17,-1
 379 159 l 1,0,1
EndSplineSet
EndChar

StartChar: afii10090
Encoding: 232 1096 414
Width: 815
Flags: W
HStem: 0 68<128 368 446 686> 459 20G<50 128 128 128 368 446 446 446 686 765 765 765>
VStem: 50 78<68 479 68 479 68 479> 368 78<68 479 68 479> 686 79<68 479 0 479>
LayerCount: 2
Fore
SplineSet
50 0 m 1,0,-1
 50 479 l 1,1,-1
 128 479 l 1,2,-1
 128 68 l 1,3,-1
 368 68 l 1,4,-1
 368 479 l 1,5,-1
 446 479 l 1,6,-1
 446 68 l 1,7,-1
 686 68 l 1,8,-1
 686 479 l 1,9,-1
 765 479 l 1,10,-1
 765 0 l 1,11,-1
 50 0 l 1,0,-1
EndSplineSet
EndChar

StartChar: afii10091
Encoding: 233 1097 415
Width: 822
Flags: W
HStem: -82 150<765 802> 0 68<128 368 446 686> 459 20G<50 128 128 128 368 446 446 446 686 765 765 765>
VStem: 50 78<68 479 68 479 68 479> 368 78<68 479 68 479> 686 79<68 479 68 479> 730 72<-82 0 0 0>
LayerCount: 2
Fore
SplineSet
50 0 m 1,0,-1
 50 479 l 1,1,-1
 128 479 l 1,2,-1
 128 68 l 1,3,-1
 368 68 l 1,4,-1
 368 479 l 1,5,-1
 446 479 l 1,6,-1
 446 68 l 1,7,-1
 686 68 l 1,8,-1
 686 479 l 1,9,-1
 765 479 l 1,10,-1
 765 68 l 1,11,-1
 802 68 l 1,12,-1
 802 -82 l 1,13,-1
 730 -82 l 1,14,-1
 730 0 l 1,15,-1
 50 0 l 1,0,-1
EndSplineSet
EndChar

StartChar: afii10092
Encoding: 234 1098 416
Width: 579
Flags: W
HStem: 0 57<244 323 323 326> 262 68<244 326 326 327 244 326> 412 67<20 165 20 244>
VStem: 165 79<57 262 57 330 330 412 412 412> 459 80<159 160 160 192>
LayerCount: 2
Fore
SplineSet
459 159 m 2,0,-1
 459 160 l 2,1,2
 459 211 459 211 429 236.5 c 128,-1,3
 399 262 399 262 327 262 c 2,4,-1
 244 262 l 1,5,-1
 244 57 l 1,6,-1
 323 57 l 2,7,8
 395 57 395 57 427 83 c 128,-1,9
 459 109 459 109 459 159 c 2,0,-1
165 412 m 1,10,-1
 20 412 l 1,11,-1
 20 479 l 1,12,-1
 244 479 l 1,13,-1
 244 330 l 1,14,-1
 326 330 l 2,15,16
 430 330 430 330 484.5 283.5 c 128,-1,17
 539 237 539 237 539 159 c 0,18,19
 539 83 539 83 485 41.5 c 128,-1,20
 431 0 431 0 326 0 c 2,21,-1
 165 0 l 1,22,-1
 165 412 l 1,10,-1
EndSplineSet
EndChar

StartChar: afii10093
Encoding: 235 1099 417
Width: 605
Flags: W
HStem: 0 21G<50 211 50 50 476 555 476 476> 0 57<129 208 208 211> 262 68<129 211 211 212 129 211> 459 20G<50 129 129 129 476 555 555 555>
VStem: 50 79<57 262 57 330 330 479> 344 80<159 160 160 192> 476 79<0 479 0 479>
LayerCount: 2
Fore
SplineSet
476 479 m 1,0,-1
 555 479 l 1,1,-1
 555 0 l 1,2,-1
 476 0 l 1,3,-1
 476 479 l 1,0,-1
344 159 m 2,4,-1
 344 160 l 2,5,6
 344 211 344 211 314 236.5 c 128,-1,7
 284 262 284 262 212 262 c 2,8,-1
 129 262 l 1,9,-1
 129 57 l 1,10,-1
 208 57 l 2,11,12
 280 57 280 57 312 83 c 128,-1,13
 344 109 344 109 344 159 c 2,4,-1
50 479 m 1,14,-1
 129 479 l 1,15,-1
 129 330 l 1,16,-1
 211 330 l 2,17,18
 315 330 315 330 369.5 283.5 c 128,-1,19
 424 237 424 237 424 159 c 0,20,21
 424 83 424 83 370 41.5 c 128,-1,22
 316 0 316 0 211 0 c 2,23,-1
 50 0 l 1,24,-1
 50 479 l 1,14,-1
EndSplineSet
EndChar

StartChar: afii10094
Encoding: 236 1100 418
Width: 464
Flags: W
HStem: 0 57<129 208 208 211> 262 68<129 211 211 212 129 211> 459 20G<50 129 129 129>
VStem: 50 79<57 262 57 330 330 479> 344 80<159 160 160 192>
LayerCount: 2
Fore
SplineSet
344 159 m 2,0,-1
 344 160 l 2,1,2
 344 211 344 211 314 236.5 c 128,-1,3
 284 262 284 262 212 262 c 2,4,-1
 129 262 l 1,5,-1
 129 57 l 1,6,-1
 208 57 l 2,7,8
 280 57 280 57 312 83 c 128,-1,9
 344 109 344 109 344 159 c 2,0,-1
50 479 m 1,10,-1
 129 479 l 1,11,-1
 129 330 l 1,12,-1
 211 330 l 2,13,14
 315 330 315 330 369.5 283.5 c 128,-1,15
 424 237 424 237 424 159 c 0,16,17
 424 83 424 83 370 41.5 c 128,-1,18
 316 0 316 0 211 0 c 2,19,-1
 50 0 l 1,20,-1
 50 479 l 1,10,-1
EndSplineSet
EndChar

StartChar: afii10095
Encoding: 237 1101 419
Width: 491
Flags: W
HStem: -11 70<199 273.5 199 299> 206 68<165 367 165 367> 420 70<198.5 267.5>
VStem: 40 81<126.5 161 126.5 161> 368 83
LayerCount: 2
Fore
SplineSet
40 161 m 1,0,-1
 121 161 l 1,1,2
 121 59 121 59 235 59 c 0,3,4
 290 59 290 59 324.5 100.5 c 128,-1,5
 359 142 359 142 367 206 c 1,6,-1
 165 206 l 1,7,-1
 165 274 l 1,8,-1
 367 274 l 1,9,10
 359 339 359 339 322.5 379.5 c 128,-1,11
 286 420 286 420 226 420 c 0,12,13
 187 420 187 420 159.5 394.5 c 128,-1,14
 132 369 132 369 121 331 c 1,15,-1
 41 338 l 1,16,17
 57 407 57 407 108.5 448.5 c 128,-1,18
 160 490 160 490 240 490 c 0,19,20
 333 490 333 490 392 418 c 128,-1,21
 451 346 451 346 451 242 c 0,22,23
 451 135 451 135 390.5 62 c 128,-1,24
 330 -11 330 -11 233 -11 c 0,25,26
 149 -11 149 -11 94.5 35.5 c 128,-1,27
 40 82 40 82 40 161 c 1,0,-1
EndSplineSet
EndChar

StartChar: afii10096
Encoding: 238 1102 420
Width: 666
Flags: W
HStem: -11 68<376 422 376 436.5> 0 21G<50 129 50 50> 227 68<129 180 129 129> 422 68 458 20G<50 127 127 127>
VStem: 50 79<0 227 0 478> 180 81 546 80
LayerCount: 2
Fore
SplineSet
50 478 m 1,0,-1
 127 478 l 1,1,-1
 127 295 l 1,2,-1
 182 295 l 1,3,4
 194 376 194 376 240 425 c 0,5,6
 302 490 302 490 402 490 c 128,-1,7
 502 490 502 490 564 425 c 128,-1,8
 626 360 626 360 626 239 c 128,-1,9
 626 118 626 118 565 54 c 0,10,11
 503 -11 503 -11 403 -11 c 128,-1,12
 303 -11 303 -11 241 54 c 0,13,14
 183 115 183 115 180 227 c 1,15,-1
 129 227 l 1,16,-1
 129 0 l 1,17,-1
 50 0 l 1,18,-1
 50 478 l 1,0,-1
508 373 m 128,-1,20
 472 421 472 421 403 421 c 128,-1,21
 334 421 334 421 297 373 c 0,22,23
 260 326 260 326 260 239 c 0,24,25
 260 154 260 154 295 105 c 0,26,27
 330 57 330 57 399 57 c 128,-1,28
 468 57 468 57 506 105 c 0,29,30
 544 154 544 154 544 239 c 0,31,19
 544 325 544 325 508 373 c 128,-1,20
EndSplineSet
EndChar

StartChar: afii10097
Encoding: 239 1103 421
Width: 491
Flags: W
HStem: 0 21G<10 107 10 10 362 441 362 362> 206 68<258 362 258 258> 422 56<227 441 252 362>
VStem: 81 84<323 372 323 393.5> 362 79<0 206 206 206 274 422 422 422>
LayerCount: 2
Fore
SplineSet
441 0 m 1,0,-1
 362 0 l 1,1,-1
 362 206 l 1,2,-1
 258 206 l 1,3,-1
 107 0 l 1,4,-1
 10 0 l 1,5,-1
 185 230 l 1,6,-1
 160 242 l 2,7,8
 157 243 157 243 151.5 245.5 c 128,-1,9
 146 248 146 248 132.5 256.5 c 128,-1,10
 119 265 119 265 108.5 275.5 c 128,-1,11
 98 286 98 286 89.5 304.5 c 128,-1,12
 81 323 81 323 81 344 c 0,13,14
 81 413 81 413 129 445.5 c 128,-1,15
 177 478 177 478 252 478 c 2,16,-1
 441 478 l 1,17,-1
 441 0 l 1,0,-1
247 422 m 2,18,19
 214 422 214 422 189.5 402 c 128,-1,20
 165 382 165 382 165 347 c 0,21,22
 165 313 165 313 189.5 293.5 c 128,-1,23
 214 274 214 274 247 274 c 2,24,-1
 362 274 l 1,25,-1
 362 422 l 1,26,-1
 247 422 l 2,18,19
EndSplineSet
EndChar

StartChar: afii10018
Encoding: 177 1041 423
Width: 562
Flags: W
HStem: 0 69<139 294 294 296> 280 68<139 293 293 294 139 293> 561 68<139 424 139 139>
VStem: 60 79<69 280 348 561> 428 84<158 190>
LayerCount: 2
Fore
SplineSet
293 348 m 2,0,1
 326 348 326 348 361 339.5 c 128,-1,2
 396 331 396 331 431.5 312 c 128,-1,3
 467 293 467 293 489.5 256.5 c 128,-1,4
 512 220 512 220 512 172 c 0,5,6
 512 56 512 56 399 15 c 0,7,8
 357 0 357 0 296 0 c 2,9,-1
 60 0 l 1,10,-1
 60 629 l 1,11,-1
 424 629 l 1,12,-1
 424 561 l 1,13,-1
 139 561 l 1,14,-1
 139 348 l 1,15,-1
 293 348 l 2,0,1
294 69 m 2,16,17
 366 69 366 69 397 97 c 128,-1,18
 428 125 428 125 428 174 c 128,-1,19
 428 223 428 223 394 251 c 0,20,21
 359 280 359 280 294 280 c 2,22,-1
 139 280 l 1,23,-1
 139 69 l 1,24,-1
 294 69 l 2,16,17
EndSplineSet
EndChar

StartChar: afii10021
Encoding: 180 1044 424
Width: 589
Flags: W
HStem: -81 150<11 52 11 90 11 52 531 568> 0 69<134 448 11 90> 561 68<230 448 230 230>
VStem: 11 79<-81 0 -81 69 -81 69> 160 70<460 561> 448 83<69 561 561 561> 489 79<-81 0 0 0>
LayerCount: 2
Fore
SplineSet
568 69 m 1,0,-1
 568 -81 l 1,1,-1
 489 -81 l 1,2,-1
 489 0 l 1,3,-1
 90 0 l 1,4,-1
 90 -81 l 1,5,-1
 11 -81 l 1,6,-1
 11 69 l 1,7,-1
 52 69 l 1,8,9
 97 121 97 121 128.5 229.5 c 128,-1,10
 160 338 160 338 160 460 c 2,11,-1
 160 629 l 1,12,-1
 531 629 l 1,13,-1
 531 69 l 1,14,-1
 568 69 l 1,0,-1
448 69 m 1,15,-1
 448 561 l 1,16,-1
 230 561 l 1,17,-1
 230 436 l 2,18,19
 230 221 230 221 134 69 c 1,20,-1
 448 69 l 1,15,-1
EndSplineSet
EndChar

StartChar: afii10024
Encoding: 182 1046 425
Width: 852
Flags: W
HStem: 0 21G<10 112 10 10 386 466 386 386 740 842 740 740> 609 20G<35 134 134 134 386 466 466 466 718 817 817 817>
VStem: 417 80
LayerCount: 2
Fore
SplineSet
386 372 m 1,0,-1
 386 629 l 1,1,-1
 466 629 l 1,2,-1
 466 372 l 1,3,-1
 519 372 l 1,4,-1
 718 629 l 1,5,-1
 817 629 l 1,6,-1
 591 335 l 1,7,-1
 842 0 l 1,8,-1
 740 0 l 1,9,-1
 518 300 l 1,10,-1
 466 300 l 1,11,-1
 466 0 l 1,12,-1
 386 0 l 1,13,-1
 386 300 l 1,14,-1
 334 300 l 1,15,-1
 112 0 l 1,16,-1
 10 0 l 1,17,-1
 261 335 l 1,18,-1
 35 629 l 1,19,-1
 134 629 l 1,20,-1
 333 372 l 1,21,-1
 386 372 l 1,0,-1
EndSplineSet
EndChar

StartChar: afii10025
Encoding: 183 1047 426
Width: 576
Flags: W
HStem: -11 72 290 63 568 72
VStem: 52 82 70 82 420 85 444 85
LayerCount: 2
Fore
SplineSet
505 468 m 1,0,-1
 502 465 l 1,1,2
 502 365 502 365 392 326 c 1,3,4
 451 310 451 310 489 270 c 0,5,6
 526 232 526 232 526 170 c 0,7,8
 526 88 526 88 463 37 c 128,-1,9
 400 -14 400 -14 297 -14 c 128,-1,10
 194 -14 194 -14 122 40 c 128,-1,11
 50 94 50 94 50 191 c 1,12,-1
 132 191 l 1,13,14
 133 127 133 127 179 92 c 0,15,16
 223 58 223 58 295 58 c 0,17,18
 365 58 365 58 404 91 c 128,-1,19
 443 124 443 124 443 174 c 128,-1,20
 443 224 443 224 406 255 c 0,21,22
 368 287 368 287 286 287 c 2,23,-1
 214 287 l 1,24,-1
 214 350 l 1,25,-1
 263 350 l 2,26,27
 334 350 334 350 377 379 c 0,28,29
 419 408 419 408 419 456 c 128,-1,30
 419 504 419 504 385 535 c 128,-1,31
 351 566 351 566 295 566 c 128,-1,32
 239 566 239 566 202 547 c 0,33,34
 164.5 527.5 164.5 527.5 151 475 c 1,35,-1
 69 475 l 1,36,37
 79.5 557.5 79.5 557.5 138 598 c 0,38,39
 197 639 197 639 288 639 c 128,-1,40
 379 639 379 639 442 591 c 128,-1,41
 505 543 505 543 505 468 c 1,0,-1
EndSplineSet
EndChar

StartChar: afii10026
Encoding: 184 1048 427
Width: 587
Flags: W
HStem: 0 21G<60 169 60 60 448 527 448 448> 609 20G<60 139 139 139 418 527 527 527>
VStem: 60 79<151 629 151 629 151 629> 101 79 448 79<0 478 478 478> 489 79
LayerCount: 2
Fore
SplineSet
139 629 m 1,0,-1
 139 151 l 1,1,-1
 129 68 l 1,2,-1
 418 629 l 1,3,-1
 527 629 l 1,4,-1
 527 0 l 1,5,-1
 448 0 l 1,6,-1
 448 478 l 1,7,-1
 458 561 l 1,8,-1
 169 0 l 1,9,-1
 60 0 l 1,10,-1
 60 629 l 1,11,-1
 139 629 l 1,0,-1
EndSplineSet
EndChar

StartChar: afii10027
Encoding: 185 1049 428
Width: 587
Flags: W
HStem: 0 21G<60 169 60 60 448 527 448 448> 609 20G<60 139 139 139 418 527 527 527> 700 62<241.5 299 241.5 321>
VStem: 60 79<151 629 151 629 151 629> 101 79 148 77 437 83 448 79<0 478 478 478>
LayerCount: 2
Fore
SplineSet
460 827 m 1,0,1
 460 764 460 764 406 732 c 128,-1,2
 352 700 352 700 273 700 c 0,3,4
 195 700 195 700 142.5 733 c 128,-1,5
 90 766 90 766 88 827 c 1,6,-1
 165 827 l 1,7,8
 174 762 174 762 275 762 c 0,9,10
 314 762 314 762 345.5 780 c 128,-1,11
 377 798 377 798 377 827 c 1,12,-1
 460 827 l 1,0,1
139 629 m 1,13,-1
 139 151 l 1,14,-1
 129 68 l 1,15,-1
 418 629 l 1,16,-1
 527 629 l 1,17,-1
 527 0 l 1,18,-1
 448 0 l 1,19,-1
 448 478 l 1,20,-1
 458 561 l 1,21,-1
 169 0 l 1,22,-1
 60 0 l 1,23,-1
 60 629 l 1,24,-1
 139 629 l 1,13,-1
EndSplineSet
EndChar

StartChar: afii10028
Encoding: 186 1050 429
Width: 536
Flags: W
HStem: 0 21G<60 140 60 60 414 516 414 414> 0 28 602 26 609 20G<60 140 140 140 392 491 491 491> 867 26
VStem: 50 103 100 80 101 80
LayerCount: 2
Fore
SplineSet
140 629 m 1,0,-1
 140 372 l 1,1,-1
 193 372 l 1,2,-1
 392 629 l 1,3,-1
 491 629 l 1,4,-1
 265 335 l 1,5,-1
 516 0 l 1,6,-1
 414 0 l 1,7,-1
 192 300 l 1,8,-1
 140 300 l 1,9,-1
 140 0 l 1,10,-1
 60 0 l 1,11,-1
 60 629 l 1,12,-1
 140 629 l 1,0,-1
EndSplineSet
EndChar

StartChar: afii10029
Encoding: 187 1051 430
Width: 601
Flags: W
HStem: -11 69<50 90.5 50 99> 0 21G<10 10 458 541 458 458> 561 68<241 458 241 241>
VStem: 160 81<442 561> 458 83<0 561 561 561>
LayerCount: 2
Fore
SplineSet
458 0 m 1,0,-1
 458 561 l 1,1,-1
 241 561 l 1,2,-1
 241 374 l 2,3,4
 241 -11 241 -11 54 -11 c 0,5,6
 38 -11 38 -11 10 0 c 1,7,-1
 10 68 l 1,8,9
 47 58 47 58 58 58 c 0,10,11
 160 58 160 58 160 442 c 2,12,-1
 160 629 l 1,13,-1
 541 629 l 1,14,-1
 541 0 l 1,15,-1
 458 0 l 1,0,-1
EndSplineSet
EndChar

StartChar: afii10037
Encoding: 195 1059 431
Width: 526
Flags: W
HStem: 0 21G<121 217 121 121> 609 20G<10 105 105 105 421 516 516 516>
LayerCount: 2
Fore
SplineSet
217 0 m 1,0,-1
 121 0 l 1,1,-1
 215 210 l 1,2,-1
 10 629 l 1,3,-1
 105 629 l 1,4,-1
 267 270 l 1,5,-1
 421 629 l 1,6,-1
 516 629 l 1,7,-1
 217 0 l 1,0,-1
EndSplineSet
EndChar

StartChar: afii10038
Encoding: 196 1060 432
Width: 747
Flags: W
HStem: 0 21G<333 333 333 412> 54 58<321 325 323 333 321 335 414 424> 518 57 609 20G
VStem: 47 82 333 79<0 54 0 518> 616 82
LayerCount: 2
Fore
SplineSet
333 518 m 1,0,-1
 321 518 l 2,1,2
 233 518 233 518 182 465 c 128,-1,3
 131 412 131 412 131 313 c 128,-1,4
 131 214 131 214 182 163 c 128,-1,5
 233 112 233 112 321 112 c 2,6,-1
 333 112 l 1,7,-1
 333 518 l 1,0,-1
333 0 m 1,8,-1
 335 54 l 1,9,-1
 323 54 l 2,10,11
 200 54 200 54 125 120 c 128,-1,12
 50 186 50 186 50 314 c 0,13,14
 50 441.5 50 441.5 125 509 c 0,15,16
 199 576 199 576 322 576 c 2,17,-1
 334 576 l 1,18,-1
 334 630 l 1,19,-1
 413 630 l 1,20,-1
 413 576 l 1,21,-1
 425 576 l 2,22,23
 548 576 548 576 622 509 c 0,24,25
 697 441.5 697 441.5 697 314 c 0,26,27
 697 186 697 186 622 120 c 128,-1,28
 547 54 547 54 424 54 c 2,29,-1
 412 54 l 1,30,-1
 412 0 l 1,31,-1
 333 0 l 1,8,-1
414 112 m 1,32,-1
 426 112 l 2,33,34
 514 112 514 112 565 163 c 128,-1,35
 616 214 616 214 616 313 c 128,-1,36
 616 412 616 412 565 465 c 128,-1,37
 514 518 514 518 426 518 c 2,38,-1
 414 518 l 1,39,-1
 414 112 l 1,32,-1
EndSplineSet
EndChar

StartChar: afii10040
Encoding: 198 1062 433
Width: 626
Flags: W
HStem: 0 68<139 448 139 527> 609 20G<60 139 139 139 448 527 527 527>
VStem: 101 79 489 79 568 79
LayerCount: 2
Fore
SplineSet
60 0 m 1,0,-1
 60 629 l 1,1,-1
 139 629 l 1,2,-1
 139 68 l 1,3,-1
 448 68 l 1,4,-1
 448 629 l 1,5,-1
 527 629 l 1,6,-1
 527 68 l 1,7,-1
 606 68 l 1,8,-1
 606 -140 l 1,9,-1
 527 -140 l 1,10,-1
 527 0 l 1,11,-1
 60 0 l 1,0,-1
EndSplineSet
EndChar

StartChar: afii10041
Encoding: 199 1063 434
Width: 588
Flags: W
HStem: 0 21G<449 528 449 449> 179 72<265 320.5> 609 20G<50 129 129 129 449 528 528 528>
VStem: 87 79 486 79
LayerCount: 2
Fore
SplineSet
129 629 m 1,0,-1
 129 417 l 2,1,2
 129 329 129 329 173 290 c 0,3,4
 216 251 216 251 289 251 c 0,5,6
 346 251 346 251 381.5 263 c 128,-1,7
 417 275 417 275 449 305 c 1,8,-1
 449 629 l 1,9,-1
 528 629 l 1,10,-1
 528 0 l 1,11,-1
 449 0 l 1,12,-1
 449 227 l 1,13,14
 386 179 386 179 288 179 c 0,15,16
 178.5 179 178.5 179 114 239 c 0,17,18
 50 299 50 299 50 417 c 2,19,-1
 50 629 l 1,20,-1
 129 629 l 1,0,-1
EndSplineSet
EndChar

StartChar: afii10042
Encoding: 200 1064 435
Width: 829
Flags: W
HStem: 0 68<139 370 449 690> 609 20G<60 139 139 139 370 449 449 449 690 769 769 769>
VStem: 60 79<68 629 68 629 68 629> 370 79<68 629 68 629> 690 79<68 629 0 629>
LayerCount: 2
Fore
SplineSet
60 0 m 1,0,-1
 60 629 l 1,1,-1
 139 629 l 1,2,-1
 139 68 l 1,3,-1
 370 68 l 1,4,-1
 370 629 l 1,5,-1
 449 629 l 1,6,-1
 449 68 l 1,7,-1
 690 68 l 1,8,-1
 690 629 l 1,9,-1
 769 629 l 1,10,-1
 769 0 l 1,11,-1
 60 0 l 1,0,-1
EndSplineSet
EndChar

StartChar: afii10043
Encoding: 201 1065 436
Width: 868
Flags: W
HStem: 0 68<139 370 449 690> 609 20G<60 139 139 139 370 449 449 449 690 769 769 769>
VStem: 60 79<68 629 68 629 68 629> 370 79<68 629 68 629> 690 79<68 629> 769 79<-140 0 0 0 -140 629 -140 68>
LayerCount: 2
Fore
SplineSet
60 0 m 1,0,-1
 60 629 l 1,1,-1
 139 629 l 1,2,-1
 139 68 l 1,3,-1
 370 68 l 1,4,-1
 370 629 l 1,5,-1
 449 629 l 1,6,-1
 449 68 l 1,7,-1
 690 68 l 1,8,-1
 690 629 l 1,9,-1
 769 629 l 1,10,-1
 769 68 l 1,11,-1
 848 68 l 1,12,-1
 848 -140 l 1,13,-1
 769 -140 l 1,14,-1
 769 0 l 1,15,-1
 60 0 l 1,0,-1
EndSplineSet
EndChar

StartChar: afii10044
Encoding: 202 1066 437
Width: 631
Flags: W
HStem: 0 67<244 368 368 369> 317 69<244 368 244 369> 561 68<20 165 20 244>
VStem: 165 79<67 67 67 317 386 561 561 561> 499 82<175 213>
LayerCount: 2
Fore
SplineSet
527 52 m 0,0,1
 474 0 474 0 369 0 c 2,2,-1
 165 0 l 1,3,-1
 165 561 l 1,4,-1
 20 561 l 1,5,-1
 20 629 l 1,6,-1
 244 629 l 1,7,-1
 244 386 l 1,8,-1
 369 386 l 2,9,10
 473 386 473 386 527 335 c 128,-1,11
 581 284 581 284 581 195 c 0,12,13
 581 108 581 108 527 52 c 0,0,1
244 67 m 1,14,-1
 368 67 l 2,15,16
 433 67 433 67 466 102 c 0,17,18
 499 136 499 136 499 194 c 0,19,20
 499 251 499 251 466 284 c 128,-1,21
 433 317 433 317 368 317 c 2,22,-1
 244 317 l 1,23,-1
 244 67 l 1,14,-1
EndSplineSet
EndChar

StartChar: afii10045
Encoding: 203 1067 438
Width: 720
Flags: W
HStem: 0 68 318 68 609 20G
VStem: 60 79<384 627 384 627 384 627> 395 81 582 79
LayerCount: 2
Fore
SplineSet
421 52 m 1,0,-1
 421 50 l 1,1,2
 368 -2 368 -2 263 -2 c 2,3,-1
 60 -2 l 1,4,-1
 60 627 l 1,5,-1
 139 627 l 1,6,-1
 139 384 l 1,7,-1
 263 384 l 2,8,9
 367 384 367 384 421 333 c 128,-1,10
 475 282 475 282 475 193 c 0,11,12
 475 104.5 475 104.5 421 52 c 1,0,-1
262 315 m 2,13,-1
 138 315 l 1,14,-1
 138 65 l 1,15,-1
 262 65 l 2,16,17
 327 65 327 65 360 100 c 0,18,19
 393 134 393 134 393 192 c 0,20,21
 393 249 393 249 360 282 c 128,-1,22
 327 315 327 315 262 315 c 2,13,-1
581 626 m 1,23,-1
 660 626 l 1,24,-1
 660 -3 l 1,25,-1
 581 -3 l 1,26,-1
 581 626 l 1,23,-1
EndSplineSet
EndChar

StartChar: afii10046
Encoding: 204 1068 439
Width: 525
Flags: W
HStem: 0 68 318 68 609 20G
VStem: 60 79<384 627 384 627 384 627> 395 81
LayerCount: 2
Fore
SplineSet
421 52 m 1,0,-1
 421 50 l 1,1,2
 368 -2 368 -2 263 -2 c 2,3,-1
 60 -2 l 1,4,-1
 60 627 l 1,5,-1
 139 627 l 1,6,-1
 139 384 l 1,7,-1
 263 384 l 2,8,9
 367 384 367 384 421 333 c 128,-1,10
 475 282 475 282 475 193 c 0,11,12
 475 104.5 475 104.5 421 52 c 1,0,-1
262 315 m 2,13,-1
 138 315 l 1,14,-1
 138 65 l 1,15,-1
 262 65 l 2,16,17
 327 65 327 65 360 100 c 0,18,19
 393 134 393 134 393 192 c 0,20,21
 393 249 393 249 360 282 c 128,-1,22
 327 315 327 315 262 315 c 2,13,-1
EndSplineSet
EndChar

StartChar: afii10047
Encoding: 205 1069 440
Width: 613
Flags: W
HStem: -11 71 273 68 569 71
VStem: 52 85 480 87
LayerCount: 2
Fore
SplineSet
299 640 m 1,0,-1
 295 636 l 1,1,2
 413 636 413 636 488 552 c 128,-1,3
 563 468 563 468 563 317 c 128,-1,4
 563 166 563 166 491 76 c 128,-1,5
 419 -14 419 -14 302 -14 c 0,6,7
 184 -14 184 -14 117 44 c 128,-1,8
 50 102 50 102 50 201 c 1,9,-1
 135 201 l 1,10,11
 135 136 135 136 179 97 c 0,12,13
 222 58 222 58 298 58 c 0,14,15
 388 58 388 58 435 129 c 0,16,17
 473 186 473 186 480 271 c 1,18,-1
 241 271 l 1,19,-1
 241 339 l 1,20,-1
 482 339 l 1,21,22
 477.5 441 477.5 441 431 501 c 0,23,24
 378.5 567 378.5 567 299 567 c 0,25,26
 241 567 241 567 200 533 c 0,27,28
 157 498 157 498 138 440 c 1,29,-1
 53 457 l 1,30,31
 75.5 538 75.5 538 137 589 c 128,-1,32
 198.5 640 198.5 640 299 640 c 1,0,-1
EndSplineSet
EndChar

StartChar: afii10048
Encoding: 206 1070 441
Width: 796
Flags: W
HStem: -11 72 0 21G<60 139 60 60> 284 68 569 71 609 20G<60 139 139 139>
VStem: 101 79 242 81 704 82
LayerCount: 2
Fore
SplineSet
139 629 m 1,0,-1
 141 350 l 1,1,-1
 203 350 l 1,2,3
 211 482 211 482 276 555 c 0,4,5
 351 639 351 639 474 639 c 0,6,7
 596 639 596 639 671 555 c 128,-1,8
 746 471 746 471 746 312 c 0,9,10
 746 152 746 152 671 70 c 128,-1,11
 596 -12 596 -12 473 -12 c 128,-1,12
 350 -12 350 -12 275 72 c 0,13,14
 207 148 207 148 201 284 c 1,15,-1
 139 284 l 1,16,-1
 139 0 l 1,17,-1
 60 0 l 1,18,-1
 60 629 l 1,19,-1
 139 629 l 1,0,-1
474 567 m 2,20,-1
 473 567 l 2,21,22
 385 567 385 567 334 501 c 128,-1,23
 283 435 283 435 283 311 c 0,24,25
 283 186.5 283 186.5 334 122 c 0,26,27
 385 58 385 58 473 58 c 0,28,29
 562 58 562 58 613 122 c 0,30,31
 664 186.5 664 186.5 664 311 c 0,32,33
 664 435 664 435 613 501 c 128,-1,34
 562 567 562 567 474 567 c 2,20,-1
EndSplineSet
EndChar

StartChar: afii10049
Encoding: 207 1071 442
Width: 545
Flags: W
HStem: 0 21G<30 132 30 30 406 485 406 406> 257 54<295 406> 560 69<265 266 266 406>
VStem: 45 82<423 456 418 475> 406 78
LayerCount: 2
Fore
SplineSet
87 323 m 0,0,1
 45 371 45 371 45 449 c 128,-1,2
 45 527 45 527 102 578 c 128,-1,3
 159 629 159 629 265 629 c 2,4,-1
 485 629 l 1,5,-1
 485 0 l 1,6,-1
 406 0 l 1,7,-1
 406 257 l 1,8,-1
 295 257 l 1,9,-1
 132 0 l 1,10,-1
 30 0 l 1,11,-1
 210 261 l 1,12,13
 130 274 130 274 87 323 c 0,0,1
270 312 m 2,14,-1
 406 311 l 1,15,-1
 406 560 l 1,16,-1
 266 560 l 2,17,18
 199 560 199 560 163 527 c 128,-1,19
 127 494 127 494 127 437 c 128,-1,20
 127 380 127 380 163 346 c 0,21,22
 198 312 198 312 270 312 c 2,14,-1
EndSplineSet
EndChar

